<?xml version="1.0" standalone="no"?>
<!DOCTYPE svg PUBLIC "-//W3C//DTD SVG 1.1//EN" "http://www.w3.org/Graphics/SVG/1.1/DTD/svg11.dtd" >
<svg xmlns="http://www.w3.org/2000/svg" xmlns:xlink="http://www.w3.org/1999/xlink" version="1.1">
<metadata>
Created by FontForge 20170731 at Fri Nov 17 07:28:08 2017
 By Aleksey,,,
Copyright (c) Mark Simonson, 2005. All rights reserved.
</metadata>
<defs>
<font id="ProximaNova-Regular" horiz-adv-x="0" >
  <font-face 
    font-family="ProximaNova-Regular"
    font-weight="400"
    font-stretch="normal"
    units-per-em="1000"
    panose-1="2 0 5 6 3 0 0 2 0 4"
    ascent="800"
    descent="-200"
    x-height="483"
    cap-height="667"
    bbox="-46 -199 868 752"
    underline-thickness="54"
    underline-position="-211"
    unicode-range="U+0020-FB04"
  />
<missing-glyph horiz-adv-x="507" 
d="M78 752h351v-842h-351v842zM109 722v-782h288v782h-288z" />
    <glyph glyph-name="f_f" unicode="ff" horiz-adv-x="566" 
d="M96 417h-80v66h80v37q0 74 38 115.5t102 41.5q46 0 73 -17l-19 -56q-19 11 -43 11q-37 0 -56.5 -24.5t-19.5 -70.5v-37h98v-66h-98v-417h-75v417zM379 417h-80v66h80v37q0 74 38 115.5t102 41.5q46 0 73 -17l-19 -56q-19 11 -43 11q-37 0 -56.5 -24.5t-19.5 -70.5v-37h98
v-66h-98v-417h-75v417z" />
    <glyph glyph-name="fi" unicode="fi" horiz-adv-x="508" 
d="M96 417h-80v66h80v37q0 74 38 115.5t102 41.5q46 0 73 -17l-19 -57q-19 12 -43 12q-37 0 -56.5 -24.5t-19.5 -70.5v-37h98v-66h-98v-417h-75v417zM360 579q-15 15 -15 36t15 35.5t35 14.5q21 0 36 -14.5t15 -35.5t-15 -36t-36 -15q-20 0 -35 15zM358 483h75v-483h-75v483
z" />
    <glyph glyph-name="fl" unicode="fl" horiz-adv-x="508" 
d="M96 417h-80v66h80v37q0 74 38 115.5t102 41.5q46 0 73 -17l-19 -57q-19 12 -43 12q-37 0 -56.5 -24.5t-19.5 -70.5v-37h98v-66h-98v-417h-75v417zM358 667h75v-667h-75v667z" />
    <glyph glyph-name="f_f_i" unicode="ffi" horiz-adv-x="791" 
d="M96 417h-80v66h80v37q0 74 38 115.5t102 41.5q46 0 73 -17l-19 -56q-19 11 -43 11q-37 0 -56.5 -24.5t-19.5 -70.5v-37h98v-66h-98v-417h-75v417zM379 417h-80v66h80v37q0 74 38 115.5t102 41.5q46 0 73 -17l-19 -57q-19 12 -43 12q-37 0 -56.5 -24.5t-19.5 -70.5v-37h98
v-66h-98v-417h-75v417zM643 579q-15 15 -15 36t15 35.5t35 14.5q21 0 36 -14.5t15 -35.5t-15 -36t-36 -15q-20 0 -35 15zM641 483h75v-483h-75v483z" />
    <glyph glyph-name="f_f_l" unicode="ffl" horiz-adv-x="791" 
d="M96 417h-80v66h80v37q0 74 38 115.5t102 41.5q46 0 73 -17l-19 -56q-19 11 -43 11q-37 0 -56.5 -24.5t-19.5 -70.5v-37h98v-66h-98v-417h-75v417zM379 417h-80v66h80v37q0 74 38 115.5t102 41.5q46 0 73 -17l-19 -57q-19 12 -43 12q-37 0 -56.5 -24.5t-19.5 -70.5v-37h98
v-66h-98v-417h-75v417zM641 667h75v-667h-75v667z" />
    <glyph glyph-name="f_b" unicode="fb" 
 />
    <glyph glyph-name="f_h" unicode="fh" 
 />
    <glyph glyph-name="f_j" unicode="fj" 
 />
    <glyph glyph-name="f_k" unicode="fk" 
 />
    <glyph glyph-name="f_f_j" unicode="ffj" 
 />
    <glyph glyph-name=".notdef" horiz-adv-x="507" 
d="M78 752h351v-842h-351v842zM109 722v-782h288v782h-288z" />
    <glyph glyph-name=".null" 
 />
    <glyph glyph-name="nonmarkingreturn" 
 />
    <glyph glyph-name="space" unicode=" " horiz-adv-x="258" 
 />
    <glyph glyph-name="quotesingle" unicode="'" horiz-adv-x="199" 
d="M65.5 533q-11.5 89 -11.5 98q0 19 13 32.5t32 13.5t32.5 -13.5t13.5 -32.5q0 -9 -11.5 -98t-15.5 -121h-37q-4 32 -15.5 121z" />
    <glyph glyph-name="parenleft" unicode="(" horiz-adv-x="248" 
d="M80.5 8.5q-36.5 114.5 -36.5 234.5t36.5 234.5t104.5 207.5l45 -34q-53 -105 -78.5 -197.5t-25.5 -210.5q0 -117 25.5 -210.5t78.5 -196.5l-45 -35q-68 93 -104.5 207.5z" />
    <glyph glyph-name="parenright" unicode=")" horiz-adv-x="248" 
d="M96 454q-26 93 -79 197l45 34q68 -93 105 -207.5t37 -234.5q0 -121 -37 -235.5t-105 -206.5l-45 35q53 103 79 196.5t26 210.5q0 118 -26 211z" />
    <glyph glyph-name="asterisk" unicode="*" horiz-adv-x="340" 
d="M152 504l-96 -63l-22 40l102 52l-102 52l22 39l96 -62l-5 115h46l-6 -115l96 62l23 -39l-102 -52l102 -52l-23 -40l-96 63l6 -115h-46z" />
    <glyph glyph-name="plus" unicode="+" horiz-adv-x="499" 
d="M278 98h-57v213h-192v52h192v207h57v-207h192v-52h-192v-213z" />
    <glyph glyph-name="comma" unicode="," horiz-adv-x="230" 
d="M57 -96q25 16 43.5 42.5t21.5 50.5q-4 -2 -14 -2q-21 0 -34.5 14.5t-13.5 36.5t15.5 38t37.5 16q26 0 44.5 -20.5t18.5 -55.5q0 -44 -23 -84.5t-59 -66.5z" />
    <glyph glyph-name="hyphen" unicode="-" horiz-adv-x="300" 
d="M30 275h240v-66h-240v66z" />
    <glyph glyph-name="period" unicode="." horiz-adv-x="230" 
d="M76.5 84q16.5 16 38.5 16q23 0 39 -16t16 -39q0 -22 -16 -38.5t-39 -16.5q-22 0 -38.5 16.5t-16.5 38.5q0 23 16.5 39z" />
    <glyph glyph-name="zero" unicode="0" horiz-adv-x="612" 
d="M78 498.5q27 78.5 84 128.5t144 50q86 0 143.5 -50t84.5 -128.5t27 -165.5t-27 -165.5t-84.5 -129t-143.5 -50.5t-143.5 50.5t-84.5 129t-27 165.5t27 165.5zM435 524.5q-41 78.5 -129 78.5t-129 -78.5t-41 -191.5q0 -114 41 -192.5t129 -78.5t129 78.5t41 192.5
q0 113 -41 191.5z" />
    <glyph glyph-name="one" unicode="1" horiz-adv-x="339" 
d="M178 557l-107 -113l-50 51l167 172h73v-667h-83v557z" />
    <glyph glyph-name="three" unicode="3" horiz-adv-x="557" 
d="M78 150q30 -40 79 -64t107 -24q73 0 114.5 33.5t41.5 91.5q0 60 -44.5 89t-121.5 29q-59 0 -69 -1v76q11 -1 69 -1q68 0 111.5 27.5t43.5 82.5q0 53 -42.5 83.5t-106.5 30.5q-53 0 -95.5 -20t-80.5 -61l-46 52q39 47 97 75t131 28q99 0 162.5 -47.5t63.5 -130.5
q0 -66 -44 -105.5t-100 -49.5q34 -3 69.5 -22.5t60 -55.5t24.5 -86q0 -56 -28.5 -99.5t-82 -68t-125.5 -24.5q-80 0 -142 31t-95 79z" />
    <glyph glyph-name="four" unicode="4" horiz-adv-x="558" 
d="M349 169h-317v69l286 429h114v-425h94v-73h-94v-169h-83v169zM115 242h234v348z" />
    <glyph glyph-name="five" unicode="5" horiz-adv-x="590" 
d="M117 150q69 -88 184 -88q68 0 111 41t43 102q0 65 -42.5 104.5t-110.5 39.5q-90 0 -154 -63l-61 21v360h408v-74h-325v-232q26 26 67 43t89 17q57 0 105.5 -25t77.5 -73.5t29 -114.5t-31 -116t-85 -77t-121 -27q-81 0 -138.5 27.5t-96.5 79.5z" />
    <glyph glyph-name="six" unicode="6" horiz-adv-x="591" 
d="M80.5 504.5q29.5 78.5 90.5 125.5t151 47q115 0 185 -80l-42 -62q-28 33 -61 50.5t-82 17.5q-62 0 -104 -37t-63 -96.5t-21 -128.5q0 -17 1 -26q25 40 77.5 72t111.5 32q61 0 110.5 -24t78.5 -72t29 -117q0 -59 -28.5 -108.5t-81.5 -79.5t-124 -30q-131 0 -194 97.5
t-63 246.5q0 94 29.5 172.5zM415 310q-43 37 -111 37q-49 0 -94 -27.5t-73 -72.5q7 -74 48 -129.5t120 -55.5q49 0 83.5 21t52 53.5t17.5 66.5q0 70 -43 107z" />
    <glyph glyph-name="eight" unicode="8" horiz-adv-x="581" 
d="M97.5 278q45.5 46 113.5 66q-64 18 -106 58.5t-42 101.5q0 57 32.5 96t85 58t110.5 19t110.5 -19t85.5 -58t33 -96q0 -61 -42 -101.5t-107 -58.5q68 -20 113.5 -66t45.5 -109q0 -55 -32 -96t-86.5 -63t-120.5 -22q-67 0 -121.5 22t-86 63t-31.5 96q0 63 45.5 109z
M394.5 573q-41.5 30 -103.5 30q-63 0 -104 -30t-41 -80q0 -53 47 -79.5t98 -35.5q51 9 98 35.5t47 79.5q0 50 -41.5 80zM418 246q-28 28 -64 43t-63 18q-27 -3 -63.5 -18t-64.5 -43t-28 -68q0 -52 45.5 -84t110.5 -32q64 0 109.5 32t45.5 84q0 40 -28 68z" />
    <glyph glyph-name="A" unicode="A" horiz-adv-x="658" 
d="M498 148h-338l-59 -148h-92l268 667h103l269 -667h-92zM184 222h289l-144 371z" />
    <glyph glyph-name="C" unicode="C" horiz-adv-x="676" 
d="M219 31.5q-78 43.5 -123 122.5t-45 179t45 179t123 122.5t172 43.5q86 0 149.5 -35.5t106.5 -96.5l-70 -39q-29 43 -78.5 70t-107.5 27q-71 0 -129 -34.5t-91.5 -96.5t-33.5 -140t33.5 -139.5t91.5 -96.5t129 -35q58 0 107.5 26.5t78.5 70.5l71 -39q-97 -132 -257 -132
q-94 0 -172 43.5z" />
    <glyph glyph-name="I" unicode="I" horiz-adv-x="239" 
d="M78 667h83v-667h-83v667z" />
    <glyph glyph-name="P" unicode="P" horiz-adv-x="587" 
d="M78 667h268q65 0 112.5 -27t72 -73t24.5 -101t-25 -101t-72.5 -73t-111.5 -27h-185v-265h-83v667zM432 557.5q-37 35.5 -96 35.5h-175v-254h175q59 0 96 35.5t37 91.5t-37 91.5z" />
    <glyph glyph-name="T" unicode="T" horiz-adv-x="570" 
d="M243 593h-211v74h506v-74h-212v-593h-83v593z" />
    <glyph glyph-name="U" unicode="U" horiz-adv-x="700" 
d="M78 667h83v-406q0 -93 49 -146t140 -53t140 53t49 146v406h83v-407q0 -127 -69.5 -199.5t-202.5 -72.5t-202.5 72.5t-69.5 198.5v408z" />
    <glyph glyph-name="W" unicode="W" horiz-adv-x="883" 
d="M441 538l-147 -538h-90l-190 667h92l148 -556l153 556h69l153 -556l147 556h92l-190 -667h-90z" />
    <glyph glyph-name="bracketleft" unicode="[" horiz-adv-x="243" 
d="M40 678h186v-55h-128v-758h128v-55h-186v868z" />
    <glyph glyph-name="backslash" unicode="\" horiz-adv-x="296" 
d="M59 687l237 -707h-59l-237 707h59z" />
    <glyph glyph-name="bracketright" unicode="]" horiz-adv-x="243" 
d="M17 -135h128v758h-128v55h186v-868h-186v55z" />
    <glyph glyph-name="asciicircum" unicode="^" horiz-adv-x="432" 
d="M216 612l-135 -279h-62l169 334h57l168 -334h-62z" />
    <glyph glyph-name="underscore" unicode="_" horiz-adv-x="564" 
d="M-3 -40h570v-55h-570v55z" />
    <glyph glyph-name="grave" unicode="`" horiz-adv-x="226" 
d="M0 700h78l148 -144h-57z" />
    <glyph glyph-name="a" unicode="a" horiz-adv-x="527" 
d="M377 55q-61 -67 -160 -67q-43 0 -81.5 18.5t-63 55t-24.5 86.5q0 51 24.5 87t63 54t81.5 18q103 0 160 -66v87q0 48 -34 75t-88 27q-44 0 -80 -16.5t-68 -50.5l-35 52q39 41 86.5 60.5t106.5 19.5q83 0 135 -40t52 -123v-332h-75v55zM377 193q-21 29 -56.5 44.5
t-76.5 15.5q-52 0 -85.5 -29.5t-33.5 -76.5q0 -46 33.5 -75.5t85.5 -29.5q41 0 76.5 15.5t56.5 44.5v91z" />
    <glyph glyph-name="b" unicode="b" horiz-adv-x="575" 
d="M75 667h75v-257q30 40 72 62.5t91 22.5q63 0 111.5 -31.5t76 -89t27.5 -133.5q0 -77 -27.5 -134.5t-76 -88t-111.5 -30.5q-49 0 -92 23t-71 61v-72h-75v667zM210.5 77q40.5 -22 83.5 -22q72 0 114 52t42 134t-42 134.5t-114 52.5q-43 0 -83.5 -22.5t-60.5 -55.5v-219
q20 -32 60.5 -54z" />
    <glyph glyph-name="c" unicode="c" horiz-adv-x="495" 
d="M77.5 371q30.5 58 85 91t125.5 33q62 0 104 -22t73 -62l-50 -46q-46 63 -123 63q-76 0 -121.5 -52t-45.5 -134t45.5 -134.5t121.5 -52.5t123 63l50 -46q-31 -40 -73 -62t-104 -22q-71 0 -125.5 33t-85 91t-30.5 130q0 71 30.5 129z" />
    <glyph glyph-name="d" unicode="d" horiz-adv-x="575" 
d="M425 72q-28 -38 -71 -61t-92 -23q-63 0 -111.5 30.5t-76 88t-27.5 134.5q0 76 27 133.5t76 89t112 31.5q48 0 90.5 -22.5t72.5 -62.5v257h75v-667h-75v72zM425 350q-21 33 -61.5 55.5t-83.5 22.5q-71 0 -113 -52.5t-42 -134.5t42 -134t113 -52q44 0 84 22t61 54v219z" />
    <glyph glyph-name="e" unicode="e" horiz-adv-x="563" 
d="M78 369q31 58 85 92t122 34q71 0 123.5 -34t80.5 -93t28 -132v-19h-391q5 -71 52 -119t122 -48q42 0 81.5 16t67.5 45l36 -49q-74 -74 -192 -74q-71 0 -127 32t-87.5 90t-31.5 132q0 69 31 127zM200 409q-35 -24 -53.5 -61t-20.5 -76h317q-1 39 -18.5 76t-53 61t-87.5 24
q-49 0 -84 -24z" />
    <glyph glyph-name="f" unicode="f" horiz-adv-x="283" 
d="M96 417h-80v66h80v37q0 74 38 115.5t102 41.5q46 0 73 -17l-19 -56q-19 11 -43 11q-37 0 -56.5 -24.5t-19.5 -70.5v-37h98v-66h-98v-417h-75v417z" />
    <glyph glyph-name="g" unicode="g" horiz-adv-x="574" 
d="M112 -68q29 -35 66.5 -50.5t90.5 -15.5q67 0 111 35.5t44 109.5v69q-27 -38 -70 -62t-92 -24q-63 0 -111.5 30t-76 86.5t-27.5 133.5q0 76 27 133t76 87.5t112 30.5q48 0 90 -22.5t72 -62.5v73h75v-469q0 -111 -65 -160.5t-165 -49.5q-64 0 -109 15.5t-86 56.5zM424 350
q-20 33 -60 55.5t-84 22.5q-72 0 -113.5 -51t-41.5 -133q0 -81 42 -132.5t113 -51.5q43 0 83.5 23t60.5 56v211z" />
    <glyph glyph-name="h" unicode="h" horiz-adv-x="552" 
d="M402 318q0 60 -28 85t-81 25q-41 0 -80.5 -22t-62.5 -53v-353h-75v667h75v-254q28 33 75 57.5t98 24.5q154 0 154 -154v-341h-75v318z" />
    <glyph glyph-name="i" unicode="i" horiz-adv-x="225" 
d="M77 579q-15 15 -15 36t15 35.5t35 14.5q21 0 36 -14.5t15 -35.5t-15 -36t-36 -15q-20 0 -35 15zM75 483h75v-483h-75v483z" />
    <glyph glyph-name="j" unicode="j" horiz-adv-x="225" 
d="M77 579q-15 15 -15 36t15 35.5t35 14.5q21 0 36 -14.5t15 -35.5t-15 -36t-36 -15q-20 0 -35 15zM150 -47q0 -71 -37 -110t-105 -39q-32 0 -54 7l10 63q12 -5 36 -5q75 0 75 84v530h75v-530z" />
    <glyph glyph-name="k" unicode="k" horiz-adv-x="514" 
d="M230 217l-80 -79v-138h-75v667h75v-441l254 257h95l-214 -219l215 -264h-96z" />
    <glyph glyph-name="l" unicode="l" horiz-adv-x="225" 
d="M75 667h75v-667h-75v667z" />
    <glyph glyph-name="m" unicode="m" horiz-adv-x="808" 
d="M658 328q0 47 -22 73.5t-67 26.5q-36 0 -72 -22t-56 -52v-354h-75v328q0 100 -89 100q-35 0 -70.5 -22t-56.5 -53v-353h-75v483h75v-70q18 28 63 55t93 27q53 0 86 -25t44 -65q22 36 67 63t95 27q66 0 100.5 -37t34.5 -109v-349h-75v328z" />
    <glyph glyph-name="n" unicode="n" horiz-adv-x="551" 
d="M401 316q0 61 -28 86.5t-80 25.5q-42 0 -81.5 -22t-61.5 -53v-353h-75v483h75v-70q28 33 75 57.5t97 24.5q154 0 154 -156v-339h-75v316z" />
    <glyph glyph-name="o" unicode="o" horiz-adv-x="572" 
d="M160 22q-54 34 -83.5 92t-29.5 128t29.5 128t83.5 91.5t126 33.5t126 -33.5t83.5 -91.5t29.5 -128t-29.5 -128t-83.5 -92t-126 -34t-126 34zM372 80.5q36 25.5 55 68.5t19 93t-19 92.5t-55 68t-86 25.5t-86.5 -25.5t-55.5 -68t-19 -92.5t19 -93t55.5 -68.5t86.5 -25.5
t86 25.5z" />
    <glyph glyph-name="p" unicode="p" horiz-adv-x="574" 
d="M75 -184v667h75v-72q27 38 70 61t93 23q63 0 112 -30.5t76 -88t27 -134.5t-27 -134.5t-76 -88.5t-112 -31q-49 0 -91.5 22t-71.5 63v-257h-75zM407 376q-42 52 -113 52q-43 0 -83.5 -22.5t-60.5 -54.5v-218q20 -33 60.5 -55.5t83.5 -22.5q71 0 113 52.5t42 134.5t-42 134
z" />
    <glyph glyph-name="q" unicode="q" horiz-adv-x="574" 
d="M424 -184v257q-29 -41 -71 -63t-91 -22q-63 0 -112 31t-76 88.5t-27 134.5t27 134.5t76 88t112 30.5q50 0 92.5 -23t69.5 -61v72h75v-667h-75zM424 351q-20 33 -60 55t-84 22q-71 0 -113 -52t-42 -134t42 -134.5t113 -52.5q44 0 84 22.5t60 55.5v218z" />
    <glyph glyph-name="r" unicode="r" horiz-adv-x="330" 
d="M75 483h75v-78q31 40 72.5 64t88.5 24v-77q-14 3 -30 3q-34 0 -74 -24t-57 -53v-342h-75v483z" />
    <glyph glyph-name="s" unicode="s" horiz-adv-x="465" 
d="M72 118q25 -29 68.5 -49t90.5 -20q54 0 84 22t30 58t-31 53.5t-93 32.5q-56 13 -90.5 26t-59.5 41t-25 74q0 38 21.5 69.5t62 50.5t96.5 19q109 0 179 -70l-35 -52q-23 27 -61 44t-83 17q-49 0 -78 -20t-29 -53q0 -32 29.5 -47.5t88.5 -29.5q56 -13 92.5 -27t62.5 -43.5
t26 -79.5q0 -64 -50 -105t-140 -41q-123 0 -195 76z" />
    <glyph glyph-name="t" unicode="t" horiz-adv-x="294" 
d="M117 17q-27 29 -27 84v316h-80v66h80v132h75v-132h98v-66h-98v-300q0 -28 12.5 -45t36.5 -17q15 0 29 5.5t22 14.5l22 -56q-33 -31 -90 -31q-53 0 -80 29z" />
    <glyph glyph-name="u" unicode="u" horiz-adv-x="551" 
d="M401 68q-30 -34 -75.5 -57t-96.5 -23q-154 0 -154 154v341h75v-318q0 -60 27.5 -85t80.5 -25q42 0 81.5 21t61.5 52v355h75v-483h-75v68z" />
    <glyph glyph-name="v" unicode="v" horiz-adv-x="490" 
d="M3 483h81l161 -396l160 396h82l-201 -483h-82z" />
    <glyph glyph-name="w" unicode="w" horiz-adv-x="734" 
d="M367 388l-126 -388h-75l-154 483h78l118 -385l127 385h64l127 -385l118 385h78l-154 -483h-75z" />
    <glyph glyph-name="x" unicode="x" horiz-adv-x="486" 
d="M243 198l-145 -198h-86l185 248l-175 235h87l134 -184l134 184h87l-175 -235l186 -248h-87z" />
    <glyph glyph-name="y" unicode="y" horiz-adv-x="490" 
d="M101 -129q26 0 43 11t29 40l32 73l-202 488h81l161 -396l160 396h82l-242 -581q-21 -51 -56.5 -74t-85.5 -24q-30 0 -55 7l12 68q18 -8 41 -8z" />
    <glyph glyph-name="z" unicode="z" horiz-adv-x="472" 
d="M52 58l266 359h-266v66h364v-57l-268 -361h272v-65h-368v58z" />
    <glyph glyph-name="quoteright" unicode="&#x2019;" horiz-adv-x="230" 
d="M57 481q24 16 43 42.5t22 50.5q-4 -2 -14 -2q-21 0 -34.5 14.5t-13.5 36.5t15.5 38t37.5 16q26 0 44.5 -20.5t18.5 -55.5q0 -44 -23 -84.5t-59 -66.5z" />
    <glyph glyph-name="quotesinglbase" unicode="&#x201a;" horiz-adv-x="230" 
d="M57 -96q25 16 43.5 42.5t21.5 50.5q-4 -2 -14 -2q-21 0 -34.5 14.5t-13.5 36.5t15.5 38t37.5 16q26 0 44.5 -20.5t18.5 -55.5q0 -44 -23 -84.5t-59 -66.5z" />
    <glyph glyph-name="quotereversed" unicode="&#x201b;" horiz-adv-x="230" 
d="M154 661q16 -16 16 -38t-14 -36.5t-35 -14.5q-9 0 -13 2q3 -24 21.5 -50.5t42.5 -42.5l-37 -31q-36 26 -58.5 66.5t-22.5 84.5q0 35 18 55.5t44 20.5q22 0 38 -16z" />
    <glyph glyph-name="quotedblleft" unicode="&#x201c;" horiz-adv-x="390" 
d="M172 647q-24 -16 -43 -42.5t-21 -50.5l13 1q21 0 34.5 -14.5t13.5 -36.5t-15.5 -37.5t-37.5 -15.5q-26 0 -44 20.5t-18 55.5q0 44 22.5 84t58.5 66zM332 647q-24 -16 -42.5 -42.5t-21.5 -50.5l13 1q21 0 35 -14.5t14 -36.5t-16 -37.5t-38 -15.5q-26 0 -44 20.5t-18 55.5
q0 44 22.5 84t58.5 66z" />
    <glyph glyph-name="quotedblright" unicode="&#x201d;" horiz-adv-x="390" 
d="M57 481q24 16 43 42.5t22 50.5q-4 -2 -14 -2q-21 0 -34.5 14.5t-13.5 36.5t15.5 38t37.5 16q26 0 44.5 -20.5t18.5 -55.5q0 -44 -23 -84.5t-59 -66.5zM218 481q24 16 42.5 42.5t21.5 50.5q-4 -2 -13 -2q-21 0 -35 14.5t-14 36.5t15.5 38t37.5 16q26 0 44.5 -20.5
t18.5 -55.5q0 -44 -23 -84.5t-58 -66.5z" />
    <glyph glyph-name="NULL" 
 />
    <glyph glyph-name="uni00A0" 
 />
    <glyph glyph-name="uni2009" 
 />
    <glyph glyph-name="uni200A" 
 />
    <glyph glyph-name="uni2001" 
 />
    <glyph glyph-name="uni2003" 
 />
    <glyph glyph-name="uni2000" 
 />
    <glyph glyph-name="uni2002" 
 />
    <glyph glyph-name="uni2005" 
 />
    <glyph glyph-name="uni2006" 
 />
    <glyph glyph-name="uni2004" 
 />
    <glyph glyph-name="uni2007" 
 />
    <glyph glyph-name="uni2008" 
 />
    <glyph glyph-name="zero.pzero" 
 />
    <glyph glyph-name="two" 
 />
    <glyph glyph-name="seven" 
 />
    <glyph glyph-name="nine" 
 />
    <glyph glyph-name="zero.tnum" 
 />
    <glyph glyph-name="zero.tzero" 
 />
    <glyph glyph-name="one.tnum" 
 />
    <glyph glyph-name="one.tnum_alt" 
 />
    <glyph glyph-name="two.tnum" 
 />
    <glyph glyph-name="three.tnum" 
 />
    <glyph glyph-name="four.tnum" 
 />
    <glyph glyph-name="five.tnum" 
 />
    <glyph glyph-name="six.tnum" 
 />
    <glyph glyph-name="seven.tnum" 
 />
    <glyph glyph-name="eight.tnum" 
 />
    <glyph glyph-name="nine.tnum" 
 />
    <glyph glyph-name="zero.tonum" 
 />
    <glyph glyph-name="zero.tonumzero" 
 />
    <glyph glyph-name="one.tonum" 
 />
    <glyph glyph-name="two.tonum" 
 />
    <glyph glyph-name="three.tonum" 
 />
    <glyph glyph-name="four.tonum" 
 />
    <glyph glyph-name="five.tonum" 
 />
    <glyph glyph-name="six.tonum" 
 />
    <glyph glyph-name="seven.tonum" 
 />
    <glyph glyph-name="eight.tonum" 
 />
    <glyph glyph-name="nine.tonum" 
 />
    <glyph glyph-name="zero.onum" 
 />
    <glyph glyph-name="zero.onumzero" 
 />
    <glyph glyph-name="one.onum" 
 />
    <glyph glyph-name="two.onum" 
 />
    <glyph glyph-name="three.onum" 
 />
    <glyph glyph-name="four.onum" 
 />
    <glyph glyph-name="five.onum" 
 />
    <glyph glyph-name="six.onum" 
 />
    <glyph glyph-name="seven.onum" 
 />
    <glyph glyph-name="eight.onum" 
 />
    <glyph glyph-name="nine.onum" 
 />
    <glyph glyph-name="B" 
 />
    <glyph glyph-name="D" 
 />
    <glyph glyph-name="E" 
 />
    <glyph glyph-name="F" 
 />
    <glyph glyph-name="G" 
 />
    <glyph glyph-name="G.alt1" 
 />
    <glyph glyph-name="H" 
 />
    <glyph glyph-name="J" 
 />
    <glyph glyph-name="K" 
 />
    <glyph glyph-name="L" 
 />
    <glyph glyph-name="M" 
 />
    <glyph glyph-name="N" 
 />
    <glyph glyph-name="O" 
 />
    <glyph glyph-name="Q" 
 />
    <glyph glyph-name="R" 
 />
    <glyph glyph-name="S" 
 />
    <glyph glyph-name="V" 
 />
    <glyph glyph-name="X" 
 />
    <glyph glyph-name="Y" 
 />
    <glyph glyph-name="Z" 
 />
    <glyph glyph-name="a.alt1" 
 />
    <glyph glyph-name="f.alt1" horiz-adv-x="283" 
d="M96 417h-80v66h80v37q0 74 38 115.5t102 41.5q46 0 73 -17l-19 -57q-19 12 -43 12q-37 0 -56.5 -24.5t-19.5 -70.5v-37h98v-66h-98v-417h-75v417z" />
    <glyph glyph-name="l.alt1" 
 />
    <glyph glyph-name="y.alt1" 
 />
    <glyph glyph-name="A.smcp" 
 />
    <glyph glyph-name="B.smcp" 
 />
    <glyph glyph-name="C.smcp" 
 />
    <glyph glyph-name="D.smcp" 
 />
    <glyph glyph-name="E.smcp" 
 />
    <glyph glyph-name="F.smcp" 
 />
    <glyph glyph-name="G.smcp" 
 />
    <glyph glyph-name="G.smcp.alt1" 
 />
    <glyph glyph-name="H.smcp" 
 />
    <glyph glyph-name="I.smcp" 
 />
    <glyph glyph-name="J.smcp" 
 />
    <glyph glyph-name="K.smcp" 
 />
    <glyph glyph-name="L.smcp" 
 />
    <glyph glyph-name="M.smcp" 
 />
    <glyph glyph-name="N.smcp" 
 />
    <glyph glyph-name="O.smcp" 
 />
    <glyph glyph-name="P.smcp" 
 />
    <glyph glyph-name="Q.smcp" 
 />
    <glyph glyph-name="R.smcp" 
 />
    <glyph glyph-name="S.smcp" 
 />
    <glyph glyph-name="T.smcp" 
 />
    <glyph glyph-name="U.smcp" 
 />
    <glyph glyph-name="V.smcp" 
 />
    <glyph glyph-name="W.smcp" 
 />
    <glyph glyph-name="X.smcp" 
 />
    <glyph glyph-name="Y.smcp" 
 />
    <glyph glyph-name="Z.smcp" 
 />
    <glyph glyph-name="Aacute" 
 />
    <glyph glyph-name="Abreve" 
 />
    <glyph glyph-name="Acircumflex" 
 />
    <glyph glyph-name="Adieresis" 
 />
    <glyph glyph-name="Agrave" 
 />
    <glyph glyph-name="Amacron" 
 />
    <glyph glyph-name="Aogonek" 
 />
    <glyph glyph-name="Aring" 
 />
    <glyph glyph-name="Aringacute" 
 />
    <glyph glyph-name="Atilde" 
 />
    <glyph glyph-name="uni1EA0" 
 />
    <glyph glyph-name="uni1EA2" 
 />
    <glyph glyph-name="uni1EA4" 
 />
    <glyph glyph-name="uni1EAC" 
 />
    <glyph glyph-name="uni1EA6" 
 />
    <glyph glyph-name="uni1EA8" 
 />
    <glyph glyph-name="uni1EAE" 
 />
    <glyph glyph-name="uni1EAA" 
 />
    <glyph glyph-name="uni1EB0" 
 />
    <glyph glyph-name="uni1EB2" 
 />
    <glyph glyph-name="uni1EB4" 
 />
    <glyph glyph-name="uni1EB6" 
 />
    <glyph glyph-name="AE" 
 />
    <glyph glyph-name="AEacute" 
 />
    <glyph glyph-name="uni1E02" 
 />
    <glyph glyph-name="Cacute" 
 />
    <glyph glyph-name="Ccedilla" 
 />
    <glyph glyph-name="Ccircumflex" 
 />
    <glyph glyph-name="Cdotaccent" 
 />
    <glyph glyph-name="Ccaron" 
 />
    <glyph glyph-name="Dcaron" 
 />
    <glyph glyph-name="Dcroat" 
 />
    <glyph glyph-name="uni1E0A" 
 />
    <glyph glyph-name="Eacute" 
 />
    <glyph glyph-name="Ebreve" 
 />
    <glyph glyph-name="Ecircumflex" 
 />
    <glyph glyph-name="Edieresis" 
 />
    <glyph glyph-name="Edotaccent" 
 />
    <glyph glyph-name="Egrave" 
 />
    <glyph glyph-name="Emacron" 
 />
    <glyph glyph-name="Eogonek" 
 />
    <glyph glyph-name="Ecaron" 
 />
    <glyph glyph-name="uni1EB8" 
 />
    <glyph glyph-name="uni1EBA" 
 />
    <glyph glyph-name="uni1EBC" 
 />
    <glyph glyph-name="uni1EBE" 
 />
    <glyph glyph-name="uni1EC0" 
 />
    <glyph glyph-name="uni1EC2" 
 />
    <glyph glyph-name="uni1EC4" 
 />
    <glyph glyph-name="uni1EC6" 
 />
    <glyph glyph-name="uni1E1E" 
 />
    <glyph glyph-name="Gcircumflex" 
 />
    <glyph glyph-name="Gbreve" 
 />
    <glyph glyph-name="Gdotaccent" 
 />
    <glyph glyph-name="uni0122" 
 />
    <glyph glyph-name="Gcaron" 
 />
    <glyph glyph-name="Gcircumflex.alt1" 
 />
    <glyph glyph-name="Gbreve.alt1" 
 />
    <glyph glyph-name="Gdotaccent.alt1" 
 />
    <glyph glyph-name="Gcommaaccent.alt1" 
 />
    <glyph glyph-name="Gcaron.alt1" 
 />
    <glyph glyph-name="Hbar" 
 />
    <glyph glyph-name="Hcircumflex" 
 />
    <glyph glyph-name="uni1E22" 
 />
    <glyph glyph-name="Iacute" 
 />
    <glyph glyph-name="Ibreve" 
 />
    <glyph glyph-name="Icircumflex" 
 />
    <glyph glyph-name="Idieresis" 
 />
    <glyph glyph-name="Idotaccent" 
 />
    <glyph glyph-name="Igrave" 
 />
    <glyph glyph-name="Imacron" 
 />
    <glyph glyph-name="Iogonek" 
 />
    <glyph glyph-name="Itilde" 
 />
    <glyph glyph-name="uni1EC8" 
 />
    <glyph glyph-name="uni1ECA" 
 />
    <glyph glyph-name="IJ" 
 />
    <glyph glyph-name="Iacute_J.loclNLD" 
 />
    <glyph glyph-name="Jcircumflex" 
 />
    <glyph glyph-name="uni0136" 
 />
    <glyph glyph-name="Lacute" 
 />
    <glyph glyph-name="Lcaron" 
 />
    <glyph glyph-name="uni013B" 
 />
    <glyph glyph-name="Ldot" 
 />
    <glyph glyph-name="Lslash" 
 />
    <glyph glyph-name="Nacute" 
 />
    <glyph glyph-name="Ncaron" 
 />
    <glyph glyph-name="uni0145" 
 />
    <glyph glyph-name="Ntilde" 
 />
    <glyph glyph-name="uni019D" 
 />
    <glyph glyph-name="Eng" 
 />
    <glyph glyph-name="Oacute" 
 />
    <glyph glyph-name="Obreve" 
 />
    <glyph glyph-name="Ocircumflex" 
 />
    <glyph glyph-name="Odieresis" 
 />
    <glyph glyph-name="Ograve" 
 />
    <glyph glyph-name="Ohungarumlaut" 
 />
    <glyph glyph-name="Omacron" 
 />
    <glyph glyph-name="Oslash" 
 />
    <glyph glyph-name="Oslashacute" 
 />
    <glyph glyph-name="Otilde" 
 />
    <glyph glyph-name="uni01EA" 
 />
    <glyph glyph-name="uni1ECC" 
 />
    <glyph glyph-name="uni1ECE" 
 />
    <glyph glyph-name="uni1ED0" 
 />
    <glyph glyph-name="uni1ED2" 
 />
    <glyph glyph-name="uni1ED4" 
 />
    <glyph glyph-name="uni1ED6" 
 />
    <glyph glyph-name="uni1ED8" 
 />
    <glyph glyph-name="Ohorn" 
 />
    <glyph glyph-name="uni1EDA" 
 />
    <glyph glyph-name="uni1EDC" 
 />
    <glyph glyph-name="uni1EDE" 
 />
    <glyph glyph-name="uni1EE0" 
 />
    <glyph glyph-name="uni1EE2" 
 />
    <glyph glyph-name="OE" 
 />
    <glyph glyph-name="uni1E56" 
 />
    <glyph glyph-name="Racute" 
 />
    <glyph glyph-name="Rcaron" 
 />
    <glyph glyph-name="uni0156" 
 />
    <glyph glyph-name="Sacute" 
 />
    <glyph glyph-name="Scaron" 
 />
    <glyph glyph-name="Scircumflex" 
 />
    <glyph glyph-name="uni015E" 
 />
    <glyph glyph-name="uni0218" 
 />
    <glyph glyph-name="uni1E60" 
 />
    <glyph glyph-name="uni1E9E" 
 />
    <glyph glyph-name="Tbar" 
 />
    <glyph glyph-name="Tcaron" 
 />
    <glyph glyph-name="uni0162" 
 />
    <glyph glyph-name="uni021A" 
 />
    <glyph glyph-name="uni1E6A" 
 />
    <glyph glyph-name="Uacute" 
 />
    <glyph glyph-name="Ubreve" 
 />
    <glyph glyph-name="Ucircumflex" 
 />
    <glyph glyph-name="Udieresis" 
 />
    <glyph glyph-name="Ugrave" 
 />
    <glyph glyph-name="Uhungarumlaut" 
 />
    <glyph glyph-name="Umacron" 
 />
    <glyph glyph-name="Uogonek" 
 />
    <glyph glyph-name="Uring" 
 />
    <glyph glyph-name="Utilde" 
 />
    <glyph glyph-name="uni1EE4" 
 />
    <glyph glyph-name="Uhorn" 
 />
    <glyph glyph-name="uni1EE6" 
 />
    <glyph glyph-name="uni1EE8" 
 />
    <glyph glyph-name="uni1EEA" 
 />
    <glyph glyph-name="uni1EEC" 
 />
    <glyph glyph-name="uni1EEE" 
 />
    <glyph glyph-name="uni1EF0" 
 />
    <glyph glyph-name="Wacute" 
 />
    <glyph glyph-name="Wcircumflex" 
 />
    <glyph glyph-name="Wdieresis" 
 />
    <glyph glyph-name="Wgrave" 
 />
    <glyph glyph-name="Yacute" 
 />
    <glyph glyph-name="Ycircumflex" 
 />
    <glyph glyph-name="Ydieresis" 
 />
    <glyph glyph-name="Ygrave" 
 />
    <glyph glyph-name="uni0232" 
 />
    <glyph glyph-name="uni1EF4" 
 />
    <glyph glyph-name="uni1EF6" 
 />
    <glyph glyph-name="uni1EF8" 
 />
    <glyph glyph-name="Zacute" 
 />
    <glyph glyph-name="Zcaron" 
 />
    <glyph glyph-name="Zdotaccent" 
 />
    <glyph glyph-name="Eth" 
 />
    <glyph glyph-name="Thorn" 
 />
    <glyph glyph-name="aacute" 
 />
    <glyph glyph-name="abreve" 
 />
    <glyph glyph-name="acircumflex" 
 />
    <glyph glyph-name="adieresis" 
 />
    <glyph glyph-name="agrave" 
 />
    <glyph glyph-name="amacron" 
 />
    <glyph glyph-name="aogonek" 
 />
    <glyph glyph-name="aring" 
 />
    <glyph glyph-name="aringacute" 
 />
    <glyph glyph-name="atilde" 
 />
    <glyph glyph-name="uni1EA1" 
 />
    <glyph glyph-name="uni1EA3" 
 />
    <glyph glyph-name="uni1EA5" 
 />
    <glyph glyph-name="uni1EAD" 
 />
    <glyph glyph-name="uni1EA7" 
 />
    <glyph glyph-name="uni1EA9" 
 />
    <glyph glyph-name="uni1EAF" 
 />
    <glyph glyph-name="uni1EAB" 
 />
    <glyph glyph-name="uni1EB1" 
 />
    <glyph glyph-name="uni1EB3" 
 />
    <glyph glyph-name="uni1EB5" 
 />
    <glyph glyph-name="uni1EB7" 
 />
    <glyph glyph-name="ae" 
 />
    <glyph glyph-name="aeacute" 
 />
    <glyph glyph-name="aacute.alt1" 
 />
    <glyph glyph-name="abreve.alt1" 
 />
    <glyph glyph-name="acircumflex.alt1" 
 />
    <glyph glyph-name="adieresis.alt1" 
 />
    <glyph glyph-name="agrave.alt1" 
 />
    <glyph glyph-name="amacron.alt1" 
 />
    <glyph glyph-name="aogonek.alt1" 
 />
    <glyph glyph-name="aring.alt1" 
 />
    <glyph glyph-name="aringacute.alt1" 
 />
    <glyph glyph-name="atilde.alt1" 
 />
    <glyph glyph-name="uni1EA1.alt1" 
 />
    <glyph glyph-name="uni1EA3.alt1" 
 />
    <glyph glyph-name="uni1EA5.alt1" 
 />
    <glyph glyph-name="uni1EAD.alt1" 
 />
    <glyph glyph-name="uni1EA7.alt1" 
 />
    <glyph glyph-name="uni1EA9.alt1" 
 />
    <glyph glyph-name="uni1EAF.alt1" 
 />
    <glyph glyph-name="uni1EAB.alt1" 
 />
    <glyph glyph-name="uni1EB1.alt1" 
 />
    <glyph glyph-name="uni1EB3.alt1" 
 />
    <glyph glyph-name="uni1EB5.alt1" 
 />
    <glyph glyph-name="uni1EB7.alt1" 
 />
    <glyph glyph-name="ae.alt1" 
 />
    <glyph glyph-name="aeacute.alt1" 
 />
    <glyph glyph-name="uni1E03" 
 />
    <glyph glyph-name="cacute" 
 />
    <glyph glyph-name="ccedilla" 
 />
    <glyph glyph-name="ccircumflex" 
 />
    <glyph glyph-name="cdotaccent" 
 />
    <glyph glyph-name="ccaron" 
 />
    <glyph glyph-name="dcaron" 
 />
    <glyph glyph-name="dcroat" 
 />
    <glyph glyph-name="uni1E0B" 
 />
    <glyph glyph-name="eacute" 
 />
    <glyph glyph-name="ebreve" 
 />
    <glyph glyph-name="ecircumflex" 
 />
    <glyph glyph-name="edieresis" 
 />
    <glyph glyph-name="edotaccent" 
 />
    <glyph glyph-name="egrave" 
 />
    <glyph glyph-name="emacron" 
 />
    <glyph glyph-name="eogonek" 
 />
    <glyph glyph-name="ecaron" 
 />
    <glyph glyph-name="uni1EB9" 
 />
    <glyph glyph-name="uni1EBB" 
 />
    <glyph glyph-name="uni1EBD" 
 />
    <glyph glyph-name="uni1EBF" 
 />
    <glyph glyph-name="uni1EC1" 
 />
    <glyph glyph-name="uni1EC3" 
 />
    <glyph glyph-name="uni1EC5" 
 />
    <glyph glyph-name="uni1EC7" 
 />
    <glyph glyph-name="fl.alt1" 
 />
    <glyph glyph-name="f_f_l.alt1" 
 />
    <glyph glyph-name="uni1E1F" 
 />
    <glyph glyph-name="gcircumflex" 
 />
    <glyph glyph-name="gbreve" 
 />
    <glyph glyph-name="gdotaccent" 
 />
    <glyph glyph-name="uni0123" 
 />
    <glyph glyph-name="gcaron" 
 />
    <glyph glyph-name="hbar" 
 />
    <glyph glyph-name="hcircumflex" 
 />
    <glyph glyph-name="uni1E23" 
 />
    <glyph glyph-name="dotlessi" 
 />
    <glyph glyph-name="iacute" 
 />
    <glyph glyph-name="ibreve" 
 />
    <glyph glyph-name="icircumflex" 
 />
    <glyph glyph-name="idieresis" 
 />
    <glyph glyph-name="igrave" 
 />
    <glyph glyph-name="imacron" 
 />
    <glyph glyph-name="iogonek" 
 />
    <glyph glyph-name="itilde" 
 />
    <glyph glyph-name="uni1EC9" 
 />
    <glyph glyph-name="uni1ECB" 
 />
    <glyph glyph-name="i.dotaccent" 
 />
    <glyph glyph-name="ij" 
 />
    <glyph glyph-name="iacute_j.loclNLD" 
 />
    <glyph glyph-name="uni0237" 
 />
    <glyph glyph-name="jcircumflex" 
 />
    <glyph glyph-name="uni0137" 
 />
    <glyph glyph-name="kgreenlandic" 
 />
    <glyph glyph-name="lacute" 
 />
    <glyph glyph-name="uni013C" 
 />
    <glyph glyph-name="lcaron" 
 />
    <glyph glyph-name="ldot" 
 />
    <glyph glyph-name="lslash" 
 />
    <glyph glyph-name="lacute.alt1" 
 />
    <glyph glyph-name="lcommaaccent.alt1" 
 />
    <glyph glyph-name="lcaron.alt1" 
 />
    <glyph glyph-name="ldot.alt1" 
 />
    <glyph glyph-name="lslash.alt1" 
 />
    <glyph glyph-name="nacute" 
 />
    <glyph glyph-name="napostrophe" 
 />
    <glyph glyph-name="ncaron" 
 />
    <glyph glyph-name="uni0146" 
 />
    <glyph glyph-name="ntilde" 
 />
    <glyph glyph-name="uni0272" 
 />
    <glyph glyph-name="eng" 
 />
    <glyph glyph-name="oacute" 
 />
    <glyph glyph-name="obreve" 
 />
    <glyph glyph-name="ocircumflex" 
 />
    <glyph glyph-name="odieresis" 
 />
    <glyph glyph-name="ograve" 
 />
    <glyph glyph-name="ohungarumlaut" 
 />
    <glyph glyph-name="omacron" 
 />
    <glyph glyph-name="oslash" 
 />
    <glyph glyph-name="oslashacute" 
 />
    <glyph glyph-name="otilde" 
 />
    <glyph glyph-name="uni01EB" 
 />
    <glyph glyph-name="uni1ECD" 
 />
    <glyph glyph-name="uni1ECF" 
 />
    <glyph glyph-name="uni1ED1" 
 />
    <glyph glyph-name="uni1ED3" 
 />
    <glyph glyph-name="uni1ED5" 
 />
    <glyph glyph-name="uni1ED7" 
 />
    <glyph glyph-name="uni1ED9" 
 />
    <glyph glyph-name="ohorn" 
 />
    <glyph glyph-name="uni1EDB" 
 />
    <glyph glyph-name="uni1EDD" 
 />
    <glyph glyph-name="uni1EDF" 
 />
    <glyph glyph-name="uni1EE1" 
 />
    <glyph glyph-name="uni1EE3" 
 />
    <glyph glyph-name="oe" 
 />
    <glyph glyph-name="uni1E57" 
 />
    <glyph glyph-name="racute" 
 />
    <glyph glyph-name="rcaron" 
 />
    <glyph glyph-name="uni0157" 
 />
    <glyph glyph-name="sacute" 
 />
    <glyph glyph-name="scaron" 
 />
    <glyph glyph-name="scircumflex" 
 />
    <glyph glyph-name="uni015F" 
 />
    <glyph glyph-name="uni0219" 
 />
    <glyph glyph-name="uni1E61" 
 />
    <glyph glyph-name="germandbls" 
 />
    <glyph glyph-name="longs" 
 />
    <glyph glyph-name="tbar" 
 />
    <glyph glyph-name="tcaron" 
 />
    <glyph glyph-name="uni0163" 
 />
    <glyph glyph-name="uni021B" 
 />
    <glyph glyph-name="uni1E6B" 
 />
    <glyph glyph-name="uacute" 
 />
    <glyph glyph-name="ubreve" 
 />
    <glyph glyph-name="ucircumflex" 
 />
    <glyph glyph-name="udieresis" 
 />
    <glyph glyph-name="ugrave" 
 />
    <glyph glyph-name="uhungarumlaut" 
 />
    <glyph glyph-name="umacron" 
 />
    <glyph glyph-name="uogonek" 
 />
    <glyph glyph-name="uring" 
 />
    <glyph glyph-name="utilde" 
 />
    <glyph glyph-name="uni1EE5" 
 />
    <glyph glyph-name="uhorn" 
 />
    <glyph glyph-name="uni1EE7" 
 />
    <glyph glyph-name="uni1EE9" 
 />
    <glyph glyph-name="uni1EEB" 
 />
    <glyph glyph-name="uni1EED" 
 />
    <glyph glyph-name="uni1EEF" 
 />
    <glyph glyph-name="uni1EF1" 
 />
    <glyph glyph-name="wacute" 
 />
    <glyph glyph-name="wcircumflex" 
 />
    <glyph glyph-name="wdieresis" 
 />
    <glyph glyph-name="wgrave" 
 />
    <glyph glyph-name="yacute" 
 />
    <glyph glyph-name="ycircumflex" 
 />
    <glyph glyph-name="ydieresis" 
 />
    <glyph glyph-name="ygrave" 
 />
    <glyph glyph-name="uni0233" 
 />
    <glyph glyph-name="uni1EF5" 
 />
    <glyph glyph-name="uni1EF7" 
 />
    <glyph glyph-name="uni1EF9" 
 />
    <glyph glyph-name="yacute.alt1" 
 />
    <glyph glyph-name="ycircumflex.alt1" 
 />
    <glyph glyph-name="ydieresis.alt1" 
 />
    <glyph glyph-name="ygrave.alt1" 
 />
    <glyph glyph-name="uni0233.alt1" 
 />
    <glyph glyph-name="uni1EF5.alt1" 
 />
    <glyph glyph-name="uni1EF7.alt1" 
 />
    <glyph glyph-name="uni1EF9.alt1" 
 />
    <glyph glyph-name="zacute" 
 />
    <glyph glyph-name="zcaron" 
 />
    <glyph glyph-name="zdotaccent" 
 />
    <glyph glyph-name="eth" 
 />
    <glyph glyph-name="thorn" 
 />
    <glyph glyph-name="Aacute.smcp" 
 />
    <glyph glyph-name="Abreve.smcp" 
 />
    <glyph glyph-name="Acircumflex.smcp" 
 />
    <glyph glyph-name="Adieresis.smcp" 
 />
    <glyph glyph-name="Agrave.smcp" 
 />
    <glyph glyph-name="Amacron.smcp" 
 />
    <glyph glyph-name="Aogonek.smcp" 
 />
    <glyph glyph-name="Aring.smcp" 
 />
    <glyph glyph-name="Aringacute.smcp" 
 />
    <glyph glyph-name="Atilde.smcp" 
 />
    <glyph glyph-name="uni1EA0.smcp" 
 />
    <glyph glyph-name="uni1EA2.smcp" 
 />
    <glyph glyph-name="uni1EA4.smcp" 
 />
    <glyph glyph-name="uni1EAC.smcp" 
 />
    <glyph glyph-name="uni1EA6.smcp" 
 />
    <glyph glyph-name="uni1EA8.smcp" 
 />
    <glyph glyph-name="uni1EAE.smcp" 
 />
    <glyph glyph-name="uni1EAA.smcp" 
 />
    <glyph glyph-name="uni1EB0.smcp" 
 />
    <glyph glyph-name="uni1EB2.smcp" 
 />
    <glyph glyph-name="uni1EB4.smcp" 
 />
    <glyph glyph-name="uni1EB6.smcp" 
 />
    <glyph glyph-name="AE.smcp" 
 />
    <glyph glyph-name="AEacute.smcp" 
 />
    <glyph glyph-name="uni1E02.smcp" 
 />
    <glyph glyph-name="Cacute.smcp" 
 />
    <glyph glyph-name="Ccaron.smcp" 
 />
    <glyph glyph-name="Ccedilla.smcp" 
 />
    <glyph glyph-name="Ccircumflex.smcp" 
 />
    <glyph glyph-name="Cdotaccent.smcp" 
 />
    <glyph glyph-name="Dcaron.smcp" 
 />
    <glyph glyph-name="Dcroat.smcp" 
 />
    <glyph glyph-name="uni1E0A.smcp" 
 />
    <glyph glyph-name="Eacute.smcp" 
 />
    <glyph glyph-name="Ebreve.smcp" 
 />
    <glyph glyph-name="Ecaron.smcp" 
 />
    <glyph glyph-name="Ecircumflex.smcp" 
 />
    <glyph glyph-name="Edieresis.smcp" 
 />
    <glyph glyph-name="Edotaccent.smcp" 
 />
    <glyph glyph-name="Egrave.smcp" 
 />
    <glyph glyph-name="Emacron.smcp" 
 />
    <glyph glyph-name="Eogonek.smcp" 
 />
    <glyph glyph-name="uni1EB8.smcp" 
 />
    <glyph glyph-name="uni1EBA.smcp" 
 />
    <glyph glyph-name="uni1EBC.smcp" 
 />
    <glyph glyph-name="uni1EBE.smcp" 
 />
    <glyph glyph-name="uni1EC0.smcp" 
 />
    <glyph glyph-name="uni1EC2.smcp" 
 />
    <glyph glyph-name="uni1EC4.smcp" 
 />
    <glyph glyph-name="uni1EC6.smcp" 
 />
    <glyph glyph-name="uni1E1E.smcp" 
 />
    <glyph glyph-name="fi.smcp" 
 />
    <glyph glyph-name="fl.smcp" 
 />
    <glyph glyph-name="Gcircumflex.smcp" 
 />
    <glyph glyph-name="Gbreve.smcp" 
 />
    <glyph glyph-name="Gdotaccent.smcp" 
 />
    <glyph glyph-name="Gcommaaccent.smcp" 
 />
    <glyph glyph-name="Gcaron.smcp" 
 />
    <glyph glyph-name="Gcircumflex.smcp.alt1" 
 />
    <glyph glyph-name="Gbreve.smcp.alt1" 
 />
    <glyph glyph-name="Gdotaccent.smcp.alt1" 
 />
    <glyph glyph-name="Gcommaaccent.smcp.alt1" 
 />
    <glyph glyph-name="Gcaron.smcp.alt1" 
 />
    <glyph glyph-name="Hbar.smcp" 
 />
    <glyph glyph-name="Hcircumflex.smcp" 
 />
    <glyph glyph-name="uni1E22.smcp" 
 />
    <glyph glyph-name="Iacute.smcp" 
 />
    <glyph glyph-name="Ibreve.smcp" 
 />
    <glyph glyph-name="Igrave.smcp" 
 />
    <glyph glyph-name="Icircumflex.smcp" 
 />
    <glyph glyph-name="Idieresis.smcp" 
 />
    <glyph glyph-name="Idotaccent.smcp" 
 />
    <glyph glyph-name="Imacron.smcp" 
 />
    <glyph glyph-name="Iogonek.smcp" 
 />
    <glyph glyph-name="Itilde.smcp" 
 />
    <glyph glyph-name="uni1EC8.smcp" 
 />
    <glyph glyph-name="uni1ECA.smcp" 
 />
    <glyph glyph-name="IJ.smcp" 
 />
    <glyph glyph-name="Iacute_J.smcp.loclNLD" 
 />
    <glyph glyph-name="Jcircumflex.smcp" 
 />
    <glyph glyph-name="Kcommaaccent.smcp" 
 />
    <glyph glyph-name="Lacute.smcp" 
 />
    <glyph glyph-name="Lcaron.smcp" 
 />
    <glyph glyph-name="Lcommaaccent.smcp" 
 />
    <glyph glyph-name="Ldot.smcp" 
 />
    <glyph glyph-name="Lslash.smcp" 
 />
    <glyph glyph-name="Nacute.smcp" 
 />
    <glyph glyph-name="Ncaron.smcp" 
 />
    <glyph glyph-name="Ncommaaccent.smcp" 
 />
    <glyph glyph-name="Ntilde.smcp" 
 />
    <glyph glyph-name="uni019D.smcp" 
 />
    <glyph glyph-name="Eng.smcp" 
 />
    <glyph glyph-name="Oacute.smcp" 
 />
    <glyph glyph-name="Obreve.smcp" 
 />
    <glyph glyph-name="Ocircumflex.smcp" 
 />
    <glyph glyph-name="Odieresis.smcp" 
 />
    <glyph glyph-name="Ograve.smcp" 
 />
    <glyph glyph-name="Ohungarumlaut.smcp" 
 />
    <glyph glyph-name="Oslash.smcp" 
 />
    <glyph glyph-name="Oslashacute.smcp" 
 />
    <glyph glyph-name="Omacron.smcp" 
 />
    <glyph glyph-name="Otilde.smcp" 
 />
    <glyph glyph-name="uni01EA.smcp" 
 />
    <glyph glyph-name="uni1ECC.smcp" 
 />
    <glyph glyph-name="uni1ECE.smcp" 
 />
    <glyph glyph-name="uni1ED0.smcp" 
 />
    <glyph glyph-name="uni1ED2.smcp" 
 />
    <glyph glyph-name="uni1ED4.smcp" 
 />
    <glyph glyph-name="uni1ED6.smcp" 
 />
    <glyph glyph-name="uni1ED8.smcp" 
 />
    <glyph glyph-name="Ohorn.smcp" 
 />
    <glyph glyph-name="uni1EDA.smcp" 
 />
    <glyph glyph-name="uni1EDC.smcp" 
 />
    <glyph glyph-name="uni1EDE.smcp" 
 />
    <glyph glyph-name="uni1EE0.smcp" 
 />
    <glyph glyph-name="uni1EE2.smcp" 
 />
    <glyph glyph-name="OE.smcp" 
 />
    <glyph glyph-name="uni1E56.smcp" 
 />
    <glyph glyph-name="Racute.smcp" 
 />
    <glyph glyph-name="Rcaron.smcp" 
 />
    <glyph glyph-name="Rcommaaccent.smcp" 
 />
    <glyph glyph-name="Sacute.smcp" 
 />
    <glyph glyph-name="Scaron.smcp" 
 />
    <glyph glyph-name="Scircumflex.smcp" 
 />
    <glyph glyph-name="Scedilla.smcp" 
 />
    <glyph glyph-name="Scommaaccent.smcp" 
 />
    <glyph glyph-name="uni1E60.smcp" 
 />
    <glyph glyph-name="uni1E9E.smcp" 
 />
    <glyph glyph-name="germandbls.smcp" 
 />
    <glyph glyph-name="Tbar.smcp" 
 />
    <glyph glyph-name="Tcaron.smcp" 
 />
    <glyph glyph-name="uni0162.smcp" 
 />
    <glyph glyph-name="uni021A.smcp" 
 />
    <glyph glyph-name="uni1E6A.smcp" 
 />
    <glyph glyph-name="Uacute.smcp" 
 />
    <glyph glyph-name="Ubreve.smcp" 
 />
    <glyph glyph-name="Ucircumflex.smcp" 
 />
    <glyph glyph-name="Udieresis.smcp" 
 />
    <glyph glyph-name="Ugrave.smcp" 
 />
    <glyph glyph-name="Uhungarumlaut.smcp" 
 />
    <glyph glyph-name="Umacron.smcp" 
 />
    <glyph glyph-name="Uogonek.smcp" 
 />
    <glyph glyph-name="Uring.smcp" 
 />
    <glyph glyph-name="Utilde.smcp" 
 />
    <glyph glyph-name="uni1EE4.smcp" 
 />
    <glyph glyph-name="Uhorn.smcp" 
 />
    <glyph glyph-name="uni1EE6.smcp" 
 />
    <glyph glyph-name="uni1EE8.smcp" 
 />
    <glyph glyph-name="uni1EEA.smcp" 
 />
    <glyph glyph-name="uni1EEC.smcp" 
 />
    <glyph glyph-name="uni1EEE.smcp" 
 />
    <glyph glyph-name="uni1EF0.smcp" 
 />
    <glyph glyph-name="Wacute.smcp" 
 />
    <glyph glyph-name="Wcircumflex.smcp" 
 />
    <glyph glyph-name="Wdieresis.smcp" 
 />
    <glyph glyph-name="Wgrave.smcp" 
 />
    <glyph glyph-name="Yacute.smcp" 
 />
    <glyph glyph-name="Ycircumflex.smcp" 
 />
    <glyph glyph-name="Ydieresis.smcp" 
 />
    <glyph glyph-name="Ygrave.smcp" 
 />
    <glyph glyph-name="uni0232.smcp" 
 />
    <glyph glyph-name="uni1EF4.smcp" 
 />
    <glyph glyph-name="uni1EF6.smcp" 
 />
    <glyph glyph-name="uni1EF8.smcp" 
 />
    <glyph glyph-name="Zacute.smcp" 
 />
    <glyph glyph-name="Zcaron.smcp" 
 />
    <glyph glyph-name="Zdotaccent.smcp" 
 />
    <glyph glyph-name="Eth.smcp" 
 />
    <glyph glyph-name="Thorn.smcp" 
 />
    <glyph glyph-name="acute" 
 />
    <glyph glyph-name="acutecomb" 
 />
    <glyph glyph-name="acutecomb.short" 
 />
    <glyph glyph-name="gravecomb" 
 />
    <glyph glyph-name="gravecomb.short" 
 />
    <glyph glyph-name="uni02CB" 
 />
    <glyph glyph-name="circumflex" 
 />
    <glyph glyph-name="uni0302" 
 />
    <glyph glyph-name="uni0302.short" 
 />
    <glyph glyph-name="caron" 
 />
    <glyph glyph-name="uni030C" 
 />
    <glyph glyph-name="hungarumlaut" 
 />
    <glyph glyph-name="uni030B" 
 />
    <glyph glyph-name="uni030F" 
 />
    <glyph glyph-name="dieresis" 
 />
    <glyph glyph-name="uni0308" 
 />
    <glyph glyph-name="dotaccent" 
 />
    <glyph glyph-name="uni0307" 
 />
    <glyph glyph-name="dotbelowcomb" 
 />
    <glyph glyph-name="ring" 
 />
    <glyph glyph-name="uni030A" 
 />
    <glyph glyph-name="tilde" 
 />
    <glyph glyph-name="tildecomb" 
 />
    <glyph glyph-name="tildecomb.short" 
 />
    <glyph glyph-name="macron" 
 />
    <glyph glyph-name="uni0304" 
 />
    <glyph glyph-name="uni0331" 
 />
    <glyph glyph-name="uni203E" 
 />
    <glyph glyph-name="uni02C9" 
 />
    <glyph glyph-name="breve" 
 />
    <glyph glyph-name="uni0306" 
 />
    <glyph glyph-name="uni0306.short" 
 />
    <glyph glyph-name="uni032E" 
 />
    <glyph glyph-name="uni0311" 
 />
    <glyph glyph-name="cedilla" 
 />
    <glyph glyph-name="uni0327" 
 />
    <glyph glyph-name="ogonek" 
 />
    <glyph glyph-name="uni0328" 
 />
    <glyph glyph-name="uniF6C3" 
 />
    <glyph glyph-name="uni0326" 
 />
    <glyph glyph-name="uni0309" 
 />
    <glyph glyph-name="hookabovecomb.short" 
 />
    <glyph glyph-name="uni02BB" 
 />
    <glyph glyph-name="Alpha" 
 />
    <glyph glyph-name="Beta" 
 />
    <glyph glyph-name="Gamma" 
 />
    <glyph glyph-name="uni0394" 
 />
    <glyph glyph-name="uni2206" 
 />
    <glyph glyph-name="Epsilon" 
 />
    <glyph glyph-name="Zeta" 
 />
    <glyph glyph-name="Eta" 
 />
    <glyph glyph-name="Theta" 
 />
    <glyph glyph-name="Iota" 
 />
    <glyph glyph-name="Kappa" 
 />
    <glyph glyph-name="Lambda" 
 />
    <glyph glyph-name="Mu" 
 />
    <glyph glyph-name="Nu" 
 />
    <glyph glyph-name="Xi" 
 />
    <glyph glyph-name="Omicron" 
 />
    <glyph glyph-name="Pi" 
 />
    <glyph glyph-name="Rho" 
 />
    <glyph glyph-name="Sigma" 
 />
    <glyph glyph-name="Tau" 
 />
    <glyph glyph-name="Upsilon" 
 />
    <glyph glyph-name="Phi" 
 />
    <glyph glyph-name="Chi" 
 />
    <glyph glyph-name="Psi" 
 />
    <glyph glyph-name="uni03A9" 
 />
    <glyph glyph-name="uni2126" 
 />
    <glyph glyph-name="alpha" 
 />
    <glyph glyph-name="beta" 
 />
    <glyph glyph-name="gamma" 
 />
    <glyph glyph-name="delta" 
 />
    <glyph glyph-name="epsilon" 
 />
    <glyph glyph-name="zeta" 
 />
    <glyph glyph-name="eta" 
 />
    <glyph glyph-name="theta" 
 />
    <glyph glyph-name="iota" 
 />
    <glyph glyph-name="kappa" 
 />
    <glyph glyph-name="lambda" 
 />
    <glyph glyph-name="uni03BC" 
 />
    <glyph glyph-name="uni00B5" 
 />
    <glyph glyph-name="nu" 
 />
    <glyph glyph-name="xi" 
 />
    <glyph glyph-name="omicron" 
 />
    <glyph glyph-name="pi" 
 />
    <glyph glyph-name="rho" 
 />
    <glyph glyph-name="uni03C2" 
 />
    <glyph glyph-name="sigma" 
 />
    <glyph glyph-name="tau" 
 />
    <glyph glyph-name="upsilon" 
 />
    <glyph glyph-name="phi" 
 />
    <glyph glyph-name="chi" 
 />
    <glyph glyph-name="psi" 
 />
    <glyph glyph-name="omega" 
 />
    <glyph glyph-name="Alphatonos" 
 />
    <glyph glyph-name="Epsilontonos" 
 />
    <glyph glyph-name="Etatonos" 
 />
    <glyph glyph-name="Iotatonos" 
 />
    <glyph glyph-name="Omicrontonos" 
 />
    <glyph glyph-name="Upsilontonos" 
 />
    <glyph glyph-name="Omegatonos" 
 />
    <glyph glyph-name="Iotadieresis" 
 />
    <glyph glyph-name="Upsilondieresis" 
 />
    <glyph glyph-name="alphatonos" 
 />
    <glyph glyph-name="epsilontonos" 
 />
    <glyph glyph-name="etatonos" 
 />
    <glyph glyph-name="iotatonos" 
 />
    <glyph glyph-name="iotadieresis" 
 />
    <glyph glyph-name="iotadieresistonos" 
 />
    <glyph glyph-name="upsilontonos" 
 />
    <glyph glyph-name="upsilondieresis" 
 />
    <glyph glyph-name="upsilondieresistonos" 
 />
    <glyph glyph-name="omicrontonos" 
 />
    <glyph glyph-name="omegatonos" 
 />
    <glyph glyph-name="uni03D7" 
 />
    <glyph glyph-name="tonos" 
 />
    <glyph glyph-name="tonos.cap" 
 />
    <glyph glyph-name="dieresistonos" 
 />
    <glyph glyph-name="uni0374" 
 />
    <glyph glyph-name="uni0375" 
 />
    <glyph glyph-name="uni0387" 
 />
    <glyph glyph-name="uni0410" 
 />
    <glyph glyph-name="uni0411" 
 />
    <glyph glyph-name="uni0412" 
 />
    <glyph glyph-name="uni0413" 
 />
    <glyph glyph-name="uni0414" 
 />
    <glyph glyph-name="uni0415" 
 />
    <glyph glyph-name="uni0401" 
 />
    <glyph glyph-name="uni0416" 
 />
    <glyph glyph-name="uni0417" 
 />
    <glyph glyph-name="uni0418" 
 />
    <glyph glyph-name="uni0419" 
 />
    <glyph glyph-name="uni041A" 
 />
    <glyph glyph-name="uni041B" 
 />
    <glyph glyph-name="uni041C" 
 />
    <glyph glyph-name="uni041D" 
 />
    <glyph glyph-name="uni041E" 
 />
    <glyph glyph-name="uni041F" 
 />
    <glyph glyph-name="uni0420" 
 />
    <glyph glyph-name="uni0421" 
 />
    <glyph glyph-name="uni0422" 
 />
    <glyph glyph-name="uni0423" 
 />
    <glyph glyph-name="uni0424" 
 />
    <glyph glyph-name="uni0425" 
 />
    <glyph glyph-name="uni0426" 
 />
    <glyph glyph-name="uni0427" 
 />
    <glyph glyph-name="uni0428" 
 />
    <glyph glyph-name="uni0429" 
 />
    <glyph glyph-name="uni042A" 
 />
    <glyph glyph-name="uni042B" 
 />
    <glyph glyph-name="uni042C" 
 />
    <glyph glyph-name="uni042D" 
 />
    <glyph glyph-name="uni042E" 
 />
    <glyph glyph-name="uni042F" 
 />
    <glyph glyph-name="uni0402" 
 />
    <glyph glyph-name="uni0403" 
 />
    <glyph glyph-name="uni0404" 
 />
    <glyph glyph-name="uni0405" 
 />
    <glyph glyph-name="uni0406" 
 />
    <glyph glyph-name="uni0407" 
 />
    <glyph glyph-name="uni0408" 
 />
    <glyph glyph-name="uni0409" 
 />
    <glyph glyph-name="uni040A" 
 />
    <glyph glyph-name="uni040B" 
 />
    <glyph glyph-name="uni040C" 
 />
    <glyph glyph-name="uni040E" 
 />
    <glyph glyph-name="uni040F" 
 />
    <glyph glyph-name="uni0414.BUL" 
 />
    <glyph glyph-name="uni0416.BUL" 
 />
    <glyph glyph-name="uni0418.BUL" 
 />
    <glyph glyph-name="uni041A.BUL" 
 />
    <glyph glyph-name="uni041B.BUL" 
 />
    <glyph glyph-name="uni0424.BUL" 
 />
    <glyph glyph-name="uni0430" 
 />
    <glyph glyph-name="uni0430.alt1" 
 />
    <glyph glyph-name="uni0431" 
 />
    <glyph glyph-name="uni0432" 
 />
    <glyph glyph-name="uni0433" 
 />
    <glyph glyph-name="uni0434" 
 />
    <glyph glyph-name="uni0435" 
 />
    <glyph glyph-name="uni0451" 
 />
    <glyph glyph-name="uni0436" 
 />
    <glyph glyph-name="uni0437" 
 />
    <glyph glyph-name="uni0438" 
 />
    <glyph glyph-name="uni0439" 
 />
    <glyph glyph-name="uni043A" 
 />
    <glyph glyph-name="uni043B" 
 />
    <glyph glyph-name="uni043C" 
 />
    <glyph glyph-name="uni043D" 
 />
    <glyph glyph-name="uni043E" 
 />
    <glyph glyph-name="uni043F" 
 />
    <glyph glyph-name="uni0440" 
 />
    <glyph glyph-name="uni0441" 
 />
    <glyph glyph-name="uni0442" 
 />
    <glyph glyph-name="uni0443" 
 />
    <glyph glyph-name="uni0444" 
 />
    <glyph glyph-name="uni0445" 
 />
    <glyph glyph-name="uni0446" 
 />
    <glyph glyph-name="uni0447" 
 />
    <glyph glyph-name="uni0448" 
 />
    <glyph glyph-name="uni0449" 
 />
    <glyph glyph-name="uni044A" 
 />
    <glyph glyph-name="uni044B" 
 />
    <glyph glyph-name="uni044C" 
 />
    <glyph glyph-name="uni044D" 
 />
    <glyph glyph-name="uni044E" 
 />
    <glyph glyph-name="uni044F" 
 />
    <glyph glyph-name="uni0452" 
 />
    <glyph glyph-name="uni0453" 
 />
    <glyph glyph-name="uni0454" 
 />
    <glyph glyph-name="uni0455" 
 />
    <glyph glyph-name="uni0456" 
 />
    <glyph glyph-name="uni0457" 
 />
    <glyph glyph-name="uni0458" 
 />
    <glyph glyph-name="uni0459" 
 />
    <glyph glyph-name="uni045A" 
 />
    <glyph glyph-name="uni045B" 
 />
    <glyph glyph-name="uni045C" 
 />
    <glyph glyph-name="uni045E" 
 />
    <glyph glyph-name="uni045F" 
 />
    <glyph glyph-name="uni0432.BUL" 
 />
    <glyph glyph-name="uni0433.BUL" 
 />
    <glyph glyph-name="uni0434.BUL" 
 />
    <glyph glyph-name="uni0436.BUL" 
 />
    <glyph glyph-name="uni0437.BUL" 
 />
    <glyph glyph-name="uni0438.BUL" 
 />
    <glyph glyph-name="uni0439.BUL" 
 />
    <glyph glyph-name="uni043A.BUL" 
 />
    <glyph glyph-name="uni043B.BUL" 
 />
    <glyph glyph-name="uni043D.BUL" 
 />
    <glyph glyph-name="uni043F.BUL" 
 />
    <glyph glyph-name="uni0442.BUL" 
 />
    <glyph glyph-name="uni0447.BUL" 
 />
    <glyph glyph-name="uni0446.BUL" 
 />
    <glyph glyph-name="uni0448.BUL" 
 />
    <glyph glyph-name="uni0449.BUL" 
 />
    <glyph glyph-name="uni044C.BUL" 
 />
    <glyph glyph-name="uni044A.BUL" 
 />
    <glyph glyph-name="uni044E.BUL" 
 />
    <glyph glyph-name="uni0431.SRB" 
 />
    <glyph glyph-name="uni0433.SRB" 
 />
    <glyph glyph-name="uni0434.SRB" 
 />
    <glyph glyph-name="uni043F.SRB" 
 />
    <glyph glyph-name="uni0442.SRB" 
 />
    <glyph glyph-name="uni0474" 
 />
    <glyph glyph-name="uni0475" 
 />
    <glyph glyph-name="uni048A" 
 />
    <glyph glyph-name="uni048B" 
 />
    <glyph glyph-name="uni048C" 
 />
    <glyph glyph-name="uni048D" 
 />
    <glyph glyph-name="uni048E" 
 />
    <glyph glyph-name="uni048F" 
 />
    <glyph glyph-name="uni0490" 
 />
    <glyph glyph-name="uni0491" 
 />
    <glyph glyph-name="uni0492" 
 />
    <glyph glyph-name="uni0493" 
 />
    <glyph glyph-name="uni0494" 
 />
    <glyph glyph-name="uni0495" 
 />
    <glyph glyph-name="uni0496" 
 />
    <glyph glyph-name="uni0497" 
 />
    <glyph glyph-name="uni0498" 
 />
    <glyph glyph-name="uni0499" 
 />
    <glyph glyph-name="uni049A" 
 />
    <glyph glyph-name="uni049B" 
 />
    <glyph glyph-name="uni049C" 
 />
    <glyph glyph-name="uni049D" 
 />
    <glyph glyph-name="uni049E" 
 />
    <glyph glyph-name="uni049F" 
 />
    <glyph glyph-name="uni04A0" 
 />
    <glyph glyph-name="uni04A1" 
 />
    <glyph glyph-name="uni04A2" 
 />
    <glyph glyph-name="uni04A3" 
 />
    <glyph glyph-name="uni04A4" 
 />
    <glyph glyph-name="uni04A5" 
 />
    <glyph glyph-name="uni04A6" 
 />
    <glyph glyph-name="uni04A7" 
 />
    <glyph glyph-name="uni04A8" 
 />
    <glyph glyph-name="uni04A9" 
 />
    <glyph glyph-name="uni04AA" 
 />
    <glyph glyph-name="uni04AB" 
 />
    <glyph glyph-name="uni04AC" 
 />
    <glyph glyph-name="uni04AD" 
 />
    <glyph glyph-name="uni04AE" 
 />
    <glyph glyph-name="uni04AF" 
 />
    <glyph glyph-name="uni04B0" 
 />
    <glyph glyph-name="uni04B1" 
 />
    <glyph glyph-name="uni04B2" 
 />
    <glyph glyph-name="uni04B3" 
 />
    <glyph glyph-name="uni04B4" 
 />
    <glyph glyph-name="uni04B5" 
 />
    <glyph glyph-name="uni04B6" 
 />
    <glyph glyph-name="uni04B7" 
 />
    <glyph glyph-name="uni04B8" 
 />
    <glyph glyph-name="uni04B9" 
 />
    <glyph glyph-name="uni04BA" 
 />
    <glyph glyph-name="uni04BB" 
 />
    <glyph glyph-name="uni04BC" 
 />
    <glyph glyph-name="uni04BD" 
 />
    <glyph glyph-name="uni04BE" 
 />
    <glyph glyph-name="uni04BF" 
 />
    <glyph glyph-name="uni04C0" 
 />
    <glyph glyph-name="uni04C3" 
 />
    <glyph glyph-name="uni04C4" 
 />
    <glyph glyph-name="uni04C5" 
 />
    <glyph glyph-name="uni04C6" 
 />
    <glyph glyph-name="uni04C7" 
 />
    <glyph glyph-name="uni04C8" 
 />
    <glyph glyph-name="uni04C9" 
 />
    <glyph glyph-name="uni04CA" 
 />
    <glyph glyph-name="uni04CB" 
 />
    <glyph glyph-name="uni04CC" 
 />
    <glyph glyph-name="uni04CD" 
 />
    <glyph glyph-name="uni04CE" 
 />
    <glyph glyph-name="uni04CF" 
 />
    <glyph glyph-name="uni04D0" 
 />
    <glyph glyph-name="uni04D1" 
 />
    <glyph glyph-name="uni04D1.alt" 
 />
    <glyph glyph-name="uni04D2" 
 />
    <glyph glyph-name="uni04D3" 
 />
    <glyph glyph-name="uni04D3.alt" 
 />
    <glyph glyph-name="uni04D4" 
 />
    <glyph glyph-name="uni04D5" 
 />
    <glyph glyph-name="uni04D5.alt" 
 />
    <glyph glyph-name="uni04D6" 
 />
    <glyph glyph-name="uni04D7" 
 />
    <glyph glyph-name="uni04D8" 
 />
    <glyph glyph-name="uni04D9" 
 />
    <glyph glyph-name="uni04DA" 
 />
    <glyph glyph-name="uni04DB" 
 />
    <glyph glyph-name="uni04DC" 
 />
    <glyph glyph-name="uni04DD" 
 />
    <glyph glyph-name="uni04DE" 
 />
    <glyph glyph-name="uni04DF" 
 />
    <glyph glyph-name="uni04E0" 
 />
    <glyph glyph-name="uni04E1" 
 />
    <glyph glyph-name="uni04E2" 
 />
    <glyph glyph-name="uni04E3" 
 />
    <glyph glyph-name="uni04E4" 
 />
    <glyph glyph-name="uni04E5" 
 />
    <glyph glyph-name="uni04E6" 
 />
    <glyph glyph-name="uni04E7" 
 />
    <glyph glyph-name="uni04E8" 
 />
    <glyph glyph-name="uni04E9" 
 />
    <glyph glyph-name="uni04EA" 
 />
    <glyph glyph-name="uni04EB" 
 />
    <glyph glyph-name="uni04EC" 
 />
    <glyph glyph-name="uni04ED" 
 />
    <glyph glyph-name="uni04EE" 
 />
    <glyph glyph-name="uni04EF" 
 />
    <glyph glyph-name="uni04F0" 
 />
    <glyph glyph-name="uni04F1" 
 />
    <glyph glyph-name="uni04F2" 
 />
    <glyph glyph-name="uni04F3" 
 />
    <glyph glyph-name="uni04F4" 
 />
    <glyph glyph-name="uni04F5" 
 />
    <glyph glyph-name="uni04F6" 
 />
    <glyph glyph-name="uni04F7" 
 />
    <glyph glyph-name="uni04F8" 
 />
    <glyph glyph-name="uni04F9" 
 />
    <glyph glyph-name="uni04FC" 
 />
    <glyph glyph-name="uni04FD" 
 />
    <glyph glyph-name="uni0510" 
 />
    <glyph glyph-name="uni0511" 
 />
    <glyph glyph-name="uni0512" 
 />
    <glyph glyph-name="uni0513" 
 />
    <glyph glyph-name="uni051C" 
 />
    <glyph glyph-name="uni051D" 
 />
    <glyph glyph-name="uni0524" 
 />
    <glyph glyph-name="uni0525" 
 />
    <glyph glyph-name="uni0526" 
 />
    <glyph glyph-name="uni0527" 
 />
    <glyph glyph-name="uni052E" 
 />
    <glyph glyph-name="uni052F" 
 />
    <glyph glyph-name="uniF49E" 
 />
    <glyph glyph-name="uniF49F" 
 />
    <glyph glyph-name="uniF4C6" 
 />
    <glyph glyph-name="uniF4C7" 
 />
    <glyph glyph-name="uniF4CC" 
 />
    <glyph glyph-name="uniF4CD" 
 />
    <glyph glyph-name="uniF4D6" 
 />
    <glyph glyph-name="uniF4D7" 
 />
    <glyph glyph-name="uniF50E" 
 />
    <glyph glyph-name="uniF50F" 
 />
    <glyph glyph-name="uniF50F.alt" 
 />
    <glyph glyph-name="uniF510" 
 />
    <glyph glyph-name="uniF511" 
 />
    <glyph glyph-name="uniF512" 
 />
    <glyph glyph-name="uniF513" 
 />
    <glyph glyph-name="uniF514" 
 />
    <glyph glyph-name="uniF515" 
 />
    <glyph glyph-name="uniF516" 
 />
    <glyph glyph-name="uniF517" 
 />
    <glyph glyph-name="uniF518" 
 />
    <glyph glyph-name="uniF519" 
 />
    <glyph glyph-name="uniF51A" 
 />
    <glyph glyph-name="uniF51B" 
 />
    <glyph glyph-name="uniF51C" 
 />
    <glyph glyph-name="uniF51D" 
 />
    <glyph glyph-name="uniF51E" 
 />
    <glyph glyph-name="uniF51F" 
 />
    <glyph glyph-name="uniF520" 
 />
    <glyph glyph-name="uniF521" 
 />
    <glyph glyph-name="uniF522" 
 />
    <glyph glyph-name="uniF523" 
 />
    <glyph glyph-name="uniF524" 
 />
    <glyph glyph-name="uniF525" 
 />
    <glyph glyph-name="uniF526" 
 />
    <glyph glyph-name="uniF527" 
 />
    <glyph glyph-name="uniF528" 
 />
    <glyph glyph-name="uniF529" 
 />
    <glyph glyph-name="uniF52A" 
 />
    <glyph glyph-name="uniF52B" 
 />
    <glyph glyph-name="uniF52C" 
 />
    <glyph glyph-name="uniF52D" 
 />
    <glyph glyph-name="uniF52E" 
 />
    <glyph glyph-name="uniF52F" 
 />
    <glyph glyph-name="uniF532" 
 />
    <glyph glyph-name="uniF533" 
 />
    <glyph glyph-name="uniF536" 
 />
    <glyph glyph-name="uniF537" 
 />
    <glyph glyph-name="uniF538" 
 />
    <glyph glyph-name="uniF539" 
 />
    <glyph glyph-name="uni0400" 
 />
    <glyph glyph-name="uni0450" 
 />
    <glyph glyph-name="uni040D" 
 />
    <glyph glyph-name="uni045D" 
 />
    <glyph glyph-name="uni0472" 
 />
    <glyph glyph-name="uni0473" 
 />
    <glyph glyph-name="uni04C1" 
 />
    <glyph glyph-name="uni04C2" 
 />
    <glyph glyph-name="uni04FA" 
 />
    <glyph glyph-name="uni04FB" 
 />
    <glyph glyph-name="uni04FE" 
 />
    <glyph glyph-name="uni04FF" 
 />
    <glyph glyph-name="uniF43A" 
 />
    <glyph glyph-name="uniF43B" 
 />
    <glyph glyph-name="uniF460" 
 />
    <glyph glyph-name="uniF46A" 
 />
    <glyph glyph-name="uniF46A.alt" 
 />
    <glyph glyph-name="uniF461" 
 />
    <glyph glyph-name="uniF46B" 
 />
    <glyph glyph-name="uniF462" 
 />
    <glyph glyph-name="uniF46C" 
 />
    <glyph glyph-name="uniF463" 
 />
    <glyph glyph-name="uniF46D" 
 />
    <glyph glyph-name="uniF464" 
 />
    <glyph glyph-name="uniF46E" 
 />
    <glyph glyph-name="uniF465" 
 />
    <glyph glyph-name="uniF46F" 
 />
    <glyph glyph-name="uniF466" 
 />
    <glyph glyph-name="uniF470" 
 />
    <glyph glyph-name="uniF467" 
 />
    <glyph glyph-name="uniF471" 
 />
    <glyph glyph-name="uniF468" 
 />
    <glyph glyph-name="uniF472" 
 />
    <glyph glyph-name="uniF469" 
 />
    <glyph glyph-name="uniF473" 
 />
    <glyph glyph-name="uniF498" 
 />
    <glyph glyph-name="uniF499" 
 />
    <glyph glyph-name="uniF49A" 
 />
    <glyph glyph-name="uniF49B" 
 />
    <glyph glyph-name="uniF49C" 
 />
    <glyph glyph-name="uniF49D" 
 />
    <glyph glyph-name="uniF4D2" 
 />
    <glyph glyph-name="uniF4D3" 
 />
    <glyph glyph-name="uniF4D4" 
 />
    <glyph glyph-name="uniF4D5" 
 />
    <glyph glyph-name="uniF50A" 
 />
    <glyph glyph-name="uniF50B" 
 />
    <glyph glyph-name="uniF530" 
 />
    <glyph glyph-name="uniF531" 
 />
    <glyph glyph-name="uniF53C" 
 />
    <glyph glyph-name="uniF53D" 
 />
    <glyph glyph-name="uniF53E" 
 />
    <glyph glyph-name="uniF53F" 
 />
    <glyph glyph-name="uni018F" 
 />
    <glyph glyph-name="uni0259" 
 />
    <glyph glyph-name="uni0304.cy" 
 />
    <glyph glyph-name="uni0306.cy" 
 />
    <glyph glyph-name="acutecomb.cy" 
 />
    <glyph glyph-name="gravecomb.cy" 
 />
    <glyph glyph-name="uni030B.cy" 
 />
    <glyph glyph-name="uni030C.cy" 
 />
    <glyph glyph-name="ampersand" 
 />
    <glyph glyph-name="ampersand.smcp" 
 />
    <glyph glyph-name="numbersign" 
 />
    <glyph glyph-name="numbersign.onum" 
 />
    <glyph glyph-name="at" 
 />
    <glyph glyph-name="percent" 
 />
    <glyph glyph-name="percent.onum" 
 />
    <glyph glyph-name="perthousand" 
 />
    <glyph glyph-name="perthousand.onum" 
 />
    <glyph glyph-name="parenleft.case" 
 />
    <glyph glyph-name="parenright.case" 
 />
    <glyph glyph-name="bracketleft.case" 
 />
    <glyph glyph-name="bracketright.case" 
 />
    <glyph glyph-name="braceleft" 
 />
    <glyph glyph-name="braceright" 
 />
    <glyph glyph-name="braceleft.case" 
 />
    <glyph glyph-name="braceright.case" 
 />
    <glyph glyph-name="dagger" 
 />
    <glyph glyph-name="daggerdbl" 
 />
    <glyph glyph-name="section" 
 />
    <glyph glyph-name="paragraph" 
 />
    <glyph glyph-name="ellipsis" 
 />
    <glyph glyph-name="colon" 
 />
    <glyph glyph-name="semicolon" 
 />
    <glyph glyph-name="uni037E" 
 />
    <glyph glyph-name="exclam" 
 />
    <glyph glyph-name="exclamdown" 
 />
    <glyph glyph-name="exclamdown.case" 
 />
    <glyph glyph-name="exclam.smcp" 
 />
    <glyph glyph-name="exclamdown.smcp" 
 />
    <glyph glyph-name="question" 
 />
    <glyph glyph-name="questiondown" 
 />
    <glyph glyph-name="questiondown.case" 
 />
    <glyph glyph-name="question.smcp" 
 />
    <glyph glyph-name="questiondown.smcp" 
 />
    <glyph glyph-name="uni203D" 
 />
    <glyph glyph-name="uni2E18" 
 />
    <glyph glyph-name="uni2E18.case" 
 />
    <glyph glyph-name="uni203D.smcp" 
 />
    <glyph glyph-name="uni2E18.smcp" 
 />
    <glyph glyph-name="quotedbl" 
 />
    <glyph glyph-name="quoteleft" 
 />
    <glyph glyph-name="uni02BC" 
 />
    <glyph glyph-name="quotedblbase" 
 />
    <glyph glyph-name="guillemotleft" 
 />
    <glyph glyph-name="guillemotright" 
 />
    <glyph glyph-name="guillemotleft.case" 
 />
    <glyph glyph-name="guillemotright.case" 
 />
    <glyph glyph-name="guilsinglleft" 
 />
    <glyph glyph-name="guilsinglright" 
 />
    <glyph glyph-name="guilsinglleft.case" 
 />
    <glyph glyph-name="guilsinglright.case" 
 />
    <glyph glyph-name="uni00AD" 
 />
    <glyph glyph-name="hyphen.case" 
 />
    <glyph glyph-name="endash" 
 />
    <glyph glyph-name="endash.case" 
 />
    <glyph glyph-name="uni2015" 
 />
    <glyph glyph-name="emdash" 
 />
    <glyph glyph-name="emdash.case" 
 />
    <glyph glyph-name="periodcentered" 
 />
    <glyph glyph-name="uni2219" 
 />
    <glyph glyph-name="periodcentered.case" 
 />
    <glyph glyph-name="bullet" 
 />
    <glyph glyph-name="bullet.case" 
 />
    <glyph glyph-name="dollar" 
 />
    <glyph glyph-name="dollar.onum" 
 />
    <glyph glyph-name="cent" 
 />
    <glyph glyph-name="cent.case" 
 />
    <glyph glyph-name="cent.onum" 
 />
    <glyph glyph-name="sterling" 
 />
    <glyph glyph-name="sterling.onum" 
 />
    <glyph glyph-name="yen" 
 />
    <glyph glyph-name="yen.onum" 
 />
    <glyph glyph-name="Euro" 
 />
    <glyph glyph-name="Euro.onum" 
 />
    <glyph glyph-name="uni0192" 
 />
    <glyph glyph-name="florin.onum" 
 />
    <glyph glyph-name="currency" 
 />
    <glyph glyph-name="colonmonetary" 
 />
    <glyph glyph-name="colonmonetary.onum" 
 />
    <glyph glyph-name="uni20A3" 
 />
    <glyph glyph-name="lira" 
 />
    <glyph glyph-name="uni20A6" 
 />
    <glyph glyph-name="peseta" 
 />
    <glyph glyph-name="uni20A8" 
 />
    <glyph glyph-name="R_p" 
 />
    <glyph glyph-name="uni20A9" 
 />
    <glyph glyph-name="uni20AA" 
 />
    <glyph glyph-name="dong" 
 />
    <glyph glyph-name="uni20B9" 
 />
    <glyph glyph-name="uni20BA" 
 />
    <glyph glyph-name="uni20BD" 
 />
    <glyph glyph-name="uni20B4" 
 />
    <glyph glyph-name="uni20B8" 
 />
    <glyph glyph-name="registered" 
 />
    <glyph glyph-name="copyright" 
 />
    <glyph glyph-name="uni2117" 
 />
    <glyph glyph-name="trademark" 
 />
    <glyph glyph-name="uni2120" 
 />
    <glyph glyph-name="uni2113" 
 />
    <glyph glyph-name="uni2116" 
 />
    <glyph glyph-name="estimated" 
 />
    <glyph glyph-name="slash" 
 />
    <glyph glyph-name="asciitilde" 
 />
    <glyph glyph-name="bar" 
 />
    <glyph glyph-name="brokenbar" 
 />
    <glyph glyph-name="minus" 
 />
    <glyph glyph-name="multiply" 
 />
    <glyph glyph-name="divide" 
 />
    <glyph glyph-name="dotmath" 
 />
    <glyph glyph-name="less" 
 />
    <glyph glyph-name="greater" 
 />
    <glyph glyph-name="equal" 
 />
    <glyph glyph-name="notequal" 
 />
    <glyph glyph-name="plusminus" 
 />
    <glyph glyph-name="lessequal" 
 />
    <glyph glyph-name="greaterequal" 
 />
    <glyph glyph-name="logicalnot" 
 />
    <glyph glyph-name="approxequal" 
 />
    <glyph glyph-name="integral" 
 />
    <glyph glyph-name="radical" 
 />
    <glyph glyph-name="infinity" 
 />
    <glyph glyph-name="partialdiff" 
 />
    <glyph glyph-name="summation" 
 />
    <glyph glyph-name="product" 
 />
    <glyph glyph-name="lozenge" 
 />
    <glyph glyph-name="degree" 
 />
    <glyph glyph-name="uni2032" 
 />
    <glyph glyph-name="uni2033" 
 />
    <glyph glyph-name="ordfeminine" 
 />
    <glyph glyph-name="uniF6E9" 
 />
    <glyph glyph-name="uniF6EA" 
 />
    <glyph glyph-name="uniF6EB" 
 />
    <glyph glyph-name="uniF6EC" 
 />
    <glyph glyph-name="uni02B0" 
 />
    <glyph glyph-name="uniF637" 
 />
    <glyph glyph-name="uniF6ED" 
 />
    <glyph glyph-name="uniF6EE" 
 />
    <glyph glyph-name="uniF6EF" 
 />
    <glyph glyph-name="uni207F" 
 />
    <glyph glyph-name="ordmasculine" 
 />
    <glyph glyph-name="uniF6F0" 
 />
    <glyph glyph-name="uniF6F1" 
 />
    <glyph glyph-name="uniF6F2" 
 />
    <glyph glyph-name="uniF6F3" 
 />
    <glyph glyph-name="uni2070" 
 />
    <glyph glyph-name="uni00B9" 
 />
    <glyph glyph-name="uni00B2" 
 />
    <glyph glyph-name="uni00B3" 
 />
    <glyph glyph-name="uni2074" 
 />
    <glyph glyph-name="uni2075" 
 />
    <glyph glyph-name="uni2076" 
 />
    <glyph glyph-name="uni2077" 
 />
    <glyph glyph-name="uni2078" 
 />
    <glyph glyph-name="uni2079" 
 />
    <glyph glyph-name="uni207D" 
 />
    <glyph glyph-name="uni207E" 
 />
    <glyph glyph-name="uniF6E0" 
 />
    <glyph glyph-name="uniF6E2" 
 />
    <glyph glyph-name="uniF6E4" 
 />
    <glyph glyph-name="uniF6E6" 
 />
    <glyph glyph-name="uniF6E8" 
 />
    <glyph glyph-name="uni2080" 
 />
    <glyph glyph-name="uni2081" 
 />
    <glyph glyph-name="uni2082" 
 />
    <glyph glyph-name="uni2083" 
 />
    <glyph glyph-name="uni2084" 
 />
    <glyph glyph-name="uni2085" 
 />
    <glyph glyph-name="uni2086" 
 />
    <glyph glyph-name="uni2087" 
 />
    <glyph glyph-name="uni2088" 
 />
    <glyph glyph-name="uni2089" 
 />
    <glyph glyph-name="uni208D" 
 />
    <glyph glyph-name="uni208E" 
 />
    <glyph glyph-name="uniF6DF" 
 />
    <glyph glyph-name="uniF6E1" 
 />
    <glyph glyph-name="uniF6E3" 
 />
    <glyph glyph-name="uniF6E5" 
 />
    <glyph glyph-name="uniF6E7" 
 />
    <glyph glyph-name="zero.numr" 
 />
    <glyph glyph-name="one.numr" 
 />
    <glyph glyph-name="two.numr" 
 />
    <glyph glyph-name="three.numr" 
 />
    <glyph glyph-name="four.numr" 
 />
    <glyph glyph-name="five.numr" 
 />
    <glyph glyph-name="six.numr" 
 />
    <glyph glyph-name="seven.numr" 
 />
    <glyph glyph-name="eight.numr" 
 />
    <glyph glyph-name="nine.numr" 
 />
    <glyph glyph-name="fraction" 
 />
    <glyph glyph-name="uni2215" 
 />
    <glyph glyph-name="zero.dnom" 
 />
    <glyph glyph-name="one.dnom" 
 />
    <glyph glyph-name="two.dnom" 
 />
    <glyph glyph-name="three.dnom" 
 />
    <glyph glyph-name="four.dnom" 
 />
    <glyph glyph-name="five.dnom" 
 />
    <glyph glyph-name="six.dnom" 
 />
    <glyph glyph-name="seven.dnom" 
 />
    <glyph glyph-name="eight.dnom" 
 />
    <glyph glyph-name="nine.dnom" 
 />
    <glyph glyph-name="onehalf" 
 />
    <glyph glyph-name="onequarter" 
 />
    <glyph glyph-name="threequarters" 
 />
    <glyph glyph-name="uni2153" 
 />
    <glyph glyph-name="uni2154" 
 />
    <glyph glyph-name="oneeighth" 
 />
    <glyph glyph-name="threeeighths" 
 />
    <glyph glyph-name="fiveeighths" 
 />
    <glyph glyph-name="seveneighths" 
 />
    <glyph glyph-name="arrowleft" 
 />
    <glyph glyph-name="arrowup" 
 />
    <glyph glyph-name="arrowright" 
 />
    <glyph glyph-name="arrowdown" 
 />
    <glyph glyph-name="uni22B2" 
 />
    <glyph glyph-name="uni22B3" 
 />
    <glyph glyph-name="filledbox" 
 />
    <glyph glyph-name="triagup" 
 />
    <glyph glyph-name="triagdn" 
 />
    <glyph glyph-name="uni25CF" 
 />
    <glyph glyph-name="uni2605" 
 />
    <glyph glyph-name="uni2610" 
 />
    <glyph glyph-name="uni2611" 
 />
    <glyph glyph-name="diamond" 
 />
    <glyph glyph-name="uni2713" 
 />
    <glyph glyph-name="uniF8FF" 
 />
    <glyph glyph-name="uni2318" 
 />
    </font>
</defs>
</svg>
