<?xml version="1.0" standalone="no"?>
<!DOCTYPE svg PUBLIC "-//W3C//DTD SVG 1.1//EN" "http://www.w3.org/Graphics/SVG/1.1/DTD/svg11.dtd" >
<svg xmlns="http://www.w3.org/2000/svg" xmlns:xlink="http://www.w3.org/1999/xlink" version="1.1">
<metadata>
Created by FontForge 20170731 at Mon Nov 21 08:25:47 2022
 By Aleksey,,,
Copyright (c) 2019 by David Kerkhoff. All rights reserved.
</metadata>
<defs>
<font id="RealityCheckDEMO-Regular" horiz-adv-x="1413" >
  <font-face 
    font-family="Reality Check DEMO"
    font-weight="400"
    font-stretch="normal"
    units-per-em="2048"
    panose-1="0 0 0 0 0 0 0 0 0 0"
    ascent="1638"
    descent="-410"
    x-height="1395"
    cap-height="1386"
    bbox="20 -498 1788 1921"
    underline-thickness="0"
    underline-position="0"
    unicode-range="U+000D-20AC"
  />
<missing-glyph horiz-adv-x="1273" 
d="M209 299q0 52 35 102q6 3 30 29.5t27 32.5q23 30 84 121l-4 2q-34 24 -47 26q-34 9 -55 13h-7q-27 6 -63 18q-1 0 -33.5 6t-52.5 15t-21 24v25q0 33 17.5 92.5t50.5 112.5t68 53q84 0 211 -113q10 90 10 139v123q0 42 14.5 63t52.5 31q6 3 26 7t28 4h122q1 0 6.5 -1
t6.5 -1q21 -10 35 -25.5t21 -28.5t10.5 -36t4 -35.5t0.5 -38.5v-8q0 -27 -1 -77.5t-1 -74.5v-41q4 2 45 28t50 29q10 8 37 36.5t50.5 44.5t49.5 16q24 0 42.5 -11.5t31.5 -33t21.5 -41t18 -48t15.5 -40.5q2 -5 9 -17t12 -24t5 -23l-2 -6q-29 -33 -70 -60.5t-93.5 -57.5
t-79.5 -48v-2v-4l4 -4q2 -2 13.5 -17.5t12.5 -17.5q26 -51 37 -59q8 -13 28.5 -34t34 -40.5t13.5 -40.5q0 -36 -94 -90.5t-139 -54.5q-13 0 -23.5 7t-13.5 10.5t-15 18.5q-7 11 -37 60.5t-32 52.5q-1 2 -15 21t-14 22q-6 9 -18 33t-21 35l-2 -2q-25 -43 -29 -43l-86 -172
q-13 -27 -28.5 -39.5t-42.5 -12.5q-18 0 -55.5 2t-57.5 2q-38 3 -87.5 20t-49.5 46zM459 584q3 -16 15 -27.5t30 -11.5h231q45 0 49.5 74.5t-13 149.5t-26.5 75h-57q-30 0 -85 -6.5t-83 -6.5q-23 0 -37.5 -12t-19.5 -35.5t-6 -40.5t0.5 -46.5t1.5 -34.5v-78z" />
    <glyph glyph-name=".notdef" horiz-adv-x="1273" 
d="M209 299q0 52 35 102q6 3 30 29.5t27 32.5q23 30 84 121l-4 2q-34 24 -47 26q-34 9 -55 13h-7q-27 6 -63 18q-1 0 -33.5 6t-52.5 15t-21 24v25q0 33 17.5 92.5t50.5 112.5t68 53q84 0 211 -113q10 90 10 139v123q0 42 14.5 63t52.5 31q6 3 26 7t28 4h122q1 0 6.5 -1
t6.5 -1q21 -10 35 -25.5t21 -28.5t10.5 -36t4 -35.5t0.5 -38.5v-8q0 -27 -1 -77.5t-1 -74.5v-41q4 2 45 28t50 29q10 8 37 36.5t50.5 44.5t49.5 16q24 0 42.5 -11.5t31.5 -33t21.5 -41t18 -48t15.5 -40.5q2 -5 9 -17t12 -24t5 -23l-2 -6q-29 -33 -70 -60.5t-93.5 -57.5
t-79.5 -48v-2v-4l4 -4q2 -2 13.5 -17.5t12.5 -17.5q26 -51 37 -59q8 -13 28.5 -34t34 -40.5t13.5 -40.5q0 -36 -94 -90.5t-139 -54.5q-13 0 -23.5 7t-13.5 10.5t-15 18.5q-7 11 -37 60.5t-32 52.5q-1 2 -15 21t-14 22q-6 9 -18 33t-21 35l-2 -2q-25 -43 -29 -43l-86 -172
q-13 -27 -28.5 -39.5t-42.5 -12.5q-18 0 -55.5 2t-57.5 2q-38 3 -87.5 20t-49.5 46zM459 584q3 -16 15 -27.5t30 -11.5h231q45 0 49.5 74.5t-13 149.5t-26.5 75h-57q-30 0 -85 -6.5t-83 -6.5q-23 0 -37.5 -12t-19.5 -35.5t-6 -40.5t0.5 -46.5t1.5 -34.5v-78z" />
    <glyph glyph-name=".null" horiz-adv-x="0" 
 />
    <glyph glyph-name="nonmarkingreturn" horiz-adv-x="682" 
 />
    <glyph glyph-name="NULL" horiz-adv-x="0" 
 />
    <glyph glyph-name="NULL" horiz-adv-x="0" 
 />
    <glyph glyph-name="CR" unicode="&#xd;" horiz-adv-x="593" 
 />
    <glyph glyph-name="space" unicode=" " horiz-adv-x="593" 
 />
    <glyph glyph-name="exclam" unicode="!" horiz-adv-x="722" 
d="M106 154q-4 4 -4 8v2q0 12 42 30.5t57 18.5h231q86 0 86 -37q0 -87 -35 -127t-121 -49h-79q-7 0 -35 -2t-46 -1t-41 5t-35.5 17.5t-14.5 35.5q0 7 -2.5 49.5t-2.5 49.5zM135 664q0 35 1 145.5t1 114.5q2 77 16 268t27 276h131l258 -28q15 -3 33.5 -10.5t18.5 -16.5v-70
l-123 -800q-9 -63 -9 -90q-4 -36 -21.5 -53.5t-53.5 -26.5h-37q-19 0 -54 2t-53 2q-14 0 -40.5 -4t-39.5 -4h-24q-14 5 -23 14l-6 78q0 7 -1 93.5t-1 109.5z" />
    <glyph glyph-name="quotedbl" unicode="&#x22;" horiz-adv-x="798" 
d="M86 819l-25 567q0 18 7 29q12 16 59.5 33.5t85.5 26.5h41q23 0 36 -1t28.5 -4t24 -9.5t14 -18.5t5.5 -29v-20q0 -4 -2.5 -44.5t-7 -91t-12.5 -119t-22.5 -157t-34.5 -178.5q-13 -13 -55.5 -21t-86.5 0.5t-55 36.5zM461 823l-25 568q0 19 6 28q12 16 59.5 33.5t86.5 26.5
h41q23 0 36 -1t28.5 -4t24 -9.5t14 -18.5t5.5 -29v-20q0 -4 -2.5 -44.5t-7.5 -90.5t-13 -119t-22.5 -157.5t-34.5 -178.5q-13 -13 -55 -21t-86 0.5t-55 36.5z" />
    <glyph glyph-name="dollar" unicode="$" horiz-adv-x="1167" 
d="M694 1593l-4 -127h96q14 0 33.5 -5t28.5 -8.5t35.5 -15.5t27.5 -12q127 -60 171 -149t44 -242q0 -11 -1 -42l-1 -31v-5q0 -69 -26 -79l-164 -9l-152 -22h-22q-1 0 -8 -0.5t-10 0t-8 1.5t-7 4.5t-2 8.5q0 20 7 59t7 60q0 37 -2 45q-26 92 -135 92q-65 0 -116.5 -66.5
t-51.5 -136.5q0 -46 90 -67q8 -2 51 -13.5t78 -20.5t45 -11q14 -3 41.5 -8t50 -10t41.5 -13l136 -59q68 -30 100.5 -97t32.5 -149q0 -57 -20.5 -110.5t-51 -94t-78 -82.5t-87 -70t-93.5 -61q-46 -19 -104 -35q-1 0 -4.5 -1t-4.5 -1l-4 -166q2 -29 2 -71q-11 3 -33 2
t-69 -4.5t-70 -3.5h-14q-6 4 -6 6l2 223q-179 14 -296.5 133t-117.5 307q0 3 2 6.5t6 6.5t7.5 5t8.5 5t7 4q7 1 34 10t29 10q42 13 124 35.5t85 22.5h49q18 0 28 -29t15.5 -70t13 -82.5t26 -70.5t49.5 -29q5 0 10 2t8.5 4.5t8.5 7.5t7.5 8t7 8.5t5.5 6.5q53 62 53 149v29
q0 6 -8 14q-26 29 -44 41t-61 33q-1 0 -2 1t-2 1q-31 15 -96 22t-86 13q-67 19 -113.5 38t-80 45.5t-53 54.5t-30.5 72.5t-14.5 90.5t-3.5 117q0 99 63 196q52 85 104.5 130t139.5 77q6 1 62 18.5t86 22.5l6 205l6 12h14q19 0 23 -4h73q6 -1 19.5 -1.5t21 -2.5t17 -7.5
t14 -19t4.5 -34.5v-17z" />
    <glyph glyph-name="quotesingle" unicode="'" horiz-adv-x="505" 
d="M127 819l-25 567q0 18 7 29q12 16 59.5 33.5t85.5 26.5h41q23 0 36 -1t28.5 -4t24 -9.5t14 -18.5t5.5 -29v-20q0 -4 -2.5 -44.5t-7 -91t-12.5 -119t-22.5 -157t-34.5 -178.5q-13 -13 -55.5 -21t-86.5 0.5t-55 36.5z" />
    <glyph glyph-name="parenleft" unicode="(" horiz-adv-x="620" 
d="M63 641q0 131 15 195q12 46 12 47q59 164 119.5 275t159.5 194q75 59 129 59h10h14t15.5 -0.5t16 -1.5t13 -3.5t10 -6.5t3.5 -10v-9l-58 -153l-102 -353q0 -2 -8 -39.5t-9 -48.5q-1 -4 -5 -30.5t-5 -30.5v-96q0 -244 27 -363q13 -46 55 -166q0 -1 1 -3t1 -3
q12 -18 19 -39q2 -4 9.5 -14.5t12 -19t4.5 -15.5q0 -14 -12 -16q-6 -2 -35 -2q-64 0 -120 29.5t-95 74t-72 106.5t-52.5 117t-33.5 115q-1 7 -15 77.5t-17 88.5q-1 2 -2 9.5t-2.5 17.5t-2.5 14v4z" />
    <glyph glyph-name="parenright" unicode=")" horiz-adv-x="620" 
d="M557 641v-4q-1 -4 -2 -13.5t-2 -17.5t-2 -10q-3 -19 -17.5 -89.5t-15.5 -76.5q-14 -60 -33.5 -115t-52.5 -117t-72 -106.5t-95 -74t-120 -29.5q-28 0 -34 2q-13 3 -13 16q0 7 4.5 15.5t12.5 19t10 14.5q8 24 18 39q0 1 1 3t1 3q47 133 56 166q13 55 19 125t6.5 110.5
t0.5 127.5v96q-1 4 -5 30.5t-5 30.5q-1 11 -8.5 48.5t-7.5 39.5l-103 353l-57 153v9q0 6 3.5 10t10 6.5t13 3.5t16 1.5t15.5 0.5h14h10q54 0 129 -59q99 -83 159 -193.5t119 -275.5q2 -5 13 -47q14 -59 14 -195z" />
    <glyph glyph-name="comma" unicode="," horiz-adv-x="563" 
d="M162 -150q0 3 5.5 13t6.5 12q64 113 64 174h-91q-26 0 -45 27v30v31q0 6 1 17t1 16q1 32 1.5 45.5t4.5 33t6 25.5t12 17t18 13t27.5 7.5t36.5 7t50 5.5q19 3 54 3t77 -1.5t55 -1.5q9 -1 12 -34t-2.5 -84t-16.5 -106t-32.5 -105t-48.5 -75q-1 -2 -8.5 -7.5t-7.5 -6.5
q-40 -24 -90 -49q-8 -4 -15.5 -10t-11 -8t-10 -3.5t-16.5 -1.5q-37 0 -37 16z" />
    <glyph glyph-name="hyphen" unicode="-" horiz-adv-x="835" 
d="M104 575q0 2 -1 12.5t-1 12.5q0 10 8.5 87t8.5 128l10 45q0 3 15 10t20 7l545 12q20 0 20 -74q0 -13 1.5 -65t0 -72t-10.5 -53.5t-28 -55.5l-569 -10q-6 -1 -11.5 4t-7.5 12z" />
    <glyph glyph-name="period" unicode="." horiz-adv-x="536" 
d="M106 59v78q0 4 -1.5 34.5t0 47t6.5 40.5t19.5 36t37.5 12q28 0 83 6t85 6h57q9 0 26.5 -74.5t13 -149.5t-49.5 -75h-231q-18 0 -30.5 11.5t-15.5 27.5z" />
    <glyph glyph-name="slash" unicode="/" horiz-adv-x="923" 
d="M111 6q-12 3 -7 23q4 26 149 443q163 469 304 876q17 48 34 71t46 23h14q11 -1 73.5 -5t72.5 -5q7 0 16 -5.5t6 -15.5v-4l-463 -1348l-12 -12q-1 -1 -8 -4.5t-16.5 -8t-12.5 -5.5q-24 -10 -74 -27h-30h-33q-16 4 -59 4z" />
    <glyph glyph-name="zero" unicode="0" horiz-adv-x="1232" 
d="M147 317q-5 35 -38 197q0 4 -2.5 21t-2.5 18q0 8 -1 49.5t-1 48.5q0 282 138 523q76 131 200 200q60 31 107.5 39t134.5 8q116 0 214 -39.5t151 -128.5q83 -140 83 -387q0 -465 -266 -745q-76 -66 -141 -91.5t-164 -25.5q-116 0 -219 41q-34 13 -62 36.5t-45.5 46
t-35.5 61.5t-26.5 61t-23.5 67zM625 1010q-52 -5 -91.5 -68t-54 -150t-14 -173t26 -145.5t67.5 -59.5q82 0 135.5 153t36.5 302t-106 141z" />
    <glyph glyph-name="one" unicode="1" horiz-adv-x="856" 
d="M330 -2q-11 4 -15 8q0 5 -2 35t-2 35v137q0 75 5.5 224.5t5.5 224.5v12q-6 0 -35.5 2t-34.5 2q-4 0 -38 8.5t-50 13.5q-39 10 -81 39.5t-42 63.5q0 6 1.5 8.5t7 8l9.5 9.5q1 1 27 30t52.5 59t53 64t33.5 50q38 65 54.5 158.5t11.5 177.5q10 10 18 12h25q36 0 59 -4
l324 -14q8 0 15.5 -6.5t6.5 -16.5q13 -722 13 -739v-203q0 -315 -2 -379q0 -26 -25 -32h-35q-66 0 -188 5.5t-172 6.5z" />
    <glyph glyph-name="two" unicode="2" horiz-adv-x="1062" 
d="M623 1020q0 56 -39 82h-29q-44 0 -84.5 -22t-40.5 -62v-19q8 -100 8 -125q1 -4 4.5 -28t3.5 -29v-8q0 -21 -20 -21l-270 41q-3 1 -21.5 7.5t-21.5 7.5q-4 0 -14.5 6t-12.5 8q-4 0 -14.5 86t-8.5 90q-4 188 150 313q130 105 316 125q186 21 318 -57q150 -98 154 -280
q0 -88 -30 -152q-121 -236 -162 -305q-3 -6 -35 -57t-73.5 -117.5t-57.5 -91.5q-24 -36 -31 -43h80h78q4 0 39.5 2t38.5 2q91 0 127 -4q22 -5 22 -19v-24q0 -24 -2 -71t-2 -71q0 -28 2 -86t2 -88v-20q-7 -15 -22 -15h-55h-54q-27 0 -104 11h-144q-77 0 -228.5 -9.5
t-227.5 -9.5h-60l-9 3q-9 3 -17 7.5t-8 8.5v51q0 1 10.5 41.5t25.5 99t21 82.5q16 60 53 117q14 22 47 69.5t39 53.5l197 194q1 2 27 35.5t34 44.5q101 140 101 246z" />
    <glyph glyph-name="three" unicode="3" horiz-adv-x="1124" 
d="M96 457q-4 4 -4 12q0 16 40 42t65 36q24 12 149 65q10 6 39 6q17 0 30.5 -6.5t25 -21t17.5 -25t16.5 -32.5t14.5 -29q4 -8 13.5 -26.5t13 -25t11.5 -21.5t12.5 -21.5t13 -18t16.5 -19.5t18.5 -18t22.5 -20h2q9 0 24 28.5t17 40.5q0 2 1 16t1 17q0 37 -8 68q-11 23 -14 24
q-2 4 -12 20t-22.5 35t-16.5 25q-21 30 -52 55t-59 25q-8 0 -23.5 -3t-23.5 -3q-34 0 -45 18q-4 37 -4 84q0 45 4 82q12 15 48.5 21.5t43.5 9.5q61 25 109.5 76.5t48.5 109.5q0 24 -20 56t-42 32q-15 0 -35 -21t-30 -40l-70 -141q-6 -15 -35 -25q-2 0 -14.5 -1t-15.5 -1
q-29 0 -43 6t-108.5 44.5t-111.5 45.5l-2 2q-41 23 -41 43v4q0 1 11 23q34 72 78 139q38 61 115 111.5t169.5 80t194 31.5t188 -23.5t152.5 -94.5t88 -174q13 -63 -5 -120.5t-62 -103t-95 -79.5t-115 -64v-4q137 -49 204 -158.5t67 -259.5q0 -81 -19.5 -134.5t-56 -90
t-111.5 -86.5q-33 -22 -73.5 -36t-89.5 -19.5t-82 -7t-87 -1.5h-61q-73 11 -142.5 42.5t-126.5 90t-71 130.5z" />
    <glyph glyph-name="six" unicode="6" horiz-adv-x="1169" 
d="M61 354q0 191 27 308q18 81 21 90q5 14 69 184q39 77 102.5 178t142.5 200.5t130 127.5q33 0 57 -8l178 -84q46 -23 46 -37q0 -33 -27 -72q-110 -155 -158 -227q-35 -59 -67.5 -134.5t-32.5 -119.5v-12q85 40 170 40q264 0 348 -157q41 -74 41 -160q0 -127 -51 -238
q-37 -77 -85.5 -127.5t-112 -77.5t-130.5 -37.5t-158 -10.5q-148 0 -258 44t-192 152q-60 82 -60 178zM506 360q0 -53 40.5 -87.5t94.5 -34.5q34 0 63 39t42.5 85.5t13.5 81.5q0 64 -60 64q-67 0 -105 -28t-75 -93q-14 -14 -14 -18v-9z" />
    <glyph glyph-name="seven" unicode="7" horiz-adv-x="1073" 
d="M188 33q0 7 9 16q19 52 34 103q9 9 27 63q18 60 39 123l8 12q25 143 80 310t119 296q-77 -10 -277 -10q-13 0 -80 1t-79 1q-13 0 -23 13v55q0 22 -1.5 97.5t-1.5 122.5t6 107t20 93h45q29 0 82 -8t77 -9q135 -10 166 -10h127h127q59 10 162 10h78q15 -2 35 -6t42.5 -15.5
t22.5 -25.5v-2l-6 -39l-82 -323l-176 -519l-119 -434q-2 -10 -14 -16t-23.5 -7t-29 -2t-19.5 -1q-136 -19 -303 -19h-45q-8 2 -18 9t-9 14z" />
    <glyph glyph-name="nine" unicode="9" horiz-adv-x="1181" 
d="M225 186q0 56 2 64q0 12 23 18h29q421 0 450 236h-6q-61 -31 -134 -44t-146.5 -8t-142 32.5t-122 72t-85.5 117t-32 162.5q0 237 149.5 390.5t391.5 153.5q105 0 192 -34.5t147.5 -95.5t102 -145t59.5 -183.5t16 -209.5t-25 -225q-54 -272 -245.5 -395.5t-512.5 -97.5
q-83 5 -92 43q-2 9 -6 31t-7.5 38.5t-3.5 18.5q-2 2 -2 61zM428 911q0 -61 35 -104t94 -43q51 0 85.5 29t46.5 72t12.5 87.5t-10.5 79.5t-27 45q-4 25 -66 25q-57 0 -105.5 -47.5t-64.5 -106.5v-37z" />
    <glyph glyph-name="colon" unicode=":" horiz-adv-x="536" 
d="M106 834v77q0 4 -1.5 34.5t0 47t6.5 40.5t19.5 36t37.5 12q28 0 83 6.5t85 6.5h57q9 0 26.5 -75t13 -149.5t-49.5 -74.5h-231q-18 0 -30.5 11.5t-15.5 27.5zM106 59v78q0 4 -1.5 34.5t0 47t6.5 40.5t19.5 36t37.5 12q28 0 83 6t85 6h57q9 0 26.5 -74.5t13 -149.5
t-49.5 -75h-231q-18 0 -30.5 11.5t-15.5 27.5z" />
    <glyph glyph-name="semicolon" unicode=";" horiz-adv-x="563" 
d="M106 834v77q0 4 -1.5 34.5t0 47t6.5 40.5t19.5 36t37.5 12q28 0 83 6.5t85 6.5h57q9 0 26.5 -75t13 -149.5t-49.5 -74.5h-231q-18 0 -30.5 11.5t-15.5 27.5zM162 -150q0 3 5.5 13t6.5 12q64 113 64 174h-91q-26 0 -45 27v30v31q0 6 1 17t1 16q1 32 1.5 45.5t4.5 33
t6 25.5t12 17t18 13t27.5 7.5t36.5 7t50 5.5q19 3 54 3t77 -1.5t55 -1.5q9 -1 12 -34t-2.5 -84t-16.5 -106t-32.5 -105t-48.5 -75q-1 -2 -8.5 -7.5t-7.5 -6.5q-40 -24 -90 -49q-8 -4 -15.5 -10t-11 -8t-10 -3.5t-16.5 -1.5q-37 0 -37 16z" />
    <glyph glyph-name="question" unicode="?" horiz-adv-x="1095" 
d="M129 33l8 143q0 20 35 27q28 7 48.5 11t33.5 6.5t32.5 3.5t28 1.5t38.5 0t46 -0.5h25h82q55 -6 88 -37.5t33 -87.5v-24q-1 -3 -2 -9q-2 -11 -6 -16.5t-30 -13t-75 -10t-146.5 -1.5t-238.5 7zM596 328l-467 -19q-18 42 -10 109.5t29 134t58 124.5t77 83l194 166
q103 89 103 166q0 21 -10 38t-29 17q-39 0 -68 -45q-71 -86 -125 -176q-8 -19 -39 -19q-24 0 -41 13q-14 13 -72.5 56t-78.5 56q-2 1 -21.5 12.5t-21.5 12.5q-13 8 -13 28q23 88 63.5 156t87 110.5t109 70.5t119.5 40.5t128.5 15t125.5 -1.5t121 -12q98 -26 169 -93t71 -165
q0 -132 -156 -264q-13 -10 -85.5 -67t-84.5 -66q-73 -70 -92 -150q-27 -116 -41 -331z" />
    <glyph glyph-name="at" unicode="@" horiz-adv-x="1525" 
d="M993 1446q121 0 227.5 -49t175 -145.5t68.5 -219.5q0 -67 -2 -106q-3 -19 -17.5 -130.5t-17.5 -131.5q-1 -3 -5 -27t-5 -27q-21 -96 -31 -125q-23 -56 -91 -83.5t-144.5 -22t-148.5 45.5t-101 105q-1 0 -3.5 -3t-2.5 -5q-46 -72 -99.5 -114.5t-127.5 -42.5
q-207 0 -207 194q0 58 4 76q3 39 31 145q18 86 90 187q102 139 233 139q46 0 92 -25q12 6 17 6h86q10 0 28 -6l6 -3q6 -2 10.5 -4t8.5 -6t4 -7v-68q-11 -44 -29 -145q-2 -14 -2 -43v-8l27 -168q0 -11 14 -25q23 -23 53.5 -29.5t67 12t64.5 64.5q13 21 18.5 48t5.5 46t-2 53
t-2 52q0 111 -21 198.5t-77 163.5q-21 32 -45 45q-58 29 -78 41q-24 11 -107 11h-12q-20 -6 -145.5 -18t-149.5 -23q-106 -51 -186 -138.5t-129 -199.5q-2 -4 -9 -23t-12 -32.5t-6 -16.5l-41 -170q-6 -31 -6 -98v-6q0 -61 0.5 -91t5 -83.5t13.5 -81.5t26.5 -70t42.5 -64
t64 -49t89.5 -39t119.5 -19.5t153 -4.5h41q7 3 105 31l16 6t17.5 7.5t15.5 7t16.5 9t14.5 8.5t16 10t14 9t15 10.5t14 9.5q12 12 12 15q3 2 23 30.5t22 30.5q15 19 209 19h6q25 0 37 -6q-18 -15 -44.5 -45.5t-59 -70.5t-47.5 -57q-46 -36 -91 -59t-122 -55q-26 -13 -58 -21
q-155 -41 -299 -41q-138 0 -224 21t-198 84q-104 60 -141 221q-6 21 -15.5 65.5t-9.5 49.5v139q0 11 10.5 90.5t16.5 112.5q1 3 37 155l9 26q8 25 18 54t21.5 62t16.5 51q14 44 76 125q0 1 1 2t1 2q76 96 240 166q7 3 149 47q41 14 162 28.5t174 14.5zM672 612q0 -28 8 -28
q13 0 31 29t20 44l31 177v30l-2 4q-35 -31 -61.5 -115.5t-26.5 -140.5z" />
    <glyph glyph-name="A" unicode="A" 
d="M41 18l405 1282q9 63 44.5 83.5t119.5 23.5q7 1 52 2t100.5 2t75.5 2h73h76q37 -9 73 -53.5t56.5 -89t28.5 -78.5l182 -801l45 -297v-63q0 -10 -37.5 -18.5t-52.5 -8.5q-61 0 -174.5 9t-165.5 10q-17 4 -20 18l-43 270q-16 -6 -48 -8.5t-56.5 -2.5t-64.5 0.5t-48 0.5
q-75 0 -107 -4q-20 -107 -49 -229q0 -3 -2 -18.5t-2 -18.5q-4 -5 -10 -9t-11 -5.5t-14.5 -4.5t-13.5 -4q-26 0 -184.5 -4t-186.5 -4h-2q-8 0 -23.5 6.5t-15.5 11.5zM647 616l19 -6h159l-69 441h-8z" />
    <glyph glyph-name="B" unicode="B" horiz-adv-x="1257" 
d="M102 45l7 1385q4 6 4 8q5 10 10 10q67 -3 117 10q20 1 163.5 6t171.5 6q3 0 43 1.5t50 1.5t27.5 -0.5t30.5 -1.5l13 -1q9 0 72 -12.5t90 -19.5q120 -24 201.5 -106t109.5 -199q0 -3 1 -25.5t1 -26.5q8 -124 -49 -224.5t-170 -158.5q21 -14 56 -28q56 -29 94 -109.5
t41 -150.5q7 -99 -29 -177q-21 -47 -35.5 -74t-45.5 -57.5t-72 -46.5q-194 -75 -435 -75q-206 0 -374 30q-80 21 -84 25zM535 512q13 -183 14 -193q1 -5 2 -16.5t2 -20t2 -8.5l4 -4h23q52 0 79 38t25 93q-3 48 -50 79.5t-101 31.5zM584 1165q-5 0 -14 -2t-17.5 -6.5
t-7.5 -9.5l14 -236q0 -8 35 -8h2q61 0 99.5 37.5t35.5 95.5q-3 38 -55.5 83.5t-91.5 45.5z" />
    <glyph glyph-name="C" unicode="C" horiz-adv-x="1271" 
d="M63 473q0 8 -1 54t-1 53q0 273 105 491q73 154 158.5 227t242.5 125q16 0 72 21q2 0 14 2t13 2h104q140 0 238 -24.5t176 -104.5q7 0 13.5 -4.5t6.5 -11.5v-5q-11 -34 -57 -152t-60 -153q-4 -13 -24.5 -56.5t-28.5 -55.5q-11 -11 -26 -11h-15q-20 7 -61.5 23.5t-65 25
t-58.5 16t-67 7.5q-180 0 -211 -135v-66q0 -103 15.5 -169.5t72.5 -116.5q62 -56 148 -56h18q56 14 74 17q39 17 86 33l170 100q10 4 33 4q37 0 45 -64q0 -9 5 -65.5t7 -65.5q4 -24 23 -122q0 -23 4 -39v-4q0 -18 -19 -37q-4 -4 -20 -23t-18 -20q-8 -8 -36 -30t-36 -26
q-10 -4 -73 -37t-77 -38q-17 -8 -34.5 -13.5t-41 -7.5t-34.5 -2.5t-42.5 0t-37.5 0.5q-107 0 -184 8t-168 33q-92 24 -167.5 101.5t-119 173t-60.5 198.5z" />
    <glyph glyph-name="D" unicode="D" horiz-adv-x="1370" 
d="M113 25l-11 8l21 1315q1 28 105 57q172 48 387 38q339 -17 526 -184q207 -185 182 -532q-4 -59 -14.5 -118t-30 -124.5t-54 -124.5t-79.5 -98q-109 -97 -273 -174.5t-297 -77.5h-317zM553 946l-12 -590h2h2q80 0 148.5 31t111 80t67.5 104.5t29 108.5q1 5 3 37t3 37
q-3 42 -9.5 77t-29.5 85.5t-59 85t-103 62t-157 30.5z" />
    <glyph glyph-name="E" unicode="E" horiz-adv-x="1089" 
d="M918 -2l-816 43l31 1266l6 49l13 8q217 53 800 53h76q5 -2 13 -9t8 -11q0 -8 -1 -54.5t-1.5 -79.5t0.5 -55q-1 -10 -1 -36.5t-2 -43t-7 -38.5t-17.5 -36.5t-32.5 -21.5h-104q-51 0 -154.5 2t-155.5 2v-121q47 0 140.5 1.5t140.5 1.5q36 0 98 -3q21 -7 26 -16.5t5 -34.5
v-20q-2 -16 -5.5 -58t-6.5 -84.5t-4 -48.5q0 -2 -4.5 -17.5t-10 -37t-8.5 -35.5q-5 -22 -11 -30.5t-24 -14.5q-155 0 -366 4q0 -8 -2 -52.5t-2 -51.5v-15v-14l399 -27h14q3 0 12 -8.5t11 -11.5v-94v-96q0 -9 -5.5 -59.5t-6.5 -61.5v-6q-10 -23 -45 -27z" />
    <glyph glyph-name="F" unicode="F" horiz-adv-x="1069" 
d="M104 66l11 1302v2v2l852 29q4 0 21 -2t20 -2l20 -344q-2 -8 -9 -13.5t-14 -8t-19.5 -4t-19 -2t-18.5 0.5h-12l-389 8q0 -10 -5 -69.5t-5 -71.5q-2 -6 -2 -43q60 -2 329 0q9 0 17 -16q0 -31 -2 -39q-2 -43 -6 -84.5t-12 -105.5t-11 -91q-3 -28 -57.5 -39t-92.5 -8
q-15 1 -91.5 3t-90.5 3q0 -20 3 -79.5t7 -128.5t4 -77q0 -2 1.5 -13.5t1.5 -12.5q0 -29 -3 -47q0 -5 -1 -26.5t-1 -25.5q-18 -21 -55 -28q-116 -8 -199 -8h-69q-30 6 -72 6h-2h-2q-29 12 -27 33z" />
    <glyph glyph-name="G" unicode="G" horiz-adv-x="1433" 
d="M61 516v72v16q0 100 15 152q3 10 27 92t30 100q28 94 92 178q99 133 208.5 201.5t266.5 89.5h101q182 0 366 -45q159 -36 213 -133q2 -5 5.5 -11t5.5 -10.5t2 -9.5v-8l-172 -276q-10 -15 -31 -15q-26 0 -31 9q-43 11 -114.5 38t-131.5 43.5t-118 16.5q-2 0 -22.5 0.5
t-28.5 0t-23 -3t-25 -7.5q-22 -8 -53 -43q-1 -1 -2 -2.5t-2 -2.5q-45 -52 -60.5 -106t-15.5 -131q0 -203 103 -301q69 -66 155 -66q39 0 51 6q-17 161 -22 273v65v66q0 11 6.5 20.5t15.5 10.5q92 23 119 26q3 0 16.5 2t16.5 2h80h82q37 0 61 -4q72 0 74 -2l6 -588
q-39 -50 -99.5 -92.5t-135 -70.5t-159.5 -45t-173.5 -15.5t-175.5 17.5t-169 56.5t-150.5 97.5t-122 143.5t-81.5 193.5z" />
    <glyph glyph-name="H" unicode="H" horiz-adv-x="1515" 
d="M143 43l-30 866q-9 68 -9 215q0 150 7 248q3 9 32 23q32 0 209 2t207 2h47h35q12 0 42 -8.5t30 -18.5v-590q27 0 81 4.5t80 4.5v559q0 23 25 30h84q21 0 93 0.5t106 0t89.5 -3.5t100.5 -9q15 -1 24 -13t12 -32.5t3.5 -37t-1 -39.5t-1.5 -27v-37l-76 -1100q0 -16 -20 -31
q-12 -8 -103 -8q-88 -6 -151 -6h-37q-4 1 -23 6t-38.5 10t-22.5 6q-8 0 -23.5 4.5t-15.5 12.5l-10 381h-15h-16q-4 -1 -44 -7.5t-44 -7.5q-18 -2 -49 -3t-53 -7q11 -22 14 -51q0 -7 6 -72.5t6 -72.5q9 -45 23 -101q0 -1 1 -10t1 -12q-2 -15 -2 -19q-189 -61 -547 -61h-18z
" />
    <glyph glyph-name="I" unicode="I" horiz-adv-x="702" 
d="M102 31v20l45 1266l5 37q4 2 6 4q14 11 43 26q4 0 24 1t23 1q6 0 26 -1l19 -1q22 0 138.5 -3t135.5 -3q21 -9 33 -24v-41q0 -33 -4 -118t-12 -374.5t-17 -750.5q0 -2 -8 -10.5t-14 -12.5q-10 -10 -23 -10q-142 -37 -389 -37q-19 0 -25 5.5t-6 25.5z" />
    <glyph glyph-name="J" unicode="J" horiz-adv-x="1064" 
d="M41 371q0 11 2 14.5t10 6t13 5.5q1 2 13 14.5t13 14.5q13 10 41.5 26.5t40.5 26.5q7 8 57.5 55t61.5 56q28 28 61 28q19 0 32.5 -6t20.5 -20.5t10.5 -25t7 -33t5.5 -31.5q1 -6 11 -43t12 -43q2 -3 7 -20.5t7 -20.5q0 -6 14 -27l4 -4v-2l4 2q5 6 5 8q26 59 26 211
q2 6 2 160q0 104 -9 308.5t-9 307.5v29q8 12 16 12q97 15 166 21h107h106q7 -1 23 -2.5t21 -2t15.5 -4t14 -8t8 -13t6.5 -21.5q3 -25 8.5 -112.5t5.5 -111.5q0 -2 0.5 -37.5t1.5 -78t1 -62.5q0 -345 -43 -563q-26 -137 -82.5 -225.5t-169.5 -128.5q-87 -29 -97 -31
q-8 -4 -26 -4h-201q-15 0 -23 4q-89 25 -133 51q-1 1 -7 4t-7 4q-174 162 -174 312z" />
    <glyph glyph-name="K" unicode="K" horiz-adv-x="1308" 
d="M102 1233q0 9 -1 90t-1 90q2 13 5.5 18.5t13.5 8.5l475 -6l-39 -537v-6l10 10q244 299 232 526q11 11 18 13h55h54q18 -1 121 -4t118 -4l72 -9h2q31 -4 31 -20v-8q0 -3 -2 -17t-2 -16q-15 -82 -45 -219q-26 -108 -94.5 -213t-157.5 -158q-3 0 -27 -12q-4 -1 -27.5 -10.5
t-43.5 -17t-27 -9.5q2 -3 46 -21t52 -24l127 -129q1 -1 55 -78q1 -1 2 -3t2 -3q45 -65 60 -113q4 -11 27 -91.5t28 -96.5q10 -31 10 -78v-4q0 -47 -16 -55q-30 -7 -61 -23q-12 -4 -25 -4h-293q-50 -4 -59 -4q-30 0 -33 12q-7 42 -49 225q-3 9 -27 93q-2 4 -18 43t-21 47
q-34 87 -65 114q0 -4 -1 -23t-1 -22q0 -104 24 -362q0 -3 4 -34.5t4 -35.5v-2q0 -17 -40.5 -30.5t-67.5 -16.5q-22 -1 -141 -4t-140 -4h-35h-12q-12 -1 -19.5 -0.5t-18.5 2t-16.5 7t-6.5 13.5l-4 68q-4 21 -11 1020v127z" />
    <glyph glyph-name="L" unicode="L" horiz-adv-x="974" 
d="M111 4q-7 46 -7 174q0 9 0.5 29t1.5 37v16l82 1108q0 2 0.5 11.5t1 12.5t2.5 10.5t4.5 11t7 7.5t11.5 6q52 13 74 13h311q14 0 43 -11t29 -22v-109l-76 -917h31l174 31h90q9 0 26 -8.5t17 -16.5v-2q-14 -98 -14 -133q-5 -73 -5 -189q-3 -10 -14.5 -19.5t-21.5 -12.5
q-42 -6 -70 -13l-424 -36h-61h-80q-50 0 -92 6q-31 0 -41 16z" />
    <glyph glyph-name="M" unicode="M" horiz-adv-x="1562" 
d="M369 -10l-308 8l35 1333q5 34 18.5 67t37.5 38h4q58 4 88 4q20 0 30 -8q2 -2 21.5 -21t36 -35.5t20.5 -21.5q7 -6 35.5 -29.5t48 -41.5t31.5 -36l182 -252l82 -137l289 492q36 59 101 79.5t153 20.5h26q15 0 95 -10q56 -5 74 -41.5t18 -100.5l14 -1220
q-1 -27 -14.5 -41.5t-40.5 -22.5q-93 0 -174 -6q-7 0 -52 -5t-53 -7h-26q-23 0 -39 6t-24 14t-12 26.5t-4.5 31.5t-0.5 41v639q-42 -82 -150 -265q-4 -7 -29 -44.5l-55 -82.5t-41 -61l-4 -4q-15 -21 -21.5 -29t-20.5 -15t-35 -7q-41 0 -72 53q-66 91 -70 104q-20 35 -55 105
v-45l29 -348v-78q0 -15 -22.5 -25t-41.5 -12q-6 -1 -23 -3.5t-30.5 -4.5t-16.5 -2h-34z" />
    <glyph glyph-name="N" unicode="N" horiz-adv-x="1337" 
d="M102 45q0 66 9.5 629t7.5 743q128 19 174 19h37h41q3 0 36 -4.5t37 -4.5q20 -4 105 -4q36 -5 53 -55l217 -485l4 14l31 465q3 43 39 55q5 0 41 1t43 1q12 0 48 -1l36 -1q114 -11 137 -16q37 -12 37 -33v-14l-70 -1323q-6 -6 -8 -6q-27 -20 -334 0l-227 434q0 -3 -1 -17
t-1 -16q0 -5 1 -19l1 -14l-23 -354q-16 -16 -32 -16l-406 -17q-19 0 -25 8.5t-8 30.5z" />
    <glyph glyph-name="O" unicode="O" horiz-adv-x="1292" 
d="M61 604q0 356 127 582q36 64 118.5 127t156.5 82q12 4 38.5 10t51 12t25.5 6q113 23 149 23q104 0 216.5 -38.5t168.5 -109.5q78 -100 90 -204l29 -240v-51v-58q-7 -82 -18 -151.5t-32.5 -147.5t-51 -140.5t-76 -120.5t-105.5 -96.5t-141 -61t-180 -21.5q-48 1 -88.5 4.5
t-95 13t-101 29.5t-92.5 50t-83 79t-61 111q-1 3 -3.5 10t-4.5 12.5t-2 6.5l-33 180l-1 43q-1 43 -1 59zM479 737q0 -44 5.5 -93t20 -108t46.5 -97t78 -38q37 0 74 40t51 81q7 15 24.5 64.5t20.5 62.5q1 3 5 18.5t5 18.5q6 32 6 123v88q-16 108 -89 140q-66 29 -135 -21
q-85 -63 -106 -202q-6 -37 -6 -77z" />
    <glyph glyph-name="P" unicode="P" horiz-adv-x="1159" 
d="M141 25l-39 1409q3 1 20.5 6t20.5 6q83 -1 234.5 2.5t216.5 3.5q353 0 469 -207q4 -8 13.5 -25.5t14 -25.5t10.5 -21t9.5 -25t5.5 -26q0 -5 1 -33.5t1 -33.5q0 -88 -33 -230q-32 -127 -112 -221.5t-201 -134.5q-1 -1 -4 -2t-4 -2q-60 -25 -96 -25h-103q-2 -20 -2 -22
l8 -373q2 -15 -10.5 -24t-39 -12.5t-56.5 -4.5t-74 1.5t-80.5 5.5t-87 7.5t-82.5 6.5zM530 1171v-389q46 0 97 57t51 103v98q-4 9 -4 13q-11 22 -15 26q-1 2 -3 5.5t-3 5.5q-28 51 -48 65.5t-75 15.5z" />
    <glyph glyph-name="Q" unicode="Q" horiz-adv-x="1435" 
d="M823 -334l-671 295q0 23 6 72t14 67l6 4l115 -18q1 0 9 1t9 1q-135 141 -192.5 284t-57.5 337q0 6 1 46.5t1 47.5q6 84 36.5 173.5t85 173.5t124.5 150t163 106t194 40q147 0 272 -33t222.5 -99.5t154 -176t57.5 -252.5q1 -102 -3.5 -185t-20.5 -176t-43 -164.5
t-74.5 -138t-112.5 -108.5t-159 -65.5t-211 -18.5q29 -6 78 -27t69 -27q3 -1 22 -6t39 -10.5t40.5 -12.5t34 -15t13.5 -15v-4zM711 1065q-48 -2 -88 -43.5t-65 -105.5t-36 -143.5t-5.5 -155.5t30.5 -143t67 -105q129 -51 207 74q67 106 70 281q3 170 -56 269q-49 83 -124 72
z" />
    <glyph glyph-name="R" unicode="R" horiz-adv-x="1292" 
d="M135 6q-14 15 -16.5 50.5t-3.5 246.5q-6 538 -13 975q0 2 15 11.5t63 33.5t115 51l240 47h45q10 0 34 0.5t38 0t34.5 -1t38.5 -3t35 -6.5q109 -23 158 -45q135 -58 230 -168.5t101 -241.5q0 -4 1 -24.5t1 -24.5q-13 -68 -45.5 -125.5t-84 -102t-101 -76t-117.5 -66.5
l-4 -5q89 -26 163.5 -100.5t102.5 -163.5q7 -23 9.5 -43.5t1.5 -37.5t0 -44q4 -24 4 -80q-2 -26 -5.5 -39t-12 -18.5t-17 -6.5t-28 -3t-36.5 -6l-266 -27h-14q-45 0 -45 14l-60 308q-14 43 -24 55q-8 23 -29 55q-11 23 -37.5 46.5t-48.5 27.5q-4 -4 -4 -14l-4 -131l8 -304
q0 -9 -35 -18h-196q-14 0 -95 2t-96 2zM512 969q3 -124 14 -224q3 0 27 -1t27 -1q110 0 180.5 58.5t66.5 163.5q-3 42 -36 75q-33 38 -63.5 53t-78.5 15q-29 0 -45 -8q-12 -5 -34 -16t-38.5 -20.5t-17.5 -10.5l-4 -4q0 -57 2 -80z" />
    <glyph glyph-name="S" unicode="S" horiz-adv-x="1167" 
d="M770 47q-88 -37 -177 -48.5t-168 1t-148 49t-119 91t-78.5 131t-28.5 165.5q0 3 2 6.5t6 6.5t7.5 5t8.5 5t7 4q7 1 34 10t29 10q42 13 124 35.5t85 22.5h49q18 0 28 -29t15.5 -70t13 -82.5t26 -70.5t49.5 -29q5 0 10 2t8.5 4.5t8.5 7.5t7.5 8t7 8.5t5.5 6.5q53 62 53 149
v29q0 6 -8 14q-26 29 -44 41t-61 33q-1 0 -2 1t-2 1q-31 15 -96 22t-86 13q-67 19 -113.5 38t-80 45.5t-53 54.5t-30.5 72.5t-14.5 90.5t-3.5 117q0 99 63 196q52 85 104.5 130t139.5 77q6 2 45 14t55 16t45.5 9.5t51.5 5.5h241q14 0 33.5 -5t28.5 -8.5t35.5 -15.5t27.5 -12
q127 -60 171 -149t44 -242q0 -11 -1 -42l-1 -31v-5q0 -69 -26 -79q-12 -1 -81.5 -4.5t-82.5 -4.5q-4 -1 -40 -6t-70.5 -10t-41.5 -6h-22q-1 0 -8 -0.5t-10 0t-8 1.5t-7 4.5t-2 8.5q0 20 7 59t7 60q0 37 -2 45q-26 92 -135 92q-65 0 -116.5 -66.5t-51.5 -136.5q0 -46 90 -67
q8 -2 51 -13.5t78 -20.5t45 -11q14 -3 41.5 -8t50 -10t41.5 -13q32 -16 136 -59q68 -30 100.5 -97t32.5 -149q0 -57 -20.5 -110.5t-51 -94t-78 -82.5t-87 -70t-93.5 -61z" />
    <glyph glyph-name="T" unicode="T" horiz-adv-x="1187" 
d="M315 469q0 83 9.5 284t9.5 283q-28 0 -86 -10t-88 -10q-9 0 -29.5 -0.5t-27 0t-20.5 2t-19 6t-12 12t-9 20t-2 29.5q0 77 31 285q-3 33 8.5 55.5t40.5 22.5q37 0 133 -9t145 -9h101q4 0 201 -4.5t235 -6.5q17 -1 42 0t53.5 -1t52.5 -5t40 -13t17 -26l6 -135
q0 -17 -27 -223q0 -2 -1.5 -8.5t-2 -8l-2 -6t-3.5 -6.5t-5.5 -4.5t-7.5 -3.5q-24 -4 -90 -4h-23q-35 0 -103.5 4t-103.5 4h-10q0 -2 2 -13.5t2 -13.5q5 -67 21.5 -230.5t26 -293t9.5 -231.5q0 -70 -6 -117q0 -16 -20 -29q-14 -12 -26.5 -20.5t-31.5 -13.5t-25.5 -6.5
t-35 -4.5t-33.5 -4q-6 -1 -58 -9t-58 -9h-46h-47q-23 2 -32 3t-26.5 5t-25.5 10.5t-16.5 18.5t-11.5 30q-6 39 -9.5 80t-4.5 89t-1.5 77.5t0 88.5t0.5 79z" />
    <glyph glyph-name="U" unicode="U" horiz-adv-x="1337" 
d="M61 586v57q0 13 1.5 39.5t2.5 48.5t1 23l14 641v2q5 14 9.5 20.5t14.5 7.5q39 0 155.5 4.5t154.5 4.5h61q37 0 45 -4q9 -2 21 -11t12 -16q0 -23 -6 -73.5t-4 -78.5q-5 -42 -15.5 -176.5t-11.5 -171.5v-92v-119v-20v-8q0 -42 1.5 -68.5t7 -65t19.5 -68.5t36 -52h2
q44 0 79 25.5t55.5 67t32 85.5t13.5 88l43 676v6q1 17 2.5 25.5t9.5 19t21 12.5q28 4 58 5t78.5 0t57.5 -1q12 0 100.5 2t98.5 2q33 -5 35 -22q14 -133 8.5 -278t-21.5 -284.5t-52 -271.5t-84 -239.5t-118 -188t-153 -116.5q-33 -14 -86.5 -21t-90 -8t-101 0.5t-74.5 1.5
q-27 0 -90 25.5t-101 48.5q-117 72 -179.5 214.5t-62.5 301.5z" />
    <glyph glyph-name="V" unicode="V" horiz-adv-x="1296" 
d="M82 1206l-41 142v30q0 3 7 8t9 5h117q29 10 83.5 15t78.5 11h117q8 0 23 -6.5t16 -13.5l94 -852l194 837q3 8 11.5 13t20 7t20.5 2t21 -0.5t13 -0.5q19 1 121 5.5t119 4.5h29q2 0 12.5 0.5t20 0.5t23 -0.5t24 -2t20 -4t15 -7.5t5.5 -11q0 -14 -6 -29l-420 -1241l-8 -41
q0 -3 -5 -5.5t-7 -2.5q-44 -11 -72 -11q-48 0 -193.5 -14t-181.5 -14q-24 0 -34.5 8t-14.5 31z" />
    <glyph glyph-name="W" unicode="W" horiz-adv-x="1822" 
d="M1180 -25l-54 56q-10 15 -39.5 58t-51.5 78.5t-38 65.5l-188 359q-2 2 -15.5 22t-17.5 25l-6 10l-6 -4q-3 -5 -10.5 -17t-14 -21.5t-6.5 -10.5l-272 -557q-1 -3 -39 -41q-20 -10 -23 -10h-94q-23 0 -45.5 14.5t-26.5 36.5l-45 235l-145 1102q-1 7 19 13t54 10t74.5 7.5
t85 5.5t81.5 4t68 3t40 2q3 0 8.5 0.5t8.5 0.5t7.5 -1t7.5 -3t5 -5v-51q0 -5 -15 -541v-24v-9v-10l203 330q31 51 119 139q4 4 11 5t17 0t11 -1h26q16 -4 19 -12l215 -465q12 -24 14 -26l133 647q4 22 64 22q1 0 6 -1t6 -1l377 -20q19 0 46.5 -8t27.5 -21v-8l-250 -758
l-197 -481q-44 -166 -121 -166q-30 0 -34 22z" />
    <glyph glyph-name="X" unicode="X" horiz-adv-x="1314" 
d="M715 31q-13 4 -24 15.5t-16.5 20.5t-14.5 28t-11 24q-68 112 -86 155h-4l-14 -26q-4 -11 -31 -117q-8 -24 -13 -47t-6 -31.5t-8.5 -18t-20 -15t-40.5 -13.5q-34 0 -100.5 5t-100.5 5h-86q-15 -4 -59 -4h-31q-8 0 -8 8v5q67 299 178 456q3 4 17 21.5t26.5 33t16.5 19.5
q6 8 32 38t31 34q0 1 5 8t11.5 16t8.5 13q2 3 5 5.5t4 4.5t1 6q0 6 -6 18l-271 615l-26 51v10h49q8 -4 10 -4l2 4l242 27q1 0 14 1t15 1q29 0 70.5 -8.5t51.5 -24.5q19 -30 29 -41q26 -47 90.5 -166t89.5 -166l4 4q2 3 10 18.5t9 16.5q3 9 28 72.5t29 77.5q25 65 33 104
q0 3 1 18t2 24t3.5 22t7.5 21.5t13 13.5q1 0 8 1t8 1q2 0 9.5 -1t8.5 -1q2 0 10 -4t9 -5h39q3 0 20.5 -2t20.5 -2q3 -1 23.5 -4.5t25.5 -3.5q7 -1 71.5 -3t71.5 -3q5 0 20.5 -0.5t20 -1.5t14 -5.5t17.5 -13.5v-69q0 -392 -324 -729v-19l166 -401q6 -22 14 -39v-16
q0 -49 -55 -66h-47q-22 0 -135 10q-4 0 -46.5 2t-47.5 2q-9 0 -42 6t-42 9z" />
    <glyph glyph-name="Y" unicode="Y" horiz-adv-x="1421" 
d="M57 20q-16 4 -16 19v4q6 32 29 74q110 199 180 313q16 23 83.5 124.5t78.5 119.5q2 2 4 4.5t3 3.5t2.5 3t2 3t1 2.5l1 3t0.5 3.5v5v11q-3 10 -20.5 72.5t-20.5 72.5q-1 8 -9 36.5t-9 31.5l-138 350q-30 66 -30 123q0 34 26 37q6 0 39 1t39 1q9 0 28 -0.5t35 -1.5h15
q14 0 86 -6t82 -7h4q27 -6 49 -28l4 -4q20 -24 32.5 -48.5t16 -38.5t9.5 -50t10 -54q1 -5 8 -35t8 -35l4 -8l160 277q11 20 44 28.5t63 8.5l419 -15q0 -4 -8 -20l-797 -1381h-2h-2q-41 -4 -100 -4q-56 0 -196.5 2.5t-217.5 1.5z" />
    <glyph glyph-name="Z" unicode="Z" horiz-adv-x="1175" 
d="M63 16v80q0 17 -0.5 67.5t-0.5 76t2.5 65t7.5 70.5q4 4 4 8q6 12 18.5 39.5t21 44.5t21.5 39t25 37l141 164q8 11 201 188q16 11 67.5 55t61.5 56l20 22h-6q-375 0 -493 -8q-3 0 -17.5 1t-17.5 1q-13 0 -19 12v72v76q0 134 4 196q0 8 15 13q88 25 223.5 27.5t300.5 -6.5
t203 -9q141 0 168 -2q58 -3 92 -21q0 -2 4 -6l4 -6v-53q-14 -124 -20 -232v-4q0 -198 -217 -354l-238 -207q-1 0 -17 -16.5t-37.5 -38t-33.5 -31.5l-2 -4h14h15q7 0 71.5 5t71.5 5q7 1 80 3t80 3q3 0 29 4.5t30 4.5h49h49q19 -9 19 -15v-284q0 -1 2 -16t4.5 -34t3.5 -28
q0 -2 2 -11t2 -10q2 -4 2 -6q0 -11 -14 -20h-39q-49 0 -84 6h-188h-43q-395 0 -592 -27h-19q-27 0 -31 8z" />
    <glyph glyph-name="underscore" unicode="_" horiz-adv-x="1447" 
d="M102 166q1 5 2.5 8.5t6 5l7.5 2.5t10 1.5t9 0.5l1071 -8q8 0 38.5 -2t51.5 -2v-2q0 -1 5.5 -4t11.5 -7t8 -7q6 -11 14.5 -42t8.5 -44q0 -74 -54 -74h-8l-1147 6q-28 0 -28 18z" />
    <glyph glyph-name="a" unicode="a" horiz-adv-x="1380" 
d="M41 25v12l424 1268q9 22 17.5 34.5t22 18.5t23 8t35 4.5t43.5 5.5q134 29 217 29q12 0 46 1t53.5 0.5t47 -3.5t48.5 -10q78 -28 133 -215q47 -151 188 -1028v-134q0 -4 -8 -8t-12 -4q-7 0 -46 -1t-46 -1q-11 0 -33.5 0.5t-41 1t-19.5 0.5q-28 0 -121.5 4.5t-120.5 7.5
q-10 1 -21 10.5t-16 18.5l-18 66l-35 241h-13h-18q-21 -2 -56.5 -6.5t-66.5 -7.5t-63 -4q-15 -4 -15 -8l-41 -269q0 -30 -18 -32q-80 -4 -121 -15l-278 -6q-70 -9 -70 21zM756 1073q-1 -3 -9.5 -26t-9.5 -29q-6 -18 -20 -65t-28 -95.5t-15 -50.5q-8 -34 -22.5 -111.5
t-14.5 -85.5v-22q21 -4 27 -4h20q57 0 143 8q-17 69 -27.5 195t-17.5 171q-18 61 -26 115z" />
    <glyph glyph-name="b" unicode="b" horiz-adv-x="1224" 
d="M139 43l-37 1362q0 16 30.5 25.5t51.5 9.5q77 6 144 6q4 0 13.5 -0.5t17 -1t8.5 -0.5q30 -1 193 -6t190 -6q3 0 21.5 -2.5t21.5 -2.5q50 -9 85 -17t79 -21.5t74 -28t61 -37.5t49.5 -50.5t30.5 -65.5t12 -83q0 -139 -36 -248.5t-128 -189.5v-4q137 -86 137 -221
q0 -109 -41.5 -206t-128.5 -155q-128 -83 -313 -96q-11 0 -81 -1t-83 -1q-19 0 -59.5 0.5t-73 1t-33.5 0.5q-68 0 -96 4q-10 1 -23 0t-28 0.5t-27.5 4t-21 10.5t-9.5 20zM561 270q1 -4 12 -4q16 0 31 9t31 24t24 20q9 8 27 23t26 23t18.5 22t15 29t4.5 35q0 42 -20.5 57.5
t-67.5 15.5h-7q-74 0 -90 -18q0 -2 -4.5 -7t-5.5 -5v-17v-18q1 -14 3 -94t3 -95zM575 897q2 -6 11 -6q64 0 111.5 43t47.5 102q0 27 -11.5 55.5t-31.5 41.5q-29 4 -71 4q-47 0 -60 -9q0 -6 -1 -39t-1 -40q0 -97 6 -152z" />
    <glyph glyph-name="c" unicode="c" horiz-adv-x="1243" 
d="M786 1448h33q15 -1 55 -2t74 -2t41 -2q3 0 17.5 -1t17.5 -1q4 -1 26.5 -6t41.5 -10.5t41 -13.5t34.5 -19.5t12.5 -24.5q0 -19 -6 -31l-113 -372q-3 -21 -10 -29t-25 -8q-15 0 -29.5 6.5t-35 21t-25.5 17.5q-61 30 -148 30q-104 0 -172.5 -80.5t-68.5 -189.5
q0 -69 18 -129q32 -100 74 -140t137 -50h27h22q36 6 129 35.5t140 29.5q32 0 41 -33l61 -290l1 -11q1 -11 1 -16q0 -68 -24 -78q-313 -80 -545.5 -66t-379 142t-188.5 367v184q0 1 6.5 38t14.5 87t12 76q4 14 6 14q2 6 10 31t11.5 36t12 33.5t14.5 36t15.5 30t18.5 29.5
q107 151 273 256t331 105z" />
    <glyph glyph-name="d" unicode="d" horiz-adv-x="1329" 
d="M102 72v28q0 17 2.5 174t4.5 294t3.5 366.5t0.5 445.5q113 44 252.5 57t283 -10.5t271 -78.5t224.5 -156t134 -234q0 -10 2 -32t4 -40.5t2 -19.5v-65q-5 -99 -30.5 -198.5t-69 -192.5t-112 -168.5t-152.5 -114.5q-292 -135 -621 -117q-7 0 -22.5 1t-28.5 2l-12 1
q-3 0 -15.5 2.5t-27 6t-17.5 4.5h-2q-62 21 -74 45zM528 362l-4 -8h4q50 -9 72 13q68 58 112.5 111t61.5 118q3 12 12.5 47t16 59.5t8.5 26.5q0 29 2 39q4 63 -18 125.5t-61.5 106.5t-94.5 63.5t-117 -4.5z" />
    <glyph glyph-name="e" unicode="e" horiz-adv-x="1038" 
d="M109 2q-7 56 -7 109l43 1280l791 16q38 0 57 -12l4 -4v-5q0 -2 -2 -11t-2 -11l-43 -350q-8 0 -55 -1t-55 -1q-35 0 -99.5 2t-95.5 2h-6q-9 -9 -4 -12q-5 -14 -17 -125q0 -1 1.5 -8.5t1.5 -8.5q7 0 70.5 -3.5t76.5 -2.5q4 0 38.5 6t39.5 6l16 1q17 1 23 1q4 0 16.5 1
t20.5 0.5t17 -2t14 -7.5t5 -16q0 -44 -5 -151t-3 -167l-8 -8q-88 -2 -125 -4h-8q-35 0 -103.5 2t-103.5 2h-18q0 -4 -1 -29t-1 -28q-1 -14 -0.5 -40.5t1.5 -63t1 -40.5l327 33h37q11 -5 13 -10v-23q0 -50 -10.5 -151t-10.5 -152q-14 -9 -16 -10q-5 0 -27 -2t-27 -2
q-72 0 -207 -6.5t-268 -6.5t-286 13z" />
    <glyph glyph-name="f" unicode="f" horiz-adv-x="1030" 
d="M106 4q0 3 -2 16.5t-2 16.5v2v2l56 1272q-1 20 0.5 32.5t11 22.5t27.5 10q58 0 177.5 -2t180.5 -2h37q230 0 364 19q28 0 33 -9v-26v-23q0 -11 -1 -34.5t-2 -42.5l-1 -19l-39 -231q-5 -23 -28 -23q-17 0 -25 4q-18 0 -124 2t-126 2h-22h-25q-12 -138 -12 -151v-29l309 4
l-35 -385q-1 -3 -12 -8q-7 -1 -22 -3.5l-27 -4.5t-13 -2h-229q-2 -13 -2 -15l-8 -344v-22l-410 -33q-21 0 -29 4z" />
    <glyph glyph-name="g" unicode="g" horiz-adv-x="1363" 
d="M80 442q-10 22 -19 80v78q0 136 56.5 289t162.5 284t232 183q19 10 53 18q20 6 85.5 21t84.5 18h135h29q77 0 118.5 -1.5t105.5 -11.5t116 -30q9 -3 46.5 -27.5t37.5 -27.5q0 -5 -14 -10q6 -2 6 -9q0 -8 -6 -12q-4 -8 -27.5 -46t-24.5 -40l-106 -213q-1 -11 -7 -16
t-11 -5.5t-19 -0.5q-10 0 -18.5 2.5t-20 7.5t-18.5 8q-132 39 -221 39q-258 0 -258 -334q0 -93 48 -186.5t124 -147.5q45 -35 137 -35l1 11q2 12 1 14q-25 209 -25 350v8.5v9.5t0.5 8t2 8t3.5 6t6 5t9 2q32 4 245 15h37h33q75 -7 80 -9l16 -8v-35q0 -70 -2.5 -247.5
t-1.5 -274.5q-12 -17 -30.5 -31t-31.5 -20.5t-40 -17.5t-37 -15q-17 -3 -88 -39q-15 -6 -32 -10t-27.5 -5t-32.5 -2.5t-31 -2.5q-12 -2 -30 -6t-31.5 -6t-30.5 -2h-238q-79 18 -112 26q-14 3 -27 8.5t-32.5 16.5t-24.5 14q-128 67 -205 146t-131 208z" />
    <glyph glyph-name="h" unicode="h" horiz-adv-x="1519" 
d="M102 18v9q1 6 5.5 41t5.5 41q0 16 3 165.5t3 165.5q0 125 -5 376t-5 376q0 27 2.5 95t1.5 106q10 26 37 26q16 0 26 -4q11 -3 59 -7.5t62 -4.5l34 -1q34 -1 46 -1q6 0 39 1t39 1q35 12 129 12h28q4 0 8.5 -4.5t4.5 -7.5v-457h213l14 311q0 9 14 97q4 39 35 39h141
q28 -4 35 -4h8q24 8 50 8q42 6 116 6q63 0 111 -6q9 -2 16.5 -5t12.5 -8.5t8.5 -9t6 -12.5t4 -13.5t4 -16.5t3.5 -17l-53 -1188q-1 -26 -12.5 -35t-38.5 -14q-95 -5 -234 -21q-124 -18 -155 -18h-45q-9 2 -19 12v53q-2 30 -3.5 119.5t-2.5 164.5t-2 77l-4 27h-27
q-85 0 -182 -19q0 -6 -1 -45.5t-1 -46.5q0 -12 -2 -72t-2 -110t4 -72q8 -36 8 -51q0 -10 -12.5 -18.5t-22.5 -8.5h-123q-50 -17 -57 -18q-16 -4 -88 -4q-22 -3 -63 -9.5t-74 -10t-64 -3.5h-26q-13 4 -13 14z" />
    <glyph glyph-name="i" unicode="i" horiz-adv-x="718" 
d="M172 8q-8 2 -14 4.5t-10.5 6.5t-7 6.5t-5 10t-3 10.5t-2.5 14.5t-3 15.5q-2 27 -5 131.5t-5.5 218t-3.5 131.5v150q0 18 -2.5 96t-4.5 149.5t-2 73.5q0 4 9 135q1 12 3 19t9 13t20 7l314 21h22q113 0 115 -29l-23 -1159q-1 -9 -27 -22t-38 -15h-68q-45 0 -133.5 6
t-134.5 6zM156 1315q-39 8 -43 65q0 15 -2 21q-4 26 -5.5 40t1 39t13 39t34.5 26.5t61 15.5q45 10 76 10h153q21 0 29 -4q10 0 14 -2q34 -6 52.5 -11.5t37 -20.5t21.5 -38q2 -10 7 -39t8 -51t3 -39v-14q-27 -32 -139 -37q-7 0 -57 -1t-60 -1q-1 0 -13 -0.5t-27 -1t-21 -0.5
q-86 0 -143 4z" />
    <glyph glyph-name="j" unicode="j" horiz-adv-x="950" 
d="M154 106q-38 29 -67 82.5t-40 104.5q-3 1 -4 3.5t-1 4.5v5l1 3v10q14 28 20 43l66 99q1 1 22.5 25.5t32.5 43.5q0 1 1 2.5t1 2.5q12 23 23.5 33.5t23.5 -3.5q11 -24 23 -46t27 -45.5t30 -40t30 -27.5t30 -9.5t28 15.5q21 24 21 49q8 56 8 110l8 611q0 35 25 39
q66 -1 178.5 1.5t157.5 2.5q39 0 57.5 -10t24.5 -44q3 -17 6 -86.5t-1 -243t-20 -380.5q-1 -3 -5.5 -38t-11 -79t-9.5 -63q-21 -138 -118 -214.5t-239 -76.5q-95 0 -166 27.5t-163 88.5zM457 1303q-21 7 -28 23.5t-9 43.5q0 15 -2 21q-4 27 -5.5 42.5t1 40.5t12 39.5t31 27
t55.5 15.5q44 11 68 11h139q22 0 26 -4q11 0 15 -2q31 -6 48 -11.5t33 -21t19 -39.5q1 -13 9 -61t8 -72v-15q-26 -33 -127 -38q-6 0 -51 -1.5t-54 -1.5q-1 0 -12.5 -0.5t-25.5 -1t-19 -0.5q-65 0 -131 5z" />
    <glyph glyph-name="k" unicode="k" horiz-adv-x="1296" 
d="M117 -41q-3 51 -8 226.5t-5 226.5q-2 12 -2 262q0 221 2 260q11 377 0 461q0 20 46 20q78 20 382 -8q56 0 58 -25l4 -55v-401q2 0 6 4q82 133 96 221l97 256q4 2 4 4l8 4h264q21 6 98 17h25q21 0 33.5 -5.5t18 -19.5t7 -26t2.5 -38q0 -1 1 -27t1 -36q0 -41 -12 -83.5
t-37 -88t-45.5 -77t-56 -82t-49.5 -70.5q-40 -61 -100 -105.5t-148 -93.5l6 -2q159 -47 225 -137q1 -1 5.5 -6.5t5.5 -6.5q6 -12 47 -76.5t53 -103.5q4 -13 14.5 -49t15 -51.5t12.5 -47t11.5 -52.5t6.5 -48.5t3 -52.5v-22q-13 -19 -62 -23t-94.5 -1t-80.5 -7q-14 0 -94 -2
t-95 -2q-11 -1 -33 -4.5t-36 -3.5q-23 0 -33 12q-3 10 -18 72.5t-22 86t-22.5 71.5t-33.5 81.5t-41 63.5l-8 -357l-4 -4q-6 -4 -14 -6t-19.5 -3t-14.5 -1q-33 -6 -133.5 -19.5t-156.5 -27.5h-68q-4 0 -12 8z" />
    <glyph glyph-name="l" unicode="l" horiz-adv-x="800" 
d="M106 20q-4 144 -4 238v31l31 682q0 5 5 83.5t11.5 173.5t10.5 130q0 1 0.5 11t1.5 14t2 13.5t3.5 14t6 10.5t8.5 8.5t11 2.5h120q1 0 10 2t11 2q16 1 68.5 6.5t76.5 5.5h41q23 0 79 -6.5t56 -14.5l-49 -1005q0 -6 10 -6q16 0 49.5 11t51.5 11h26q12 -4 17 -12v-41
q0 -63 -3.5 -175.5t-4.5 -146.5q-12 -16 -84.5 -25t-116.5 -9q-168 -7 -311 -4q-13 -1 -44 -7t-49 -6h-26q-10 0 -15 8z" />
    <glyph glyph-name="m" unicode="m" horiz-adv-x="1738" 
d="M68 14q-5 42 -5 133q5 30 5 46l122 1155q-6 39 14.5 62.5t51.5 23.5q16 0 20 -4l422 -433q10 -16 55.5 -69.5t61.5 -69.5q1 0 3.5 2t4.5 2q16 32 17 35l297 410q10 7 36 36.5t33 40.5q10 11 26 33t25 32t27 18.5t41 7.5h29q28 -26 51 -63.5t32.5 -60.5t28 -78t23.5 -69
q11 -21 22 -67q2 -8 14.5 -83t14.5 -83q0 -2 25 -104.5t26 -116.5q9 -37 28.5 -164.5t22.5 -165.5q0 -20 4 -81t7 -79q2 -29 12.5 -92.5t9.5 -104.5q0 -10 -5 -19.5t-17 -8.5l-383 -31q-1 0 -22 -3t-23 -3h-19q-50 0 -53 41l-10 166l6 444l-8 17l-6 -13q-145 -252 -248 -391
q-12 -16 -45 -16q-19 1 -38 12.5t-30 24t-27 33.5t-22 28q-30 31 -93.5 86.5t-78.5 69.5q0 -83 -4 -119q-1 -50 1.5 -160.5t0.5 -169.5v-6q0 -5 -2 -18l-2 -13q-7 -18 -74 -18q-111 -6 -215 -6q-25 2 -92 2q-5 1 -35.5 4t-36.5 4q-18 0 -26 14z" />
    <glyph glyph-name="n" unicode="n" horiz-adv-x="1310" 
d="M123 -10q-21 268 -21 346v141v158q6 279 21 672q6 6 6 24q0 1 -3 6t-3 6q1 3 9 10t11 9q29 0 82.5 4t79.5 4h31l26 -8l134 -19q23 -4 32 -22q5 0 13 -25q23 -53 64.5 -153.5t77 -179.5t73.5 -148l4 21v141q0 32 12 362q6 10 18.5 15.5t31 9.5t24.5 6h131q31 8 76 8
q25 0 71 -6.5t68 -7.5q2 0 9 -4.5t7 -7.5v-39l-82 -795q0 -3 -1.5 -60t-3.5 -132t-3 -109v-121q-4 -14 -12 -16q-23 -14 -74.5 -35.5t-75.5 -36.5l-8 -6h-55q-15 0 -33.5 27t-19.5 28q-2 4 -49 52q-10 12 -20 25.5t-18 22t-22 19.5q-1 2 -16 10l-15 9l-34 34q-8 12 -59 75
t-60 75l-35 29h-4q-7 -194 -4 -351q-6 -14 -18 -22t-22.5 -9.5t-29.5 -3t-28 -2.5q-26 -4 -76 -7.5t-89 -10t-75 -20.5h-14q-23 0 -29 8z" />
    <glyph glyph-name="o" unicode="o" horiz-adv-x="1339" 
d="M70 473q-7 42 -7 90q-12 281 60 451q7 17 40.5 79.5t45.5 82.5q105 138 285.5 200t375.5 41h4q91 0 177 -53q26 -13 34 -21q25 -17 46.5 -45t30.5 -44t29 -59.5t23 -49.5q1 -1 3.5 -6t3.5 -6q3 -16 20.5 -75.5t24.5 -80.5q1 -7 3 -49t3 -49q0 -18 2 -55.5t3 -61
t-0.5 -55.5t-6.5 -58q-30 -162 -71.5 -272.5t-125.5 -212.5q-65 -80 -183 -123t-237 -43h-53q-9 2 -123 18q-3 0 -12 2t-10 2q-101 21 -156 62.5t-119 134.5q-14 21 -47 94l-37 74q-1 1 -3 6t-3 6q0 16 -20 76zM489 645q2 -39 16.5 -82t38.5 -82t63 -64.5t85 -25.5
q3 0 15.5 1t15.5 1q82 30 136.5 143.5t49.5 206.5q-2 43 -14.5 88.5t-35 91t-62 74.5t-90.5 29t-95 -44t-70 -106.5t-40.5 -125t-12.5 -105.5z" />
    <glyph glyph-name="p" unicode="p" horiz-adv-x="1275" 
d="M113 377l-11 88v694q0 73 11 213q0 50 18 60q63 0 186.5 11t227.5 17t219 2.5t208.5 -35.5t149.5 -94q0 -1 1 -2t1 -2q58 -64 84.5 -126t26.5 -144q0 -140 -46.5 -247t-132 -175t-194 -106t-244.5 -52v-8q0 -13 7 -38t8 -32q0 -8 3.5 -49.5t4.5 -48.5q4 -22 12.5 -59
t12.5 -65.5t4 -59.5q0 -127 -52 -127h-198q-9 -3 -45.5 -9t-46.5 -6h-35h-43q-1 0 -13.5 2.5t-13.5 2.5q-9 1 -21.5 1.5t-18.5 1.5l-15 2.5t-16.5 5.5t-16.5 11l-10 10zM627 1104v-293q121 27 121 172v47q-12 47 -46.5 86t-78.5 39q0 -23 4 -51z" />
    <glyph glyph-name="q" unicode="q" horiz-adv-x="1523" 
d="M422 -129q-70 24 -139 59q-3 3 -22 15t-23 14l-12 1q-12 1 -26.5 2t-21.5 1q-47 0 -47 12q0 17 49 38.5t72 23.5q12 1 78 7t78 7l14 4q-100 42 -158 92q-90 101 -110 119q-21 25 -37 61t-21.5 56.5t-15.5 74t-12 62.5q-7 21 -7 33v207q0 17 4.5 39.5t8.5 36.5t13 41
t11 34q7 20 17.5 42t18 36.5t24.5 41.5t22 34.5l26 39l23 34.5q67 101 161 167t192 91t201.5 27.5t194.5 -19t164 -54t118 -71.5q13 -8 24 -19t25 -29t18 -22q6 -4 47 -45q5 -7 10.5 -20t10.5 -29t6 -20q0 -1 6 -12t11.5 -21.5t6.5 -13.5q3 -11 5 -13q17 -75 32 -121v-10
q0 -117 -10 -174q0 -13 -8 -37q-4 -12 -21 -58.5t-29.5 -82.5t-15.5 -43q-23 -59 -59 -112t-70 -90.5t-89.5 -81.5t-93.5 -69.5t-105 -68.5q-50 -33 -166 -65q201 -13 288 -31q24 -7 35.5 -17t11.5 -32q0 -17 -53 -65t-61 -62q-46 -69 -74 -125q-1 -6 -4.5 -13.5
t-10.5 -15.5t-14 -8h-51q-12 0 -37.5 22.5t-29.5 24.5zM563 657q0 -60 35 -103.5t94 -43.5q97 0 183.5 72.5t107.5 183.5v16q-16 72 -57.5 114t-116.5 75h-16q-28 0 -72 -19q-90 -42 -124 -113.5t-34 -181.5z" />
    <glyph glyph-name="r" unicode="r" horiz-adv-x="1183" 
d="M102 748v131q8 277 19 467q0 14 14 24q47 4 134 21t126 22q4 0 37.5 1t36.5 1q32 5 66 19q8 0 57 2t57 2h78h78q59 -11 98.5 -21.5t88 -32t77 -49t48.5 -73.5t20 -105q0 -113 -36 -244t-104 -190q-12 -12 -84 -68q-5 -4 -35.5 -19.5t-33.5 -23.5q136 -75 217.5 -211
t81.5 -290v-62q-19 -26 -41 -29q-34 -9 -120 -13t-169.5 -5t-95.5 -2q-11 -2 -15 -2q-21 0 -30 14q-3 11 -13.5 92t-13.5 91q-43 190 -110 251q0 -3 -1.5 -19t-1.5 -19q0 -44 4.5 -133t4.5 -134v-100q-11 -19 -82 -34t-111 -15q-52 0 -145 -6h-29h-3q-3 0 -6.5 -0.5t-8 -0.5
t-8.5 0.5t-7.5 1.5t-5.5 3t-2 4l-10 55q-2 11 -10 235t-11 339v125zM508 969q0 -133 4 -172q4 -13 4 -15q1 0 7 -1t7 -1q53 0 93 43t57.5 97.5t17.5 105.5q0 39 -17 70.5t-52 31.5q-26 0 -67.5 -13t-53.5 -30v-116z" />
    <glyph glyph-name="s" unicode="s" horiz-adv-x="1110" 
d="M41 244v53q0 23 1.5 44t5 45t6 37.5t9 44.5t9.5 44q0 7 0.5 12.5t1 10.5t4.5 8.5t12 5.5q17 0 107.5 2t105.5 2h62h49q49 0 49 -27q0 -26 -8.5 -76t-8.5 -75v-37q0 -5 5 -23t10 -18t14 3.5t17 7.5l10 5q43 25 62.5 76.5t19.5 108.5q0 23 -3 42t-11.5 33.5t-15.5 25
t-22.5 19t-25.5 13.5t-32 9.5t-34 6.5t-38.5 6t-39.5 6q-2 1 -10.5 3.5t-16 4.5t-9.5 3q-14 3 -78 22.5t-74 22.5q-40 14 -66 48t-36 85t-12.5 85t-2.5 83q0 133 64 207q77 85 157.5 126.5t210.5 75.5q33 11 54 11h184q2 0 11 -2.5t19.5 -5t14.5 -3.5q58 -13 95 -24
t74 -28.5t58.5 -39t38.5 -54t24 -75t7 -100.5q0 -87 -12 -148q-1 -1 -4.5 -17t-3.5 -19v-21q-4 -12 -34.5 -19t-67.5 -11.5t-44 -6.5h-51h-51q-28 0 -60 9t-32 30q0 13 5 40t5 42q0 58 -27 76h-24q-101 0 -101 -117q0 -59 17 -80q10 -6 12 -10q3 -1 47 -16q18 -5 61 -14
t70.5 -16.5t63.5 -20t63.5 -32.5t46.5 -46q0 -1 3 -6t6 -10.5t4 -8.5q12 -24 26 -59v-58q0 -125 -47 -252l-8 -16q-34 -60 -75.5 -112.5t-94.5 -99.5t-118 -74t-132 -27q-410 0 -471 260z" />
    <glyph glyph-name="t" unicode="t" horiz-adv-x="1093" 
d="M260 -4q0 7 4 39q-2 44 -3.5 185.5t-0.5 176.5q1 13 4.5 206t5.5 228q0 27 15 117v60v59q-149 -22 -162 -23h-29h-33q-15 7 -16 11q-4 31 -4 84q0 43 1 127t1 125q0 22 59 22q30 0 48 -4h204q5 -1 36 -4t36 -4h6q60 0 177 2t175 2h37q171 -13 180 -14q34 -4 43 -21t9 -55
v-19l-27 -239q-2 -22 -61 -29h-91q-22 0 -65 2t-64 2h-4l-20 -1014q0 -11 -27 -18l-401 -25q-33 0 -33 21z" />
    <glyph glyph-name="u" unicode="u" horiz-adv-x="1415" 
d="M61 698q0 12 1 54.5t1 44.5l13 602v4q4 33 22 35q31 4 71 5.5t72 0.5t70 0q10 0 98.5 2t98.5 2h31h30l8 -4q8 -4 14.5 -8.5t6.5 -8.5v-4q-61 -397 -61 -700v-35q0 -13 1 -74.5t1 -70.5q5 -35 17 -70t39.5 -66.5t63.5 -31.5q34 0 57.5 34t31.5 70q18 71 22 101
q37 317 29 821q4 11 18 18.5t27 7.5q193 -18 382 -31q85 -6 99.5 -9.5t17.5 -18.5v-2v-2l5 -12q6 -94 6 -158v-43l-39 -442q0 -1 -1 -3t-1 -4q-14 -107 -33 -178q-25 -119 -55.5 -199t-84 -148t-136.5 -109.5t-203 -63.5h-78q-104 0 -185.5 15.5t-168.5 54.5q-66 30 -117 70
t-84 89t-55 100t-33 115t-15 121t-4 129z" />
    <glyph glyph-name="v" unicode="v" horiz-adv-x="1374" 
d="M53 1339l-12 31q0 33 80 39q9 1 89 9t87 9q135 19 180 19q31 0 52.5 -12t21.5 -39v-4q-7 -65 96 -719l162 714q3 14 13.5 21.5t20.5 8.5t29 1h7h36q32 0 302 -12q29 0 60 -7t40 -24l4 -12q0 -1 5.5 -9t6.5 -12l-459 -1222q0 -10 -38 -86q-12 -33 -41 -33h-254
q-16 -4 -45 -4q-43 0 -47 16z" />
    <glyph glyph-name="w" unicode="w" horiz-adv-x="1771" 
d="M776 612q-135 -325 -236.5 -466t-166.5 -146q-49 -3 -66 51l-18 53l-248 1289l4 4l418 33h74q27 -9 36 -23v-233q5 -260 5 -355l6 -2l247 373q35 51 78 51q44 0 64 -45q7 -21 43 -119t41 -112q4 -9 43 -89.5t43 -89.5q5 -8 16 -38t12 -39h7l63 505q0 8 35 152q7 38 57 41
q22 1 128 7t120 7h59h60q1 0 5 -1.5t8 -3.5l8 -4t6.5 -4.5t1.5 -4.5l-271 -1151q0 -1 -7 -23.5t-15.5 -48l-12.5 -37.5q-24 -71 -39 -82q-51 -65 -106 -65q-44 -1 -92.5 35t-89 93t-73 111.5t-59 104.5t-32.5 59q-8 13 -48 74.5t-57 83.5q-22 33 -24 35l-21 20h-6z" />
    <glyph glyph-name="x" unicode="x" horiz-adv-x="1468" 
d="M41 80q0 5 9.5 19t10.5 16q2 2 15 18.5t16 18.5l316 548l73 101v8q0 9 -45 109q-3 7 -33 67q-84 134 -98 154q-2 7 -53 112q-25 52 -25 90q0 33 6 44t35 14q12 1 96.5 6t100.5 6h104h101q32 -2 37 -55l122 -238l226 301q7 11 39 11q15 0 34 -12.5t31 -14.5l209 -47
q59 -15 59 -37q0 -8 -4 -12l-385 -615q-4 -6 -4 -12v-4l285 -621q0 -13 -10.5 -28t-24.5 -15l-293 -12q-17 -1 -53 -6.5t-57 -5.5q-51 0 -62 35q-2 4 -30.5 98t-28.5 98q-10 25 -37 74t-33 49h-2l-237 -315q-24 -27 -62 -27q-24 0 -87 18.5t-73 20.5q-84 14 -100 16
q-3 0 -29.5 2t-29.5 2q-29 6 -29 21z" />
    <glyph glyph-name="y" unicode="y" horiz-adv-x="1300" 
d="M57 29q-16 3 -16 14q0 4 7.5 19t8.5 18q3 6 21.5 45t21.5 45l213 555l35 74v12q-30 42 -58.5 95.5t-43.5 88t-43.5 104.5t-38.5 95q-6 14 -20.5 41.5t-22.5 49.5t-8 44v12l8 9q22 1 132 15t116 15q3 0 30 6.5t29 6.5q1 0 18 1t23 1q3 0 19 -1t18 -1q32 -4 60.5 -35.5
t42 -62t24.5 -64.5q4 -13 19 -59t24 -70q1 -1 2 -3t2 -3.5t2 -1.5l139 290q7 13 49 13h9q8 -1 84 -12t90 -13q3 0 10 -1t10 -1q112 -11 174 -39q13 -9 13 -14q0 -7 -16 -13.5t-13 -23.5l-336 -526l-320 -607l-57 -88q-17 -26 -33 -26q-62 -8 -209 -8q-143 0 -219 4z" />
    <glyph glyph-name="z" unicode="z" horiz-adv-x="1148" 
d="M979 16l-852 15q-2 0 -5 2.5t-3 5.5v92v90q0 19 3 119t3 117l8 8q1 1 18 17t19 18q6 5 36.5 40t33.5 38l247 247l99 119l-498 21q-9 0 -14 8q0 16 -11 71l-2 37v228q0 25 3 41t14.5 30t32.5 15l905 -13q9 -4 14.5 -10t7 -9.5t4.5 -14t5 -15.5q0 -9 1 -63t1 -64
q0 -15 -0.5 -46t-1 -56t-0.5 -27q0 -22 -7 -59.5t-8 -50.5q-2 -18 -17.5 -51t-54.5 -93t-124 -162.5t-205 -230.5h12q28 0 77 7.5t64 8.5q3 0 32.5 3.5t33.5 3.5q10 0 79 9t75 9q2 2 36 2q31 0 33 -2q4 0 14 -10v-21v-16q0 -8 -3 -64t-3 -61q0 -182 2 -215q4 -8 4 -29v-6
q0 -6 -4.5 -10.5t-13.5 -7.5t-18 -5.5t-21.5 -4t-20 -2.5t-18.5 -2t-12 -1z" />
    <glyph glyph-name="Agrave" unicode="&#xc0;" 
d="M41 18l405 1282q9 63 44.5 83.5t119.5 23.5q7 1 52 2t100.5 2t75.5 2h73h76q37 -9 73 -53.5t56.5 -89t28.5 -78.5l182 -801l45 -297v-63q0 -10 -37.5 -18.5t-52.5 -8.5q-61 0 -174.5 9t-165.5 10q-17 4 -20 18l-43 270q-16 -6 -48 -8.5t-56.5 -2.5t-64.5 0.5t-48 0.5
q-75 0 -107 -4q-20 -107 -49 -229q0 -3 -2 -18.5t-2 -18.5q-4 -5 -10 -9t-11 -5.5t-14.5 -4.5t-13.5 -4q-26 0 -184.5 -4t-186.5 -4h-2q-8 0 -23.5 6.5t-15.5 11.5zM647 616l19 -6h159l-69 441h-8zM922 1610l41 -70v-2q-11 -12 -17 -12q-4 -6 -20 -6h-4q-25 0 -37 6
q-51 0 -99 6q-14 3 -22 14l-2 2q-5 4 -20.5 22t-16.5 19l-139 140q-2 1 -2 14q0 4 2.5 8t5.5 7t8.5 6t9 4.5t10 4t7.5 3.5q5 0 22 4l17 4q5 0 22.5 3.5t18.5 4.5q3 0 19.5 5t18.5 5h13q11 0 20 -4.5t13 -9t11.5 -15t10.5 -14.5z" />
    <glyph glyph-name="Aacute" unicode="&#xc1;" 
d="M41 18l405 1282q9 63 44.5 83.5t119.5 23.5q7 1 52 2t100.5 2t75.5 2h73h76q37 -9 73 -53.5t56.5 -89t28.5 -78.5l182 -801l45 -297v-63q0 -10 -37.5 -18.5t-52.5 -8.5q-61 0 -174.5 9t-165.5 10q-17 4 -20 18l-43 270q-16 -6 -48 -8.5t-56.5 -2.5t-64.5 0.5t-48 0.5
q-75 0 -107 -4q-20 -107 -49 -229q0 -3 -2 -18.5t-2 -18.5q-4 -5 -10 -9t-11 -5.5t-14.5 -4.5t-13.5 -4q-26 0 -184.5 -4t-186.5 -4h-2q-8 0 -23.5 6.5t-15.5 11.5zM647 616l19 -6h159l-69 441h-8zM582 1540l41 70l108 149q3 4 10.5 14.5t11.5 15t13 9t20 4.5h13q2 0 19 -5
t20 -5q1 -1 18.5 -4.5t22.5 -3.5l17 -4q17 -4 22 -4q1 -1 7.5 -3.5t10 -4t9 -4.5t8.5 -6t5.5 -7t2.5 -8q0 -13 -3 -14l-139 -140q-1 -1 -16.5 -19t-20.5 -22l-2 -2q-8 -11 -22 -14q-48 -6 -99 -6q-12 -6 -36 -6h-5q-16 0 -20 6q-3 0 -7 3t-7 6l-2 3v2z" />
    <glyph glyph-name="Acircumflex" unicode="&#xc2;" 
d="M41 18l405 1282q9 63 44.5 83.5t119.5 23.5q7 1 52 2t100.5 2t75.5 2h73h76q37 -9 73 -53.5t56.5 -89t28.5 -78.5l182 -801l45 -297v-63q0 -10 -37.5 -18.5t-52.5 -8.5q-61 0 -174.5 9t-165.5 10q-17 4 -20 18l-43 270q-16 -6 -48 -8.5t-56.5 -2.5t-64.5 0.5t-48 0.5
q-75 0 -107 -4q-20 -107 -49 -229q0 -3 -2 -18.5t-2 -18.5q-4 -5 -10 -9t-11 -5.5t-14.5 -4.5t-13.5 -4q-26 0 -184.5 -4t-186.5 -4h-2q-8 0 -23.5 6.5t-15.5 11.5zM647 616l19 -6h159l-69 441h-8zM592 1534q-30 6 -70 6h-2q-45 6 -45 25q0 5 27 41q11 11 74.5 82.5
t76.5 85.5q1 3 16.5 21.5t18.5 21.5q1 1 9.5 9t16.5 15.5t11 11.5q15 15 20 15h37q9 0 25 -12.5t34.5 -31l20.5 -20.5q11 -15 58 -62t69 -67q36 -56 72 -92q0 -1 1 -3t1 -3q0 -8 -18 -12.5t-40.5 -6.5t-27.5 -4h-121q-4 -2 -29 -2q-18 0 -33 9.5t-22.5 20t-17.5 28.5
q-1 1 -2 4t-2 4q-14 -11 -35.5 -50.5t-46.5 -49.5h-17q-11 0 -20.5 2.5t-21 7t-17.5 6.5z" />
    <glyph glyph-name="Atilde" unicode="&#xc3;" 
d="M41 18l405 1282q9 63 44.5 83.5t119.5 23.5q7 1 52 2t100.5 2t75.5 2h73h76q37 -9 73 -53.5t56.5 -89t28.5 -78.5l182 -801l45 -297v-63q0 -10 -37.5 -18.5t-52.5 -8.5q-61 0 -174.5 9t-165.5 10q-17 4 -20 18l-43 270q-16 -6 -48 -8.5t-56.5 -2.5t-64.5 0.5t-48 0.5
q-75 0 -107 -4q-20 -107 -49 -229q0 -3 -2 -18.5t-2 -18.5q-4 -5 -10 -9t-11 -5.5t-14.5 -4.5t-13.5 -4q-26 0 -184.5 -4t-186.5 -4h-2q-8 0 -23.5 6.5t-15.5 11.5zM647 616l19 -6h159l-69 441h-8zM629 1790q16 0 31.5 -3.5t33 -12.5t26.5 -13.5t30 -19t26 -17.5t17.5 -12
t19.5 -13.5t18.5 -8.5t22.5 -4q20 0 35 18t22 40t19.5 40t30.5 18q15 0 20 -6q66 0 76 -2q7 0 20 -4.5t13 -11.5v-4l-37 -129q-23 -39 -25 -41q-35 -37 -65.5 -49.5t-81.5 -12.5q-146 0 -224 84h-2q-8 0 -16.5 -18t-11.5 -29q-1 -7 -1.5 -17t-1 -13.5t-3.5 -8t-9 -5.5
t-16 -1q-29 0 -57 12q-5 0 -31.5 9.5t-36.5 15.5q-16 6 -16 8v57q0 16 22 60q11 27 37 57q23 24 48 30.5t67 6.5z" />
    <glyph glyph-name="Adieresis" unicode="&#xc4;" 
d="M41 18l405 1282q9 63 44.5 83.5t119.5 23.5q7 1 52 2t100.5 2t75.5 2h73h76q37 -9 73 -53.5t56.5 -89t28.5 -78.5l182 -801l45 -297v-63q0 -10 -37.5 -18.5t-52.5 -8.5q-61 0 -174.5 9t-165.5 10q-17 4 -20 18l-43 270q-16 -6 -48 -8.5t-56.5 -2.5t-64.5 0.5t-48 0.5
q-75 0 -107 -4q-20 -107 -49 -229q0 -3 -2 -18.5t-2 -18.5q-4 -5 -10 -9t-11 -5.5t-14.5 -4.5t-13.5 -4q-26 0 -184.5 -4t-186.5 -4h-2q-8 0 -23.5 6.5t-15.5 11.5zM647 616l19 -6h159l-69 441h-8zM803 1554v21v18q0 51 10 93q2 12 8 19.5t16.5 10t18 3.5t23 0t20.5 -1
q162 0 162 -100q0 -39 -8 -53q-50 -58 -146 -58h-26q-15 4 -66 29q-12 6 -12 18zM498 1528q-2 31 -2 110q0 25 2 45q9 15 39 23q5 0 35.5 3t35.5 3h19q104 0 104 -47v-111q0 -21 -37 -32q-30 -6 -73 -6l-14 -2q-14 -1 -19 -1l-35 3q-1 0 -9.5 -0.5t-14 0t-12.5 1.5t-12 3.5
t-7 7.5z" />
    <glyph glyph-name="Aring" unicode="&#xc5;" 
d="M41 18l405 1282q9 63 44.5 83.5t119.5 23.5q7 1 52 2t100.5 2t75.5 2h73h76q37 -9 73 -53.5t56.5 -89t28.5 -78.5l182 -801l45 -297v-63q0 -10 -37.5 -18.5t-52.5 -8.5q-61 0 -174.5 9t-165.5 10q-17 4 -20 18l-43 270q-16 -6 -48 -8.5t-56.5 -2.5t-64.5 0.5t-48 0.5
q-75 0 -107 -4q-20 -107 -49 -229q0 -3 -2 -18.5t-2 -18.5q-4 -5 -10 -9t-11 -5.5t-14.5 -4.5t-13.5 -4q-26 0 -184.5 -4t-186.5 -4h-2q-8 0 -23.5 6.5t-15.5 11.5zM647 616l19 -6h159l-69 441h-8zM557 1710q0 70 41.5 119.5t112.5 68.5q15 5 22 5q8 4 43 4q42 0 66 6h10
q49 0 96 -35q7 -5 19 -39.5t16 -52.5l1 -11q1 -11 1 -14q0 -42 -16 -92q-11 -25 -49 -59q-12 -17 -35 -29q-77 -51 -148 -51q-131 0 -180 162v18zM686 1673q18 -31 45 -31q62 0 94.5 39.5t32.5 83.5q0 57 -74 43h-4h-4q0 -2 -7 -5t-14.5 -6t-9.5 -5q-35 -11 -47 -34t-12 -58
v-27z" />
    <glyph glyph-name="AE" unicode="&#xc6;" horiz-adv-x="1828" 
d="M1657 2l-815 43l6 256q-25 -2 -58.5 -2t-69 1t-46.5 1q-75 0 -107 -4q-26 -87 -78 -229q0 -3 -4 -18.5t-4 -18.5q-4 -5 -11 -9t-12 -5.5t-14.5 -4.5t-13.5 -4q-26 0 -185 -4t-186 -4h-2q-7 0 -22 6.5t-15 11.5l562 1282q16 63 54.5 83.5t123.5 23.5h10q187 4 922 14h75
q5 -2 13 -9t8 -11q0 -8 -1 -54.5t-1.5 -79.5t0.5 -55q-1 -10 -1 -36.5t-2 -43t-7 -38.5t-17.5 -36.5t-32.5 -21.5h-104q-51 0 -154 2t-155 2v-120q47 0 140 1t140 1q58 0 99 -2q20 -7 25 -17t5 -35v-20l-16 -191q0 -2 -4.5 -17.5t-10 -37t-8.5 -35.5q-5 -22 -10.5 -30.5
t-23.5 -14.5q-156 0 -367 4q0 -8 -2 -52.5t-2 -51.5v-29l414 -26q3 0 11.5 -8.5t10.5 -12.5v-190q0 -9 -5.5 -59.5t-6.5 -61.5v-6q-10 -23 -45 -27zM698 616l19 -6h137l6 441h-8z" />
    <glyph glyph-name="Ccedilla" unicode="&#xc7;" horiz-adv-x="1271" 
d="M436 -348q0 14 8 14h76q32 0 68.5 32.5t36.5 63.5q0 19 -18 26.5t-39.5 8t-39.5 15.5t-18 47q0 4 1 10.5t1 9.5v2q0 1 -1 14t-1 15v67q-15 3 -31 6.5t-36.5 8.5t-32.5 8q-92 24 -167.5 101.5t-119 173t-60.5 198.5q0 8 -1 54t-1 53q0 273 105 491q73 154 158.5 227
t242.5 125q16 0 72 21q2 0 14 2t13 2h104q140 0 238 -24.5t176 -104.5q7 0 13.5 -4.5t6.5 -11.5v-5q-11 -34 -57 -152t-60 -153q-4 -13 -24.5 -56.5t-28.5 -55.5q-11 -11 -26 -11h-15q-20 7 -61.5 23.5t-65 25t-58.5 16t-67 7.5q-180 0 -211 -135v-66q0 -103 15.5 -169.5
t72.5 -116.5q62 -56 148 -56h18l74 17q39 17 86 33l170 100q10 4 33 4q37 0 45 -64q0 -9 5 -65.5t7 -65.5l23 -122q0 -23 4 -39v-4q0 -18 -19 -37l-38 -43q-8 -8 -36 -30t-36 -26q-10 -4 -73 -37t-77 -38q-17 -8 -34.5 -13.5t-41 -7.5t-34.5 -2.5t-42.5 0t-37.5 0.5h-60v-51
q85 6 125 -76q0 -8 4 -16l3 -13v-63q-1 -6 -3 -8q-27 -70 -75 -115.5t-127 -91.5q-38 -23 -68 -23q-32 0 -78.5 58.5t-46.5 91.5z" />
    <glyph glyph-name="Egrave" unicode="&#xc8;" horiz-adv-x="1089" 
d="M918 -2l-816 43l31 1266l6 49l13 8q217 53 800 53h76q5 -2 13 -9t8 -11q0 -8 -1 -54.5t-1.5 -79.5t0.5 -55q-1 -10 -1 -36.5t-2 -43t-7 -38.5t-17.5 -36.5t-32.5 -21.5h-104q-51 0 -154.5 2t-155.5 2v-121q47 0 140.5 1.5t140.5 1.5q36 0 98 -3q21 -7 26 -16.5t5 -34.5
v-20q-2 -16 -5.5 -58t-6.5 -84.5t-4 -48.5q0 -2 -4.5 -17.5t-10 -37t-8.5 -35.5q-5 -22 -11 -30.5t-24 -14.5q-155 0 -366 4q0 -8 -2 -52.5t-2 -51.5v-15v-14l399 -27h14q3 0 12 -8.5t11 -11.5v-94v-96q0 -9 -5.5 -59.5t-6.5 -61.5v-6q-10 -23 -45 -27zM741 1597l41 -69v-2
q-10 -13 -16 -13q-4 -6 -21 -6h-4q-24 0 -36 6q-43 0 -99 7q-14 3 -22 14l-2 2q-5 4 -20.5 22t-16.5 19l-139 139q-3 2 -3 15q0 5 3 9.5t8.5 8t10 5.5t12 5t9.5 4q5 0 22 5l17 4q5 0 22.5 3.5t18.5 4.5q3 0 20 5t19 5h13q11 0 20 -4.5t13 -9t11.5 -15t10.5 -14.5z" />
    <glyph glyph-name="Eacute" unicode="&#xc9;" horiz-adv-x="1089" 
d="M918 -2l-816 43l31 1266l6 49l13 8q217 53 800 53h76q5 -2 13 -9t8 -11q0 -8 -1 -54.5t-1.5 -79.5t0.5 -55q-1 -10 -1 -36.5t-2 -43t-7 -38.5t-17.5 -36.5t-32.5 -21.5h-104q-51 0 -154.5 2t-155.5 2v-121q47 0 140.5 1.5t140.5 1.5q36 0 98 -3q21 -7 26 -16.5t5 -34.5
v-20q-2 -16 -5.5 -58t-6.5 -84.5t-4 -48.5q0 -2 -4.5 -17.5t-10 -37t-8.5 -35.5q-5 -22 -11 -30.5t-24 -14.5q-155 0 -366 4q0 -8 -2 -52.5t-2 -51.5v-15v-14l399 -27h14q3 0 12 -8.5t11 -11.5v-94v-96q0 -9 -5.5 -59.5t-6.5 -61.5v-6q-10 -23 -45 -27zM401 1528l41 69
l109 150q3 4 10.5 14.5t11.5 15t13 9t20 4.5h12q2 0 19 -5t20 -5q1 -1 18.5 -4.5t22.5 -3.5l17 -4q17 -5 22 -5q2 -1 9.5 -4t12 -5t10 -5.5t8.5 -8t3 -9.5q0 -14 -2 -15l-139 -139q-1 -1 -16.5 -19t-20.5 -22l-2 -2q-8 -11 -22 -14q-56 -7 -99 -7q-12 -6 -37 -6h-4
q-16 0 -20 6q-3 0 -7 3.5t-7 6.5l-3 3v2z" />
    <glyph glyph-name="Ecircumflex" unicode="&#xca;" horiz-adv-x="1089" 
d="M918 -2l-816 43l31 1266l6 49l13 8q217 53 800 53h76q5 -2 13 -9t8 -11q0 -8 -1 -54.5t-1.5 -79.5t0.5 -55q-1 -10 -1 -36.5t-2 -43t-7 -38.5t-17.5 -36.5t-32.5 -21.5h-104q-51 0 -154.5 2t-155.5 2v-121q47 0 140.5 1.5t140.5 1.5q36 0 98 -3q21 -7 26 -16.5t5 -34.5
v-20q-2 -16 -5.5 -58t-6.5 -84.5t-4 -48.5q0 -2 -4.5 -17.5t-10 -37t-8.5 -35.5q-5 -22 -11 -30.5t-24 -14.5q-155 0 -366 4q0 -8 -2 -52.5t-2 -51.5v-15v-14l399 -27h14q3 0 12 -8.5t11 -11.5v-94v-96q0 -9 -5.5 -59.5t-6.5 -61.5v-6q-10 -23 -45 -27zM412 1522
q-30 6 -70 6h-2q-45 6 -45 24q0 5 27 41q11 11 74.5 82.5t76.5 85.5q1 3 16.5 21.5t18.5 21.5l37 37q14 14 20 14h37q9 0 24.5 -12t35 -31t20.5 -20q11 -15 58 -62t69 -67q36 -56 72 -92q0 -1 1 -3t1 -3q0 -8 -18 -12.5t-40.5 -6.5t-27.5 -4h-121q-4 -2 -29 -2q-43 0 -74 57
q-1 1 -2 4.5t-2 4.5q-14 -11 -35.5 -51t-46.5 -50h-16q-11 0 -21 2.5t-21 7.5t-17 7z" />
    <glyph glyph-name="Edieresis" unicode="&#xcb;" horiz-adv-x="1089" 
d="M918 -2l-816 43l31 1266l6 49l13 8q217 53 800 53h76q5 -2 13 -9t8 -11q0 -8 -1 -54.5t-1.5 -79.5t0.5 -55q-1 -10 -1 -36.5t-2 -43t-7 -38.5t-17.5 -36.5t-32.5 -21.5h-104q-51 0 -154.5 2t-155.5 2v-121q47 0 140.5 1.5t140.5 1.5q36 0 98 -3q21 -7 26 -16.5t5 -34.5
v-20q-2 -16 -5.5 -58t-6.5 -84.5t-4 -48.5q0 -2 -4.5 -17.5t-10 -37t-8.5 -35.5q-5 -22 -11 -30.5t-24 -14.5q-155 0 -366 4q0 -8 -2 -52.5t-2 -51.5v-15v-14l399 -27h14q3 0 12 -8.5t11 -11.5v-94v-96q0 -9 -5.5 -59.5t-6.5 -61.5v-6q-10 -23 -45 -27zM623 1542v21v18
q0 50 10 92q2 12 7.5 19.5t16.5 10.5t18 3.5t23.5 0t20.5 -0.5q162 0 162 -100q0 -38 -9 -54q-49 -57 -145 -57h-27q-13 3 -65 29q-12 6 -12 18zM317 1516q-2 31 -2 110q0 25 2 45q9 15 39 23q5 0 36 3t36 3h18q105 0 105 -47v-111q0 -11 -12 -20t-25 -13q-30 -6 -74 -6
l-14 -1q-13 -1 -18 -1l-35 2q-49 0 -56 13z" />
    <glyph glyph-name="Igrave" unicode="&#xcc;" horiz-adv-x="702" 
d="M102 31v20l45 1266l5 37q4 2 6 4q14 11 43 26q4 0 24 1t23 1q6 0 26 -1l19 -1q22 0 138.5 -3t135.5 -3q21 -9 33 -24v-41q0 -33 -4 -118t-12 -374.5t-17 -750.5q0 -2 -8 -10.5t-14 -12.5q-10 -10 -23 -10q-142 -37 -389 -37q-19 0 -25 5.5t-6 25.5zM537 1606l41 -70v-2
q-11 -12 -17 -12q-4 -6 -20 -6h-4q-25 0 -37 6q-51 0 -99 6q-14 3 -22 14l-2 2q-5 4 -20.5 22t-16.5 19l-139 139q-2 1 -2 15q0 4 2.5 8t5.5 7t8.5 6t9 4.5t10 4t7.5 3.5q5 0 22 4l17 4q5 0 22.5 3.5t18.5 4.5q3 0 19.5 5t18.5 5h13q11 0 20 -4.5t13 -9t11.5 -15t10.5 -14.5
z" />
    <glyph glyph-name="Iacute" unicode="&#xcd;" horiz-adv-x="702" 
d="M102 31v20l45 1266l5 37q4 2 6 4q14 11 43 26q4 0 24 1t23 1q6 0 26 -1l19 -1q22 0 138.5 -3t135.5 -3q21 -9 33 -24v-41q0 -33 -4 -118t-12 -374.5t-17 -750.5q0 -2 -8 -10.5t-14 -12.5q-10 -10 -23 -10q-142 -37 -389 -37q-19 0 -25 5.5t-6 25.5zM197 1536l41 70
l108 149q3 4 10.5 14.5t11.5 15t13 9t20 4.5h13q2 0 19 -5t20 -5q1 -1 18.5 -4.5t22.5 -3.5l16 -4q17 -4 22 -4q1 -1 7.5 -3.5t10 -4t9 -4.5t8.5 -6t5.5 -7t2.5 -8q0 -14 -2 -15l-139 -139q-1 -1 -16.5 -19t-20.5 -22l-2 -2q-8 -11 -22 -14q-48 -6 -99 -6q-12 -6 -36 -6h-5
q-16 0 -20 6q-3 0 -7 3t-6 6l-3 3v2z" />
    <glyph glyph-name="Icircumflex" unicode="&#xce;" horiz-adv-x="702" 
d="M102 31v20l45 1266l5 37q4 2 6 4q14 11 43 26q4 0 24 1t23 1q6 0 26 -1l19 -1q22 0 138.5 -3t135.5 -3q21 -9 33 -24v-41q0 -33 -4 -118t-12 -374.5t-17 -750.5q0 -2 -8 -10.5t-14 -12.5q-10 -10 -23 -10q-142 -37 -389 -37q-19 0 -25 5.5t-6 25.5zM207 1530q-30 6 -70 6
h-2q-45 6 -45 25q0 5 27 41q10 11 74 82t77 85q1 3 16.5 21.5t18.5 21.5l37 37q15 15 20 15h37q9 0 25 -12.5t34.5 -31l20.5 -20.5q11 -15 58 -62t69 -67q36 -56 72 -92q0 -1 1 -3t1 -3q0 -8 -18 -12.5t-40.5 -6.5t-27.5 -4h-121q-4 -2 -29 -2q-18 0 -33 9.5t-22.5 20
t-17.5 28.5q-1 1 -2 4t-2 4q-14 -11 -35.5 -51t-46.5 -50h-17q-11 0 -21 2.5t-21 7.5t-17 7z" />
    <glyph glyph-name="Idieresis" unicode="&#xcf;" horiz-adv-x="702" 
d="M102 31v20l45 1266l5 37q4 2 6 4q14 11 43 26q4 0 24 1t23 1q6 0 26 -1l19 -1q22 0 138.5 -3t135.5 -3q21 -9 33 -24v-41q0 -33 -4 -118t-12 -374.5t-17 -750.5q0 -2 -8 -10.5t-14 -12.5q-10 -10 -23 -10q-142 -37 -389 -37q-19 0 -25 5.5t-6 25.5zM418 1550v21v18
q0 50 10 92q2 12 7.5 19.5t16.5 10.5t18 3.5t23.5 0t20.5 -0.5q162 0 162 -100q0 -39 -8 -53q-50 -58 -146 -58h-26q-15 4 -66 29q-12 6 -12 18zM113 1524q-2 31 -2 110q0 25 2 45q9 15 39 23q5 0 35.5 3t35.5 3h19q104 0 104 -47v-111q0 -21 -37 -32q-35 -7 -73 -7l-14 -1
q-14 -1 -19 -1l-35 2q-48 0 -55 13z" />
    <glyph glyph-name="Eth" unicode="&#xd0;" horiz-adv-x="1376" 
d="M51 647q-1 10 -3.5 25.5t-4 24.5t-1 22.5t4.5 25.5q1 1 2.5 3t2 3t2.5 2t5 1l62 -2l10 596q1 28 105 57q172 48 387 38q339 -17 526 -184q207 -185 182 -532q-4 -59 -14.5 -118t-30 -124.5t-54 -124.5t-79.5 -98q-109 -97 -272.5 -174.5t-296.5 -77.5h-318l-145 15l-10 8
l8 608l-45 2q-11 0 -23 4zM561 946l-4 -207h57q18 0 25 -10v-92q-1 0 -8 -3t-8 -3h-68l-6 -275h4q80 0 148.5 31t111 80t67.5 104.5t29 108.5q1 5 3 37t3 37q-3 42 -9.5 77t-29.5 85.5t-59 85t-103 62t-157 30.5z" />
    <glyph glyph-name="Ograve" unicode="&#xd2;" horiz-adv-x="1292" 
d="M61 604q0 356 127 582q36 64 118.5 127t156.5 82q12 4 38.5 10t51 12t25.5 6q113 23 149 23q104 0 216.5 -38.5t168.5 -109.5q78 -100 90 -204l29 -240v-51v-58q-7 -82 -18 -151.5t-32.5 -147.5t-51 -140.5t-76 -120.5t-105.5 -96.5t-141 -61t-180 -21.5q-48 1 -88.5 4.5
t-95 13t-101 29.5t-92.5 50t-83 79t-61 111q-1 3 -3.5 10t-4.5 12.5t-2 6.5l-33 180l-1 43q-1 43 -1 59zM479 737q0 -44 5.5 -93t20 -108t46.5 -97t78 -38q37 0 74 40t51 81q7 15 24.5 64.5t20.5 62.5q1 3 5 18.5t5 18.5q6 32 6 123v88q-16 108 -89 140q-66 29 -135 -21
q-85 -63 -106 -202q-6 -37 -6 -77zM856 1647l41 -70v-2q-10 -12 -16 -12q-5 -7 -21 -7h-4q-23 0 -37 7q-50 0 -98 6q-15 3 -23 14l-2 2q-5 4 -20.5 22t-16.5 19l-139 139q-2 1 -2 15q0 5 3 9.5t8.5 8t10 5.5t12 5t9.5 4q5 0 22 4l17 5q5 0 22.5 3.5t18.5 4.5q3 0 20 5t19 5
h12q11 0 20 -4.5t13 -8.5t12.5 -15.5t10.5 -14.5z" />
    <glyph glyph-name="Oacute" unicode="&#xd3;" horiz-adv-x="1292" 
d="M61 604q0 356 127 582q36 64 118.5 127t156.5 82q12 4 38.5 10t51 12t25.5 6q113 23 149 23q104 0 216.5 -38.5t168.5 -109.5q78 -100 90 -204l29 -240v-51v-58q-7 -82 -18 -151.5t-32.5 -147.5t-51 -140.5t-76 -120.5t-105.5 -96.5t-141 -61t-180 -21.5q-48 1 -88.5 4.5
t-95 13t-101 29.5t-92.5 50t-83 79t-61 111q-1 3 -3.5 10t-4.5 12.5t-2 6.5l-33 180l-1 43q-1 43 -1 59zM479 737q0 -44 5.5 -93t20 -108t46.5 -97t78 -38q37 0 74 40t51 81q7 15 24.5 64.5t20.5 62.5q1 3 5 18.5t5 18.5q6 32 6 123v88q-16 108 -89 140q-66 29 -135 -21
q-85 -63 -106 -202q-6 -37 -6 -77zM516 1577l41 70l109 149q3 4 10.5 14.5t11.5 15t13 9t20 4.5h12q2 0 19 -5t20 -5q1 -1 18.5 -4.5t22.5 -3.5l17 -5q17 -4 22 -4q2 -1 9.5 -4t12 -5t10 -5.5t8.5 -8t3 -9.5q0 -14 -2 -15l-139 -139q-1 -1 -16.5 -19t-20.5 -22l-2 -2
q-8 -11 -23 -14q-48 -6 -98 -6q-14 -7 -37 -7h-4q-16 0 -21 7q-3 0 -7 3t-7 6l-2 3v2z" />
    <glyph glyph-name="Ocircumflex" unicode="&#xd4;" horiz-adv-x="1292" 
d="M61 604q0 356 127 582q36 64 118.5 127t156.5 82q12 4 38.5 10t51 12t25.5 6q113 23 149 23q104 0 216.5 -38.5t168.5 -109.5q78 -100 90 -204l29 -240v-51v-58q-7 -82 -18 -151.5t-32.5 -147.5t-51 -140.5t-76 -120.5t-105.5 -96.5t-141 -61t-180 -21.5q-48 1 -88.5 4.5
t-95 13t-101 29.5t-92.5 50t-83 79t-61 111q-1 3 -3.5 10t-4.5 12.5t-2 6.5l-33 180l-1 43q-1 43 -1 59zM479 737q0 -44 5.5 -93t20 -108t46.5 -97t78 -38q37 0 74 40t51 81q7 15 24.5 64.5t20.5 62.5q1 3 5 18.5t5 18.5q6 32 6 123v88q-16 108 -89 140q-66 29 -135 -21
q-85 -63 -106 -202q-6 -37 -6 -77zM526 1571q-30 6 -69 6h-2q-45 6 -45 25q0 5 26 40q10 11 74.5 82t77.5 86q1 3 16.5 21.5t18.5 21.5q33 33 36 37q15 15 21 15h37q9 0 25 -12.5t34.5 -31l20.5 -20.5q11 -15 58 -62t69 -67q38 -59 71 -92q0 -1 1 -3t1 -3q0 -8 -18 -12.5
t-40.5 -6.5t-27.5 -4h-120q-4 -2 -29 -2q-26 0 -42.5 15t-31.5 43q-1 1 -2 4t-2 4q-14 -11 -35.5 -51t-46.5 -50h-16q-11 0 -21 2.5t-21.5 7.5t-17.5 7z" />
    <glyph glyph-name="Otilde" unicode="&#xd5;" horiz-adv-x="1292" 
d="M61 604q0 356 127 582q36 64 118.5 127t156.5 82q12 4 38.5 10t51 12t25.5 6q113 23 149 23q104 0 216.5 -38.5t168.5 -109.5q78 -100 90 -204l29 -240v-51v-58q-7 -82 -18 -151.5t-32.5 -147.5t-51 -140.5t-76 -120.5t-105.5 -96.5t-141 -61t-180 -21.5q-48 1 -88.5 4.5
t-95 13t-101 29.5t-92.5 50t-83 79t-61 111q-1 3 -3.5 10t-4.5 12.5t-2 6.5l-33 180l-1 43q-1 43 -1 59zM479 737q0 -44 5.5 -93t20 -108t46.5 -97t78 -38q37 0 74 40t51 81q7 15 24.5 64.5t20.5 62.5q1 3 5 18.5t5 18.5q6 32 6 123v88q-16 108 -89 140q-66 29 -135 -21
q-85 -63 -106 -202q-6 -37 -6 -77zM563 1827q16 0 31.5 -3t34 -12.5t26 -14t30.5 -19.5t26 -17q6 -4 17.5 -12.5t19 -13.5t18.5 -9t22 -4q20 0 35 18.5t22 40t19.5 40t30.5 18.5q15 0 20 -6q66 0 76 -2q7 0 20 -4.5t13 -11.5v-5l-37 -129l-9 -17q-10 -18 -15 -24
q-35 -36 -65.5 -48.5t-82.5 -12.5q-145 0 -223 84h-2q-8 0 -17 -18t-12 -29q-1 -7 -1.5 -17t-1 -13.5t-3.5 -8t-9 -5.5t-16 -1q-29 0 -57 12q-5 0 -31 9.5t-36 15.5q-17 6 -17 8v57q0 14 23 60q11 27 37 57q23 24 47.5 30.5t66.5 6.5z" />
    <glyph glyph-name="Odieresis" unicode="&#xd6;" horiz-adv-x="1292" 
d="M61 604q0 356 127 582q36 64 118.5 127t156.5 82q12 4 38.5 10t51 12t25.5 6q113 23 149 23q104 0 216.5 -38.5t168.5 -109.5q78 -100 90 -204l29 -240v-51v-58q-7 -82 -18 -151.5t-32.5 -147.5t-51 -140.5t-76 -120.5t-105.5 -96.5t-141 -61t-180 -21.5q-48 1 -88.5 4.5
t-95 13t-101 29.5t-92.5 50t-83 79t-61 111q-1 3 -3.5 10t-4.5 12.5t-2 6.5l-33 180l-1 43q-1 43 -1 59zM479 737q0 -44 5.5 -93t20 -108t46.5 -97t78 -38q37 0 74 40t51 81q7 15 24.5 64.5t20.5 62.5q1 3 5 18.5t5 18.5q6 32 6 123v88q-16 108 -89 140q-66 29 -135 -21
q-85 -63 -106 -202q-6 -37 -6 -77zM737 1591v21v18q0 46 11 92q2 12 7.5 19.5t16.5 10.5t18 3.5t23.5 0t20.5 -0.5q161 0 161 -100q0 -39 -8 -53q-50 -58 -145 -58h-27q-13 3 -65 29q-13 7 -13 18zM432 1565q-2 31 -2 110q0 25 2 45q9 15 39 23q5 0 36 3t36 3h18
q105 0 105 -47v-111q0 -21 -37 -32q-35 -7 -74 -7l-14 -1q-14 -1 -19 -1l-35 2q-49 0 -55 13z" />
    <glyph glyph-name="Ugrave" unicode="&#xd9;" horiz-adv-x="1337" 
d="M61 586v57q0 13 1.5 39.5t2.5 48.5t1 23l14 641v2q5 14 9.5 20.5t14.5 7.5q39 0 155.5 4.5t154.5 4.5h61q37 0 45 -4q9 -2 21 -11t12 -16q0 -23 -6 -73.5t-4 -78.5q-5 -42 -15.5 -176.5t-11.5 -171.5v-92v-119v-20v-8q0 -42 1.5 -68.5t7 -65t19.5 -68.5t36 -52h2
q44 0 79 25.5t55.5 67t32 85.5t13.5 88l43 676v6q1 17 2.5 25.5t9.5 19t21 12.5q28 4 58 5t78.5 0t57.5 -1q12 0 100.5 2t98.5 2q33 -5 35 -22q14 -133 8.5 -278t-21.5 -284.5t-52 -271.5t-84 -239.5t-118 -188t-153 -116.5q-33 -14 -86.5 -21t-90 -8t-101 0.5t-74.5 1.5
q-27 0 -90 25.5t-101 48.5q-117 72 -179.5 214.5t-62.5 301.5zM823 1626l41 -70v-2q-10 -12 -16 -12q-4 -6 -21 -6h-4q-25 0 -37 6q-50 0 -98 6q-13 3 -22 15l-2 2q-5 4 -20.5 22t-16.5 19l-140 139q-2 1 -2 14q0 4 2.5 8t5.5 7t8.5 6t9 4.5t10 4t7.5 3.5q5 0 22 4l17 4
q5 0 22.5 3.5t18.5 4.5q3 0 20 5.5t19 5.5h12q11 0 20 -4.5t13 -8.5t12.5 -15.5t10.5 -14.5z" />
    <glyph glyph-name="Uacute" unicode="&#xda;" horiz-adv-x="1337" 
d="M61 586v57q0 13 1.5 39.5t2.5 48.5t1 23l14 641v2q5 14 9.5 20.5t14.5 7.5q39 0 155.5 4.5t154.5 4.5h61q37 0 45 -4q9 -2 21 -11t12 -16q0 -23 -6 -73.5t-4 -78.5q-5 -42 -15.5 -176.5t-11.5 -171.5v-92v-119v-20v-8q0 -42 1.5 -68.5t7 -65t19.5 -68.5t36 -52h2
q44 0 79 25.5t55.5 67t32 85.5t13.5 88l43 676v6q1 17 2.5 25.5t9.5 19t21 12.5q28 4 58 5t78.5 0t57.5 -1q12 0 100.5 2t98.5 2q33 -5 35 -22q14 -133 8.5 -278t-21.5 -284.5t-52 -271.5t-84 -239.5t-118 -188t-153 -116.5q-33 -14 -86.5 -21t-90 -8t-101 0.5t-74.5 1.5
q-27 0 -90 25.5t-101 48.5q-117 72 -179.5 214.5t-62.5 301.5zM483 1556l41 70l109 150q3 4 10.5 14.5t11.5 15t13 9t20 4.5h12q2 0 19 -5.5t20 -5.5q1 -1 18.5 -4.5t22.5 -3.5l17 -4q17 -4 22 -4q1 -1 7.5 -3.5t10 -4t9 -4.5t8.5 -6t5.5 -7t2.5 -8q0 -13 -2 -14l-139 -139
q-1 -1 -16.5 -19t-20.5 -22l-2 -2q-9 -12 -23 -15q-48 -6 -98 -6q-12 -6 -37 -6h-4q-16 0 -20 6q-3 0 -7 3t-7 6l-3 3v2z" />
    <glyph glyph-name="Ucircumflex" unicode="&#xdb;" horiz-adv-x="1337" 
d="M61 586v57q0 13 1.5 39.5t2.5 48.5t1 23l14 641v2q5 14 9.5 20.5t14.5 7.5q39 0 155.5 4.5t154.5 4.5h61q37 0 45 -4q9 -2 21 -11t12 -16q0 -23 -6 -73.5t-4 -78.5q-5 -42 -15.5 -176.5t-11.5 -171.5v-92v-119v-20v-8q0 -42 1.5 -68.5t7 -65t19.5 -68.5t36 -52h2
q44 0 79 25.5t55.5 67t32 85.5t13.5 88l43 676v6q1 17 2.5 25.5t9.5 19t21 12.5q28 4 58 5t78.5 0t57.5 -1q12 0 100.5 2t98.5 2q33 -5 35 -22q14 -133 8.5 -278t-21.5 -284.5t-52 -271.5t-84 -239.5t-118 -188t-153 -116.5q-33 -14 -86.5 -21t-90 -8t-101 0.5t-74.5 1.5
q-27 0 -90 25.5t-101 48.5q-117 72 -179.5 214.5t-62.5 301.5zM494 1550q-30 6 -70 6h-2q-45 6 -45 25q0 6 26 41q10 11 74.5 82t77.5 86q1 3 16.5 21.5t18.5 21.5l9 9q9 8 17 16t11 12q14 14 20 14h37q9 0 24.5 -12t35 -31t20.5 -20q11 -15 58 -62t69 -67q38 -59 72 -93
q0 -1 1 -3t1 -3q0 -8 -18 -12t-40.5 -6t-27.5 -4h-121q-4 -2 -29 -2q-43 0 -74 57q-1 1 -2 4t-2 4q-14 -11 -35.5 -50.5t-46.5 -49.5h-16q-11 0 -20.5 2.5t-21 7t-17.5 6.5z" />
    <glyph glyph-name="Udieresis" unicode="&#xdc;" horiz-adv-x="1337" 
d="M61 586v57q0 13 1.5 39.5t2.5 48.5t1 23l14 641v2q5 14 9.5 20.5t14.5 7.5q39 0 155.5 4.5t154.5 4.5h61q37 0 45 -4q9 -2 21 -11t12 -16q0 -23 -6 -73.5t-4 -78.5q-5 -42 -15.5 -176.5t-11.5 -171.5v-92v-119v-20v-8q0 -42 1.5 -68.5t7 -65t19.5 -68.5t36 -52h2
q44 0 79 25.5t55.5 67t32 85.5t13.5 88l43 676v6q1 17 2.5 25.5t9.5 19t21 12.5q28 4 58 5t78.5 0t57.5 -1q12 0 100.5 2t98.5 2q33 -5 35 -22q14 -133 8.5 -278t-21.5 -284.5t-52 -271.5t-84 -239.5t-118 -188t-153 -116.5q-33 -14 -86.5 -21t-90 -8t-101 0.5t-74.5 1.5
q-27 0 -90 25.5t-101 48.5q-117 72 -179.5 214.5t-62.5 301.5zM705 1571v20v19q0 50 10 92q2 12 7.5 19.5t16.5 10.5t18 3.5t23.5 0t20.5 -0.5q162 0 162 -101q0 -37 -9 -53q-49 -57 -145 -57h-27q-17 4 -65 28q-12 6 -12 19zM399 1544q-2 31 -2 111q0 25 2 45q8 14 39 22
q5 0 36 3.5t36 3.5h18q105 0 105 -48v-110q0 -11 -12 -20t-25 -13q-30 -6 -74 -6l-14 -1q-14 -1 -19 -1l-34 2q-1 0 -10 -0.5t-14 0t-12.5 1.5t-12.5 3.5t-7 7.5z" />
    <glyph glyph-name="germandbls" unicode="&#xdf;" horiz-adv-x="1466" 
d="M162 2q-27 4 -27 10v33l-33 416v106q0 270 45 465q23 105 81.5 193t148.5 135q20 13 87.5 48t86.5 42q21 10 49 19t45 13t55 11.5t48 9.5l22 4h199q15 0 63 -12q99 -22 157 -79t58 -152q0 -50 -16 -93t-49 -102q-5 -10 -16 -29t-15.5 -28t-10.5 -24t-8 -29.5t-2 -32.5
q0 -34 25.5 -71.5t57.5 -65t70.5 -62t55.5 -57.5q44 -57 65 -142t21 -168q0 -73 -43 -135q-60 -77 -168 -178q-4 -4 -10 -5.5t-14 -3t-10 -1.5q-13 -4 -30 -13t-34 -12q-8 -4 -35 -4q-2 0 -8.5 -1t-7.5 -1h-80q-76 0 -174 10q-6 1 -26.5 2.5t-25 2.5t-17 5t-16 10.5t-8 18.5
t-5.5 29q-8 140 -8 238v28q0 33 15 56t46 26l125 8q14 0 14 37q0 29 -19 68.5t-44 50.5q-2 2 -12 6t-13 4q-57 28 -87 56t-54 81v56q0 96 45 211v14q0 34 -21 41q-1 0 -10.5 1t-11.5 1q-29 0 -55.5 -24.5t-26.5 -55.5q0 -112 12 -223q13 -709 13 -727v-8q0 -7 -5 -12
t-14.5 -7.5t-17 -4t-17.5 -2.5t-12 -1q-88 -4 -236 -4h-63q-7 0 -47 2t-47 2z" />
    <glyph glyph-name="agrave" unicode="&#xe0;" horiz-adv-x="1380" 
d="M41 25v12l424 1268q9 22 17.5 34.5t22 18.5t23 8t35 4.5t43.5 5.5q134 29 217 29q12 0 46 1t53.5 0.5t47 -3.5t48.5 -10q78 -28 133 -215q47 -151 188 -1028v-134q0 -4 -8 -8t-12 -4q-7 0 -46 -1t-46 -1q-11 0 -33.5 0.5t-41 1t-19.5 0.5q-28 0 -121.5 4.5t-120.5 7.5
q-10 1 -21 10.5t-16 18.5l-18 66l-35 241h-13h-18q-21 -2 -56.5 -6.5t-66.5 -7.5t-63 -4q-15 -4 -15 -8l-41 -269q0 -30 -18 -32q-80 -4 -121 -15l-278 -6q-70 -9 -70 21zM756 1073q-1 -3 -9.5 -26t-9.5 -29q-6 -18 -20 -65t-28 -95.5t-15 -50.5q-8 -34 -22.5 -111.5
t-14.5 -85.5v-22q21 -4 27 -4h20q57 0 143 8q-17 69 -27.5 195t-17.5 171q-18 61 -26 115zM926 1618l41 -70v-2q-11 -12 -17 -12q-4 -6 -20 -6h-4q-25 0 -37 6q-50 0 -98 6q-15 3 -23 14l-2 2q-5 4 -20.5 22t-16.5 19l-139 140q-2 1 -2 14q0 4 2.5 8t5.5 7t8.5 6t9 4.5t10 4
t7.5 3.5q5 0 22 4l17 4q5 0 22.5 3.5t18.5 4.5q3 0 20 5t19 5h12q11 0 20 -4.5t13 -9t11.5 -15t10.5 -14.5z" />
    <glyph glyph-name="aacute" unicode="&#xe1;" horiz-adv-x="1380" 
d="M41 25v12l424 1268q9 22 17.5 34.5t22 18.5t23 8t35 4.5t43.5 5.5q134 29 217 29q12 0 46 1t53.5 0.5t47 -3.5t48.5 -10q78 -28 133 -215q47 -151 188 -1028v-134q0 -4 -8 -8t-12 -4q-7 0 -46 -1t-46 -1q-11 0 -33.5 0.5t-41 1t-19.5 0.5q-28 0 -121.5 4.5t-120.5 7.5
q-10 1 -21 10.5t-16 18.5l-18 66l-35 241h-13h-18q-21 -2 -56.5 -6.5t-66.5 -7.5t-63 -4q-15 -4 -15 -8l-41 -269q0 -30 -18 -32q-80 -4 -121 -15l-278 -6q-70 -9 -70 21zM756 1073q-1 -3 -9.5 -26t-9.5 -29q-6 -18 -20 -65t-28 -95.5t-15 -50.5q-8 -34 -22.5 -111.5
t-14.5 -85.5v-22q21 -4 27 -4h20q57 0 143 8q-17 69 -27.5 195t-17.5 171q-18 61 -26 115zM586 1548l41 70l108 149q2 3 10.5 14.5t12.5 15.5t13 8.5t20 4.5h12q2 0 19 -5t20 -5q1 -1 18.5 -4.5t22.5 -3.5l17 -4q17 -4 22 -4q1 -1 7.5 -3.5t10 -4t9 -4.5t8.5 -6t5.5 -7
t2.5 -8q0 -13 -2 -14l-140 -140q-1 -1 -16.5 -19t-20.5 -22l-2 -2q-8 -11 -22 -14q-48 -6 -98 -6q-12 -6 -37 -6h-4q-17 0 -21 6q-3 0 -7 3t-7 6l-2 3v2z" />
    <glyph glyph-name="acircumflex" unicode="&#xe2;" horiz-adv-x="1380" 
d="M41 25v12l424 1268q9 22 17.5 34.5t22 18.5t23 8t35 4.5t43.5 5.5q134 29 217 29q12 0 46 1t53.5 0.5t47 -3.5t48.5 -10q78 -28 133 -215q47 -151 188 -1028v-134q0 -4 -8 -8t-12 -4q-7 0 -46 -1t-46 -1q-11 0 -33.5 0.5t-41 1t-19.5 0.5q-28 0 -121.5 4.5t-120.5 7.5
q-10 1 -21 10.5t-16 18.5l-18 66l-35 241h-13h-18q-21 -2 -56.5 -6.5t-66.5 -7.5t-63 -4q-15 -4 -15 -8l-41 -269q0 -30 -18 -32q-80 -4 -121 -15l-278 -6q-70 -9 -70 21zM756 1073q-1 -3 -9.5 -26t-9.5 -29q-6 -18 -20 -65t-28 -95.5t-15 -50.5q-8 -34 -22.5 -111.5
t-14.5 -85.5v-22q21 -4 27 -4h20q57 0 143 8q-17 69 -27.5 195t-17.5 171q-18 61 -26 115zM596 1542q-30 6 -70 6h-2q-45 6 -45 25q0 5 27 41q11 11 74.5 82.5t76.5 85.5q1 3 16.5 21.5t18.5 21.5l9 9q9 8 17 16t11 12q14 14 21 14h36q9 0 25 -12.5t34.5 -31l20.5 -20.5
q11 -15 58 -62t69 -67q36 -56 72 -92q0 -1 1 -3t1 -3q0 -8 -18 -12t-40.5 -6t-27.5 -4h-121q-4 -2 -29 -2q-18 0 -33 9t-22.5 19.5t-17.5 28.5q-1 1 -2 4t-2 4q-14 -11 -35.5 -50.5t-46.5 -49.5h-17q-11 0 -20.5 2.5t-21 7t-17.5 6.5z" />
    <glyph glyph-name="atilde" unicode="&#xe3;" horiz-adv-x="1380" 
d="M41 25v12l424 1268q9 22 17.5 34.5t22 18.5t23 8t35 4.5t43.5 5.5q134 29 217 29q12 0 46 1t53.5 0.5t47 -3.5t48.5 -10q78 -28 133 -215q47 -151 188 -1028v-134q0 -4 -8 -8t-12 -4q-7 0 -46 -1t-46 -1q-11 0 -33.5 0.5t-41 1t-19.5 0.5q-28 0 -121.5 4.5t-120.5 7.5
q-10 1 -21 10.5t-16 18.5l-18 66l-35 241h-13h-18q-21 -2 -56.5 -6.5t-66.5 -7.5t-63 -4q-15 -4 -15 -8l-41 -269q0 -30 -18 -32q-80 -4 -121 -15l-278 -6q-70 -9 -70 21zM756 1073q-1 -3 -9.5 -26t-9.5 -29q-6 -18 -20 -65t-28 -95.5t-15 -50.5q-8 -34 -22.5 -111.5
t-14.5 -85.5v-22q21 -4 27 -4h20q57 0 143 8q-17 69 -27.5 195t-17.5 171q-18 61 -26 115zM633 1798q16 0 31 -3t34 -12.5t25.5 -13t31 -19.5t25.5 -17q6 -4 18 -12.5t19 -13.5t18.5 -9t22.5 -4q20 0 35 18t22 40t19.5 40t30.5 18q15 0 20 -6q66 0 76 -2q7 0 20 -4.5
t13 -11.5v-4l-37 -129q-23 -39 -25 -41q-35 -37 -65.5 -49.5t-81.5 -12.5q-145 0 -223 84h-3q-8 0 -16.5 -18t-11.5 -29q-1 -7 -1.5 -17t-1 -13.5t-3.5 -8t-9 -5.5t-16 -1q-29 0 -57 12q-5 0 -31.5 9.5t-36.5 15.5q-16 6 -16 8v58q0 15 22 59q11 27 37 57q23 24 48 30.5
t67 6.5z" />
    <glyph glyph-name="adieresis" unicode="&#xe4;" horiz-adv-x="1380" 
d="M41 25v12l424 1268q9 22 17.5 34.5t22 18.5t23 8t35 4.5t43.5 5.5q134 29 217 29q12 0 46 1t53.5 0.5t47 -3.5t48.5 -10q78 -28 133 -215q47 -151 188 -1028v-134q0 -4 -8 -8t-12 -4q-7 0 -46 -1t-46 -1q-11 0 -33.5 0.5t-41 1t-19.5 0.5q-28 0 -121.5 4.5t-120.5 7.5
q-10 1 -21 10.5t-16 18.5l-18 66l-35 241h-13h-18q-21 -2 -56.5 -6.5t-66.5 -7.5t-63 -4q-15 -4 -15 -8l-41 -269q0 -30 -18 -32q-80 -4 -121 -15l-278 -6q-70 -9 -70 21zM756 1073q-1 -3 -9.5 -26t-9.5 -29q-6 -18 -20 -65t-28 -95.5t-15 -50.5q-8 -34 -22.5 -111.5
t-14.5 -85.5v-22q21 -4 27 -4h20q57 0 143 8q-17 69 -27.5 195t-17.5 171q-18 61 -26 115zM807 1563v20v19q0 50 10 92q2 12 8 19.5t16.5 10t18 3.5t23 0t20.5 -1q162 0 162 -100q0 -39 -8 -53q-49 -57 -146 -57h-26q-19 5 -66 28q-12 6 -12 19zM502 1536q-2 31 -2 111
q0 25 2 45q8 14 39 22q5 0 35.5 3t35.5 3h19q104 0 104 -47v-110q0 -11 -12 -20t-25 -13q-30 -6 -73 -6l-14 -1q-14 -1 -19 -1l-35 2q-1 0 -9.5 -0.5t-14 0t-12.5 1.5t-12 3.5t-7 7.5z" />
    <glyph glyph-name="aring" unicode="&#xe5;" horiz-adv-x="1380" 
d="M41 25v12l424 1268q9 22 17.5 34.5t22 18.5t23 8t35 4.5t43.5 5.5q134 29 217 29q12 0 46 1t53.5 0.5t47 -3.5t48.5 -10q78 -28 133 -215q47 -151 188 -1028v-134q0 -4 -8 -8t-12 -4q-7 0 -46 -1t-46 -1q-11 0 -33.5 0.5t-41 1t-19.5 0.5q-28 0 -121.5 4.5t-120.5 7.5
q-10 1 -21 10.5t-16 18.5l-18 66l-35 241h-13h-18q-21 -2 -56.5 -6.5t-66.5 -7.5t-63 -4q-15 -4 -15 -8l-41 -269q0 -30 -18 -32q-80 -4 -121 -15l-278 -6q-70 -9 -70 21zM756 1073q-1 -3 -9.5 -26t-9.5 -29q-6 -18 -20 -65t-28 -95.5t-15 -50.5q-8 -34 -22.5 -111.5
t-14.5 -85.5v-22q21 -4 27 -4h20q57 0 143 8q-17 69 -27.5 195t-17.5 171q-18 61 -26 115zM561 1718q0 70 41.5 120t112.5 69q12 4 22 4q8 4 43 4q42 0 66 6h10q49 0 96 -35q7 -5 19 -39.5t16 -52.5l1 -11q1 -11 1 -14q0 -42 -16 -92q-11 -25 -49 -59q-12 -17 -35 -29
q-77 -51 -148 -51q-131 0 -180 162v18zM690 1681q17 -30 45 -30q62 0 94.5 39.5t32.5 83.5q0 57 -74 43h-4h-4q0 -2 -6.5 -5t-14 -6.5t-9.5 -5.5q-60 -19 -60 -92v-27z" />
    <glyph glyph-name="ae" unicode="&#xe6;" horiz-adv-x="1765" 
d="M836 14q-3 16 -7 72l-2 25v241h-30q-21 -2 -57.5 -6.5t-68 -7.5t-63.5 -4q-14 -4 -16 -8l-80 -269q-6 -30 -23 -32q-81 -4 -122 -15l-281 -6q-9 0 -23.5 -1.5t-28 4.5t-11.5 18q0 10 2 12l608 1268q12 22 22 34.5t24.5 18.5t24 8t35.5 4.5t45 5.5h4q106 15 875 43
q38 0 57 -12l4 -4v-4q0 -2 -2 -11.5t-2 -11.5l-43 -350q-8 0 -55 -1t-55 -1q-35 0 -99.5 2t-95.5 2h-6q-9 -9 -4 -12q-3 -10 -16 -125q0 -1 1 -8.5t1 -8.5q7 0 70.5 -3.5t76.5 -2.5q4 0 38.5 6.5t39.5 6.5l17 1q16 1 22 1q4 0 17 1t20.5 0.5t17 -2.5t14.5 -8t5 -16
q0 -45 -5.5 -151t-3.5 -166l-8 -9q-88 -2 -125 -4h-8q-35 0 -103.5 2t-103.5 2h-18q0 -4 -1 -29t-1 -28q-1 -14 -0.5 -40t1.5 -62.5t1 -40.5l327 33h37q10 -5 13 -11v-22q0 -50 -10.5 -151t-10.5 -152q-2 -1 -5 -4t-5.5 -4.5t-5.5 -2.5q-5 0 -27 -2t-27 -2q-72 0 -207 -6.5
t-268 -6.5t-286 13zM745 584q66 0 99 2l14 426q-10 -21 -30.5 -67t-39.5 -90.5t-20 -47.5q-15 -36 -40.5 -112.5t-25.5 -84.5l-4 -22q21 -4 27 -4h20z" />
    <glyph glyph-name="ccedilla" unicode="&#xe7;" horiz-adv-x="1243" 
d="M422 -348q0 14 8 14h76q32 0 68 32.5t36 63.5q0 19 -18 26.5t-39 8t-39 15.5t-18 47q0 4 1 10.5t1 9.5v2q0 1 -1 14t-1 15v94q-363 85 -435 488v184q0 1 6.5 38t14.5 87t12 76q4 14 6 14q2 6 10 31t11.5 36t12 33.5t14.5 36t15.5 30t18.5 29.5q107 151 273 256t331 105
h33q15 -1 55 -2t74 -2t41 -2q3 0 17.5 -1t17.5 -1q4 -1 26.5 -6t41.5 -10.5t41 -13.5t34.5 -19.5t12.5 -24.5q0 -19 -6 -31l-113 -372q-3 -21 -10 -29t-25 -8q-15 0 -29.5 6.5t-35 21t-25.5 17.5q-61 30 -148 30q-104 0 -172.5 -80.5t-68.5 -189.5q0 -69 18 -129
q32 -100 74 -140t137 -50h49q36 6 129 35.5t140 29.5q32 0 41 -33l61 -290l1 -11q1 -11 1 -16q0 -68 -24 -78q-271 -73 -486 -67v-74q85 6 125 -76q0 -8 4 -16l2 -13v-63q0 -6 -2 -8q-27 -70 -75 -115.5t-128 -91.5q-38 -23 -67 -23q-32 0 -78.5 58.5t-46.5 91.5z" />
    <glyph glyph-name="egrave" unicode="&#xe8;" horiz-adv-x="1038" 
d="M109 2q-7 56 -7 109l43 1280l791 16q38 0 57 -12l4 -4v-5q0 -2 -2 -11t-2 -11l-43 -350q-8 0 -55 -1t-55 -1q-35 0 -99.5 2t-95.5 2h-6q-9 -9 -4 -12q-5 -14 -17 -125q0 -1 1.5 -8.5t1.5 -8.5q7 0 70.5 -3.5t76.5 -2.5q4 0 38.5 6t39.5 6l16 1q17 1 23 1q4 0 16.5 1
t20.5 0.5t17 -2t14 -7.5t5 -16q0 -44 -5 -151t-3 -167l-8 -8q-88 -2 -125 -4h-8q-35 0 -103.5 2t-103.5 2h-18q0 -4 -1 -29t-1 -28q-1 -14 -0.5 -40.5t1.5 -63t1 -40.5l327 33h37q11 -5 13 -10v-23q0 -50 -10.5 -151t-10.5 -152q-14 -9 -16 -10q-5 0 -27 -2t-27 -2
q-72 0 -207 -6.5t-268 -6.5t-286 13zM709 1614l41 -70v-2q-11 -12 -17 -12q-4 -6 -20 -6h-4q-25 0 -37 6q-51 0 -99 6q-14 3 -22 14l-2 2q-5 4 -20.5 22t-16.5 19l-139 140q-2 1 -2 14q0 4 2.5 8t5.5 7t8.5 6t9 4.5t10 4t7.5 3.5q5 0 22 4l17 4q5 0 22.5 3.5t18.5 4.5
q3 0 19.5 5t18.5 5h13q11 0 20 -4.5t13 -9t11.5 -15t10.5 -14.5z" />
    <glyph glyph-name="eacute" unicode="&#xe9;" horiz-adv-x="1038" 
d="M109 2q-7 56 -7 109l43 1280l791 16q38 0 57 -12l4 -4v-5q0 -2 -2 -11t-2 -11l-43 -350q-8 0 -55 -1t-55 -1q-35 0 -99.5 2t-95.5 2h-6q-9 -9 -4 -12q-5 -14 -17 -125q0 -1 1.5 -8.5t1.5 -8.5q7 0 70.5 -3.5t76.5 -2.5q4 0 38.5 6t39.5 6l16 1q17 1 23 1q4 0 16.5 1
t20.5 0.5t17 -2t14 -7.5t5 -16q0 -44 -5 -151t-3 -167l-8 -8q-88 -2 -125 -4h-8q-35 0 -103.5 2t-103.5 2h-18q0 -4 -1 -29t-1 -28q-1 -14 -0.5 -40.5t1.5 -63t1 -40.5l327 33h37q11 -5 13 -10v-23q0 -50 -10.5 -151t-10.5 -152q-14 -9 -16 -10q-5 0 -27 -2t-27 -2
q-72 0 -207 -6.5t-268 -6.5t-286 13zM369 1544l41 70l108 149q3 4 10.5 14.5t11.5 15t13 9t20 4.5h13q2 0 19 -5t20 -5q1 -1 18.5 -4.5t22.5 -3.5l17 -4q17 -4 22 -4q1 -1 7.5 -3.5t10 -4t9 -4.5t8.5 -6t5.5 -7t2.5 -8q0 -13 -3 -14l-139 -140q-1 -1 -16.5 -19t-20.5 -22
l-2 -2q-8 -11 -22 -14q-48 -6 -99 -6q-12 -6 -36 -6h-4q-17 0 -21 6q-3 0 -7 3t-6 6l-3 3v2z" />
    <glyph glyph-name="ecircumflex" unicode="&#xea;" horiz-adv-x="1038" 
d="M109 2q-7 56 -7 109l43 1280l791 16q38 0 57 -12l4 -4v-5q0 -2 -2 -11t-2 -11l-43 -350q-8 0 -55 -1t-55 -1q-35 0 -99.5 2t-95.5 2h-6q-9 -9 -4 -12q-5 -14 -17 -125q0 -1 1.5 -8.5t1.5 -8.5q7 0 70.5 -3.5t76.5 -2.5q4 0 38.5 6t39.5 6l16 1q17 1 23 1q4 0 16.5 1
t20.5 0.5t17 -2t14 -7.5t5 -16q0 -44 -5 -151t-3 -167l-8 -8q-88 -2 -125 -4h-8q-35 0 -103.5 2t-103.5 2h-18q0 -4 -1 -29t-1 -28q-1 -14 -0.5 -40.5t1.5 -63t1 -40.5l327 33h37q11 -5 13 -10v-23q0 -50 -10.5 -151t-10.5 -152q-14 -9 -16 -10q-5 0 -27 -2t-27 -2
q-72 0 -207 -6.5t-268 -6.5t-286 13zM379 1538q-30 6 -70 6h-2q-45 6 -45 25q0 5 27 41q11 11 74.5 82.5t76.5 85.5q1 3 16.5 21.5t18.5 21.5l37 37q14 14 20 14h37q9 0 25 -12.5t34.5 -31l20.5 -20.5q11 -15 58 -62t69 -67q36 -56 72 -92q0 -1 1 -3t1 -3q0 -8 -18 -12
t-40.5 -6t-27.5 -4h-121q-6 -3 -29 -3q-18 0 -33 9.5t-22.5 20t-17.5 28.5q-1 1 -2 4t-2 4q-14 -11 -35.5 -50.5t-46.5 -49.5h-17q-11 0 -20.5 2.5t-21 7t-17.5 6.5z" />
    <glyph glyph-name="edieresis" unicode="&#xeb;" horiz-adv-x="1038" 
d="M109 2q-7 56 -7 109l43 1280l791 16q38 0 57 -12l4 -4v-5q0 -2 -2 -11t-2 -11l-43 -350q-8 0 -55 -1t-55 -1q-35 0 -99.5 2t-95.5 2h-6q-9 -9 -4 -12q-5 -14 -17 -125q0 -1 1.5 -8.5t1.5 -8.5q7 0 70.5 -3.5t76.5 -2.5q4 0 38.5 6t39.5 6l16 1q17 1 23 1q4 0 16.5 1
t20.5 0.5t17 -2t14 -7.5t5 -16q0 -44 -5 -151t-3 -167l-8 -8q-88 -2 -125 -4h-8q-35 0 -103.5 2t-103.5 2h-18q0 -4 -1 -29t-1 -28q-1 -14 -0.5 -40.5t1.5 -63t1 -40.5l327 33h37q11 -5 13 -10v-23q0 -50 -10.5 -151t-10.5 -152q-14 -9 -16 -10q-5 0 -27 -2t-27 -2
q-72 0 -207 -6.5t-268 -6.5t-286 13zM590 1559v20v18q0 51 10 93q2 12 8 19.5t16.5 10t18 3.5t23 0t20.5 -1q162 0 162 -100q0 -39 -8 -53q-50 -58 -146 -58h-26q-15 4 -66 29q-12 6 -12 19zM285 1532q-2 31 -2 110q0 26 2 46q8 14 39 22q5 0 35.5 3t35.5 3h19
q104 0 104 -47v-110q0 -11 -12 -20t-25 -13q-30 -6 -73 -6l-14 -1q-14 -1 -19 -1l-35 2q-1 0 -9.5 -0.5t-14 0t-12.5 1.5t-12 3.5t-7 7.5z" />
    <glyph glyph-name="igrave" unicode="&#xec;" horiz-adv-x="718" 
d="M172 8q-8 2 -14 4.5t-10.5 6.5t-7 6.5t-5 10t-3 10.5t-2.5 14.5t-3 15.5q-2 27 -5 131.5t-5.5 218t-3.5 131.5v150q0 18 -2.5 96t-4.5 149.5t-2 73.5q0 4 9 135q1 12 3 19t9 13t20 7l314 21h22q113 0 115 -29l-23 -1159q-1 -9 -27 -22t-38 -15h-68q-45 0 -133.5 6
t-134.5 6zM492 1516l40 -70v-2q-10 -12 -16 -12q-5 -7 -20 -7h-4q-23 0 -37 7q-51 0 -99 6q-14 3 -22 14l-2 2q-5 4 -20.5 22t-16.5 19l-139 139q-2 1 -2 15q0 5 3 9.5t8.5 8t10 5.5t12 5t9.5 4q5 0 22 5l17 4q5 0 22 3.5t18 4.5q3 0 20 5t19 5h13q11 0 20 -4.5t13 -9
t11.5 -15t10.5 -14.5z" />
    <glyph glyph-name="iacute" unicode="&#xed;" horiz-adv-x="718" 
d="M172 8q-8 2 -14 4.5t-10.5 6.5t-7 6.5t-5 10t-3 10.5t-2.5 14.5t-3 15.5q-2 27 -5 131.5t-5.5 218t-3.5 131.5v150q0 18 -2.5 96t-4.5 149.5t-2 73.5q0 4 9 135q1 12 3 19t9 13t20 7l314 21h22q113 0 115 -29l-23 -1159q-1 -9 -27 -22t-38 -15h-68q-45 0 -133.5 6
t-134.5 6zM152 1446l41 70l108 149q3 4 10.5 14.5t11.5 15t13 9t20 4.5h13q2 0 19 -5t20 -5q1 -1 18.5 -4.5t22.5 -3.5l17 -4q16 -5 21 -5q2 -1 9.5 -4t12 -5t10 -5.5t8.5 -8t3 -9.5q0 -14 -2 -15l-139 -139q-1 -1 -16.5 -19t-20.5 -22l-2 -2q-8 -11 -22 -14q-48 -6 -99 -6
q-14 -7 -36 -7h-5q-15 0 -20 7q-3 0 -7 3t-7 6l-2 3v2z" />
    <glyph glyph-name="icircumflex" unicode="&#xee;" horiz-adv-x="718" 
d="M172 8q-8 2 -14 4.5t-10.5 6.5t-7 6.5t-5 10t-3 10.5t-2.5 14.5t-3 15.5q-2 27 -5 131.5t-5.5 218t-3.5 131.5v150q0 18 -2.5 96t-4.5 149.5t-2 73.5q0 4 9 135q1 12 3 19t9 13t20 7l314 21h22q113 0 115 -29l-23 -1159q-1 -9 -27 -22t-38 -15h-68q-45 0 -133.5 6
t-134.5 6zM162 1440q-30 6 -70 6h-2q-45 6 -45 24q0 5 27 41q11 11 74.5 82.5t76.5 85.5q1 3 16.5 21.5t18.5 21.5l37 37q15 15 20 15h37q9 0 25 -12.5t34.5 -31l20.5 -20.5q11 -15 58 -62t69 -67q36 -56 72 -92q0 -1 1 -3t1 -3q0 -8 -18 -12.5t-40.5 -6.5t-27.5 -4h-121
q-4 -2 -29 -2q-18 0 -33 9.5t-22.5 20t-17.5 28.5q-1 1 -2.5 4t-2.5 4q-14 -11 -35 -51t-46 -50h-17q-11 0 -21 2.5t-21 7.5t-17 7z" />
    <glyph glyph-name="idieresis" unicode="&#xef;" horiz-adv-x="718" 
d="M172 8q-8 2 -14 4.5t-10.5 6.5t-7 6.5t-5 10t-3 10.5t-2.5 14.5t-3 15.5q-2 27 -5 131.5t-5.5 218t-3.5 131.5v150q0 18 -2.5 96t-4.5 149.5t-2 73.5q0 4 9 135q1 12 3 19t9 13t20 7l314 21h22q113 0 115 -29l-23 -1159q-1 -9 -27 -22t-38 -15h-68q-45 0 -133.5 6
t-134.5 6zM373 1460v21v18q0 50 10 92q2 12 7.5 19.5t16.5 10.5t18 3.5t23.5 0t20.5 -0.5q162 0 162 -100q0 -40 -8 -54q-49 -57 -146 -57h-26q-15 4 -66 29q-12 6 -12 18zM68 1434q-2 31 -2 110q0 25 2 45q9 16 38 23q5 0 36 3t36 3h19q104 0 104 -47v-111q0 -11 -12 -20
t-25 -13q-30 -6 -74 -6l-14 -1q-13 -1 -18 -1l-35 2q-49 0 -55 13z" />
    <glyph glyph-name="eth" unicode="&#xf0;" horiz-adv-x="1337" 
d="M51 647q-1 10 -3.5 25.5t-4 24.5t-1 22.5t4.5 25.5q1 1 2.5 3t2 3t2.5 2t5 1l60 -2q2 184 2 628q113 44 252.5 57t283 -10.5t271 -78.5t224.5 -156t134 -234q0 -10 2 -32t4 -40.5t2 -19.5v-65q-5 -99 -30.5 -198.5t-69 -192.5t-112 -168.5t-152.5 -114.5
q-292 -135 -621 -117q-7 0 -22.5 1t-28.5 2l-12 1q-3 0 -15.5 2.5t-27 6t-17.5 4.5h-2q-61 20 -73 45v28q0 21 8 541l-45 2q-11 0 -23 4zM537 362l-5 -8h5q49 -9 71 13q68 58 112.5 111t61.5 118q3 12 12.5 47t16 59.5t8.5 26.5q0 29 2 39q4 63 -18 125.5t-61.5 106.5
t-94.5 63.5t-117 -4.5l2 -318l82 -2q18 0 25 -10v-92q-1 0 -8 -3t-8 -3h-7l-81 2z" />
    <glyph glyph-name="ograve" unicode="&#xf2;" horiz-adv-x="1339" 
d="M70 473q-7 42 -7 90q-12 281 60 451q7 17 40.5 79.5t45.5 82.5q105 138 285.5 200t375.5 41h4q91 0 177 -53q26 -13 34 -21q25 -17 46.5 -45t30.5 -44t29 -59.5t23 -49.5q1 -1 3.5 -6t3.5 -6q3 -16 20.5 -75.5t24.5 -80.5q1 -7 3 -49t3 -49q0 -18 2 -55.5t3 -61
t-0.5 -55.5t-6.5 -58q-30 -162 -71.5 -272.5t-125.5 -212.5q-65 -80 -183 -123t-237 -43h-53q-9 2 -123 18q-3 0 -12 2t-10 2q-101 21 -156 62.5t-119 134.5q-14 21 -47 94l-37 74q-1 1 -3 6t-3 6q0 16 -20 76zM489 645q2 -39 16.5 -82t38.5 -82t63 -64.5t85 -25.5
q3 0 15.5 1t15.5 1q82 30 136.5 143.5t49.5 206.5q-2 43 -14.5 88.5t-35 91t-62 74.5t-90.5 29t-95 -44t-70 -106.5t-40.5 -125t-12.5 -105.5zM872 1626l41 -70v-2q-10 -12 -16 -12q-4 -6 -20 -6h-5q-24 0 -36 6q-51 0 -99 6q-13 3 -22 15l-2 2q-5 4 -20.5 22t-16.5 19
l-139 139q-2 1 -2 14q0 4 2.5 8t5.5 7t8.5 6t9 4.5t10 4t7.5 3.5q5 0 22 4l16 4q5 0 22.5 3.5t18.5 4.5q3 0 20 5.5t19 5.5h13q11 0 20 -4.5t13 -9t11.5 -15t10.5 -14.5z" />
    <glyph glyph-name="oacute" unicode="&#xf3;" horiz-adv-x="1339" 
d="M70 473q-7 42 -7 90q-12 281 60 451q7 17 40.5 79.5t45.5 82.5q105 138 285.5 200t375.5 41h4q91 0 177 -53q26 -13 34 -21q25 -17 46.5 -45t30.5 -44t29 -59.5t23 -49.5q1 -1 3.5 -6t3.5 -6q3 -16 20.5 -75.5t24.5 -80.5q1 -7 3 -49t3 -49q0 -18 2 -55.5t3 -61
t-0.5 -55.5t-6.5 -58q-30 -162 -71.5 -272.5t-125.5 -212.5q-65 -80 -183 -123t-237 -43h-53q-9 2 -123 18q-3 0 -12 2t-10 2q-101 21 -156 62.5t-119 134.5q-14 21 -47 94l-37 74q-1 1 -3 6t-3 6q0 16 -20 76zM489 645q2 -39 16.5 -82t38.5 -82t63 -64.5t85 -25.5
q3 0 15.5 1t15.5 1q82 30 136.5 143.5t49.5 206.5q-2 43 -14.5 88.5t-35 91t-62 74.5t-90.5 29t-95 -44t-70 -106.5t-40.5 -125t-12.5 -105.5zM532 1556l41 70l109 150q3 4 10.5 14.5t11.5 15t13 9t20 4.5h13q2 0 18.5 -5.5t19.5 -5.5q1 -1 18.5 -4.5t22.5 -3.5l17 -4
q17 -4 22 -4q1 -1 7.5 -3.5t10 -4t9 -4.5t8.5 -6t5.5 -7t2.5 -8q0 -13 -2 -14l-139 -139q-1 -1 -16.5 -19t-20.5 -22l-2 -2q-9 -12 -22 -15q-48 -6 -99 -6q-12 -6 -37 -6h-4q-16 0 -20 6q-3 0 -7 3t-7 6l-3 3v2z" />
    <glyph glyph-name="ocircumflex" unicode="&#xf4;" horiz-adv-x="1339" 
d="M70 473q-7 42 -7 90q-12 281 60 451q7 17 40.5 79.5t45.5 82.5q105 138 285.5 200t375.5 41h4q91 0 177 -53q26 -13 34 -21q25 -17 46.5 -45t30.5 -44t29 -59.5t23 -49.5q1 -1 3.5 -6t3.5 -6q3 -16 20.5 -75.5t24.5 -80.5q1 -7 3 -49t3 -49q0 -18 2 -55.5t3 -61
t-0.5 -55.5t-6.5 -58q-30 -162 -71.5 -272.5t-125.5 -212.5q-65 -80 -183 -123t-237 -43h-53q-9 2 -123 18q-3 0 -12 2t-10 2q-101 21 -156 62.5t-119 134.5q-14 21 -47 94l-37 74q-1 1 -3 6t-3 6q0 16 -20 76zM489 645q2 -39 16.5 -82t38.5 -82t63 -64.5t85 -25.5
q3 0 15.5 1t15.5 1q82 30 136.5 143.5t49.5 206.5q-2 43 -14.5 88.5t-35 91t-62 74.5t-90.5 29t-95 -44t-70 -106.5t-40.5 -125t-12.5 -105.5zM543 1550q-30 6 -70 6h-2q-45 6 -45 25q0 5 27 41q11 11 74.5 82.5t76.5 85.5q1 3 16.5 21.5t18.5 21.5l37 37q14 14 20 14h37
q9 0 24.5 -12t35 -31t20.5 -20q11 -15 58 -62t69 -67q38 -59 72 -93q0 -1 1 -3t1 -3q0 -8 -18 -12t-40.5 -6t-27.5 -4h-121q-4 -2 -29 -2q-18 0 -33 9t-22.5 19.5t-17.5 28.5q-1 1 -2.5 4t-2.5 4q-14 -11 -35.5 -50.5t-46.5 -49.5h-16q-11 0 -20.5 2.5t-21 7t-17.5 6.5z" />
    <glyph glyph-name="otilde" unicode="&#xf5;" horiz-adv-x="1339" 
d="M70 473q-7 42 -7 90q-12 281 60 451q7 17 40.5 79.5t45.5 82.5q105 138 285.5 200t375.5 41h4q91 0 177 -53q26 -13 34 -21q25 -17 46.5 -45t30.5 -44t29 -59.5t23 -49.5q1 -1 3.5 -6t3.5 -6q3 -16 20.5 -75.5t24.5 -80.5q1 -7 3 -49t3 -49q0 -18 2 -55.5t3 -61
t-0.5 -55.5t-6.5 -58q-30 -162 -71.5 -272.5t-125.5 -212.5q-65 -80 -183 -123t-237 -43h-53q-9 2 -123 18q-3 0 -12 2t-10 2q-101 21 -156 62.5t-119 134.5q-14 21 -47 94l-37 74q-1 1 -3 6t-3 6q0 16 -20 76zM489 645q2 -39 16.5 -82t38.5 -82t63 -64.5t85 -25.5
q3 0 15.5 1t15.5 1q82 30 136.5 143.5t49.5 206.5q-2 43 -14.5 88.5t-35 91t-62 74.5t-90.5 29t-95 -44t-70 -106.5t-40.5 -125t-12.5 -105.5zM580 1806q16 0 31 -3t34 -12.5t25.5 -13t31 -19.5t25.5 -17q6 -4 18 -12.5t19 -13.5t18.5 -9t22.5 -4q20 0 34.5 18.5t21.5 40
t19.5 40t30.5 18.5q16 0 21 -7q66 0 76 -2q7 0 19.5 -4.5t12.5 -11.5v-4l-36 -129q-23 -39 -25 -41q-35 -36 -65.5 -48.5t-82.5 -12.5q-145 0 -223 83h-2q-8 0 -16.5 -18t-11.5 -29q-1 -7 -1.5 -17t-1 -13.5t-3.5 -8t-9 -5.5t-16 -1q-28 0 -58 13q-5 0 -31 9t-36 15
q-16 6 -16 8v58q0 15 22 59q11 27 37 57q23 24 48 30.5t67 6.5z" />
    <glyph glyph-name="odieresis" unicode="&#xf6;" horiz-adv-x="1339" 
d="M70 473q-7 42 -7 90q-12 281 60 451q7 17 40.5 79.5t45.5 82.5q105 138 285.5 200t375.5 41h4q91 0 177 -53q26 -13 34 -21q25 -17 46.5 -45t30.5 -44t29 -59.5t23 -49.5q1 -1 3.5 -6t3.5 -6q3 -16 20.5 -75.5t24.5 -80.5q1 -7 3 -49t3 -49q0 -18 2 -55.5t3 -61
t-0.5 -55.5t-6.5 -58q-30 -162 -71.5 -272.5t-125.5 -212.5q-65 -80 -183 -123t-237 -43h-53q-9 2 -123 18q-3 0 -12 2t-10 2q-101 21 -156 62.5t-119 134.5q-14 21 -47 94l-37 74q-1 1 -3 6t-3 6q0 16 -20 76zM489 645q2 -39 16.5 -82t38.5 -82t63 -64.5t85 -25.5
q3 0 15.5 1t15.5 1q82 30 136.5 143.5t49.5 206.5q-2 43 -14.5 88.5t-35 91t-62 74.5t-90.5 29t-95 -44t-70 -106.5t-40.5 -125t-12.5 -105.5zM754 1571v20v19q0 50 10 92q2 12 7.5 19.5t16.5 10.5t18 3.5t23.5 0t20.5 -0.5q162 0 162 -101q0 -39 -8 -53q-49 -57 -146 -57
h-27q-17 4 -65 28q-12 6 -12 19zM449 1544q-3 47 -3 111q0 15 3 45q8 15 38 22q5 0 36 3.5t36 3.5h19q104 0 104 -48v-110q0 -11 -12 -20t-25 -13q-30 -6 -74 -6l-13 -1q-14 -1 -19 -1l-35 2q-1 0 -9.5 -0.5t-14 0t-12.5 1.5t-12 3.5t-7 7.5z" />
    <glyph glyph-name="ugrave" unicode="&#xf9;" horiz-adv-x="1415" 
d="M61 698q0 12 1 54.5t1 44.5l13 602v4q4 33 22 35q31 4 71 5.5t72 0.5t70 0q10 0 98.5 2t98.5 2h31h30l8 -4q8 -4 14.5 -8.5t6.5 -8.5v-4q-61 -397 -61 -700v-35q0 -13 1 -74.5t1 -70.5q5 -35 17 -70t39.5 -66.5t63.5 -31.5q34 0 57.5 34t31.5 70q18 71 22 101
q37 317 29 821q4 11 18 18.5t27 7.5q193 -18 382 -31q85 -6 99.5 -9.5t17.5 -18.5v-2v-2l5 -12q6 -94 6 -158v-43l-39 -442q0 -1 -1 -3t-1 -4q-14 -107 -33 -178q-25 -119 -55.5 -199t-84 -148t-136.5 -109.5t-203 -63.5h-78q-104 0 -185.5 15.5t-168.5 54.5q-66 30 -117 70
t-84 89t-55 100t-33 115t-15 121t-4 129zM856 1626l41 -70v-2q-10 -12 -16 -12q-4 -6 -21 -6h-4q-25 0 -37 6q-50 0 -98 6q-14 3 -23 15l-2 2q-5 4 -20.5 22t-16.5 19l-139 139q-2 1 -2 14q0 4 2.5 8t5.5 7t8.5 6t9 4.5t10 4t7.5 3.5q5 0 22 4l17 4q5 0 22.5 3.5t18.5 4.5
q3 0 20 5.5t19 5.5h12q11 0 20 -4.5t13 -8.5t12.5 -15.5t10.5 -14.5z" />
    <glyph glyph-name="uacute" unicode="&#xfa;" horiz-adv-x="1415" 
d="M61 698q0 12 1 54.5t1 44.5l13 602v4q4 33 22 35q31 4 71 5.5t72 0.5t70 0q10 0 98.5 2t98.5 2h31h30l8 -4q8 -4 14.5 -8.5t6.5 -8.5v-4q-61 -397 -61 -700v-35q0 -13 1 -74.5t1 -70.5q5 -35 17 -70t39.5 -66.5t63.5 -31.5q34 0 57.5 34t31.5 70q18 71 22 101
q37 317 29 821q4 11 18 18.5t27 7.5q193 -18 382 -31q85 -6 99.5 -9.5t17.5 -18.5v-2v-2l5 -12q6 -94 6 -158v-43l-39 -442q0 -1 -1 -3t-1 -4q-14 -107 -33 -178q-25 -119 -55.5 -199t-84 -148t-136.5 -109.5t-203 -63.5h-78q-104 0 -185.5 15.5t-168.5 54.5q-66 30 -117 70
t-84 89t-55 100t-33 115t-15 121t-4 129zM516 1556l41 70l109 150q3 4 10.5 14.5t11.5 15t13 9t20 4.5h12q2 0 19 -5.5t20 -5.5q1 -1 18.5 -4.5t22.5 -3.5l17 -4q17 -4 22 -4q1 -1 7.5 -3.5t10 -4t9 -4.5t8.5 -6t5.5 -7t2.5 -8q0 -13 -2 -14l-139 -139q-1 -1 -16.5 -19
t-20.5 -22l-2 -2q-9 -12 -23 -15q-48 -6 -98 -6q-12 -6 -37 -6h-4q-17 0 -21 6q-3 0 -7 3t-7 6l-2 3v2z" />
    <glyph glyph-name="ucircumflex" unicode="&#xfb;" horiz-adv-x="1415" 
d="M61 698q0 12 1 54.5t1 44.5l13 602v4q4 33 22 35q31 4 71 5.5t72 0.5t70 0q10 0 98.5 2t98.5 2h31h30l8 -4q8 -4 14.5 -8.5t6.5 -8.5v-4q-61 -397 -61 -700v-35q0 -13 1 -74.5t1 -70.5q5 -35 17 -70t39.5 -66.5t63.5 -31.5q34 0 57.5 34t31.5 70q18 71 22 101
q37 317 29 821q4 11 18 18.5t27 7.5q193 -18 382 -31q85 -6 99.5 -9.5t17.5 -18.5v-2v-2l5 -12q6 -94 6 -158v-43l-39 -442q0 -1 -1 -3t-1 -4q-14 -107 -33 -178q-25 -119 -55.5 -199t-84 -148t-136.5 -109.5t-203 -63.5h-78q-104 0 -185.5 15.5t-168.5 54.5q-66 30 -117 70
t-84 89t-55 100t-33 115t-15 121t-4 129zM526 1550q-30 6 -69 6h-2q-45 6 -45 25q0 6 26 41q10 11 74.5 82t77.5 86q1 3 16.5 21.5t18.5 21.5q33 33 36 37q14 14 21 14h37q9 0 24.5 -12t35 -31t20.5 -20q11 -15 58 -62t69 -67q40 -62 71 -93q0 -1 1 -3t1 -3q0 -8 -18 -12
t-40.5 -6t-27.5 -4h-120q-4 -2 -29 -2q-43 0 -74 57q-1 1 -2 4t-2 4q-14 -11 -35.5 -50.5t-46.5 -49.5h-16q-11 0 -21 2.5t-21.5 7t-17.5 6.5z" />
    <glyph glyph-name="udieresis" unicode="&#xfc;" horiz-adv-x="1415" 
d="M61 698q0 12 1 54.5t1 44.5l13 602v4q4 33 22 35q31 4 71 5.5t72 0.5t70 0q10 0 98.5 2t98.5 2h31h30l8 -4q8 -4 14.5 -8.5t6.5 -8.5v-4q-61 -397 -61 -700v-35q0 -13 1 -74.5t1 -70.5q5 -35 17 -70t39.5 -66.5t63.5 -31.5q34 0 57.5 34t31.5 70q18 71 22 101
q37 317 29 821q4 11 18 18.5t27 7.5q193 -18 382 -31q85 -6 99.5 -9.5t17.5 -18.5v-2v-2l5 -12q6 -94 6 -158v-43l-39 -442q0 -1 -1 -3t-1 -4q-14 -107 -33 -178q-25 -119 -55.5 -199t-84 -148t-136.5 -109.5t-203 -63.5h-78q-104 0 -185.5 15.5t-168.5 54.5q-66 30 -117 70
t-84 89t-55 100t-33 115t-15 121t-4 129zM737 1571v20v19q0 46 11 92q2 12 7.5 19.5t16.5 10.5t18 3.5t23.5 0t20.5 -0.5q161 0 161 -101q0 -39 -8 -53q-49 -57 -145 -57h-27q-17 4 -65 28q-13 6 -13 19zM432 1544q-2 31 -2 111q0 25 2 45q8 14 39 22q5 0 36 3.5t36 3.5h18
q105 0 105 -48v-110q0 -11 -12 -20t-25 -13q-30 -6 -74 -6l-14 -1q-14 -1 -19 -1l-35 2q-1 0 -9.5 -0.5t-14 0t-12.5 1.5t-12 3.5t-7 7.5z" />
    <glyph glyph-name="Euro" unicode="&#x20ac;" horiz-adv-x="1093" 
d="M57 709q0 1 -2 6t-2 6l4 10q0 2 4.5 15t4.5 14q8 16 8 59l12 21q0 1 19.5 4.5t25.5 3.5h29q30 171 121 326q76 131 200 200q60 31 107.5 39t134.5 8q151 0 245 -104t83 -248q-2 -33 -41 -69t-88 -57t-96.5 -29t-67.5 14q-27 88 -92 82q-83 -8 -131 -160l274 2q10 0 16 -4
t8 -12t2.5 -14t-0.5 -15t-1 -10q0 -10 -2 -35.5t-1 -40.5l-4 -2q-12 -4 -18 -4l-301 -8q0 -7 -1 -22.5t-1 -22.5l141 2q8 0 13 -4.5t7 -13t2 -14.5t-0.5 -15.5t-0.5 -10.5q0 -9 -1.5 -36t-0.5 -44h-4q-8 -4 -15 -4l-129 -4q23 -104 82 -104q39 0 76 43q27 21 82 11.5
t109 -31t89 -57.5t23 -69q-30 -57 -56 -98t-61.5 -83t-72 -67.5t-85.5 -42t-104 -16.5q-116 0 -219 41q-34 13 -62 36.5t-45.5 46t-35.5 61.5t-26.5 61t-23.5 67q-2 18 -38 191h-89q-14 0 -18 8q0 1 -1 5t-1 5l2 13q0 1 4 14t4 14q6 24 6 62l11 20q0 1 14.5 4.5t19.5 3.5h41
v43h-63q-18 0 -23 9z" />
    </font>
</defs>
</svg>
